IBM Plex Mono-Italic.ufo
<glyph name="exclam" format="2">
  <advance width="600"/>
  <unicode hex="0021"/>
  <outline>
    <contour>
      <point x="311" y="233" type="line"/>
      <point x="383" y="495" type="line"/>
      <point x="417" y="698" type="line"/>
      <point x="331" y="698" type="line"/>
      <point x="297" y="495" type="line"/>
      <point x="280" y="233" type="line"/>
    </contour>
    <contour>
      <point x="257" y="-9" type="curve" smooth="yes"/>
      <point x="310" y="-9"/>
      <point x="332" y="14"/>
      <point x="338" y="50" type="curve" smooth="yes"/>
      <point x="341" y="68"/>
      <point x="342" y="77"/>
      <point x="342" y="83" type="curve" smooth="yes"/>
      <point x="342" y="108"/>
      <point x="324" y="127"/>
      <point x="277" y="127" type="curve" smooth="yes"/>
      <point x="224" y="127"/>
      <point x="202" y="104"/>
      <point x="196" y="68" type="curve" smooth="yes"/>
      <point x="193" y="50"/>
      <point x="192" y="41"/>
      <point x="192" y="35" type="curve" smooth="yes"/>
      <point x="192" y="10"/>
      <point x="210" y="-9"/>
    </contour>
  </outline>
</glyph>
<glyph name="numbersign" format="2">
  <advance width="600"/>
  <unicode hex="0023"/>
  <outline>
    <contour>
      <point x="68" y="0" type="line"/>
      <point x="141" y="0" type="line"/>
      <point x="379" y="698" type="line"/>
      <point x="306" y="698" type="line"/>
      <point x="232" y="481" type="line"/>
      <point x="92" y="481" type="line"/>
      <point x="81" y="417" type="line"/>
      <point x="210" y="417" type="line"/>
      <point x="164" y="281" type="line"/>
      <point x="23" y="281" type="line"/>
      <point x="12" y="217" type="line"/>
      <point x="142" y="217" type="line"/>
    </contour>
    <contour>
      <point x="252" y="0" type="line"/>
      <point x="325" y="0" type="line"/>
      <point x="399" y="217" type="line"/>
      <point x="539" y="217" type="line"/>
      <point x="550" y="281" type="line"/>
      <point x="421" y="281" type="line"/>
      <point x="467" y="417" type="line"/>
      <point x="608" y="417" type="line"/>
      <point x="619" y="481" type="line"/>
      <point x="489" y="481" type="line"/>
      <point x="563" y="698" type="line"/>
      <point x="490" y="698" type="line"/>
    </contour>
  </outline>
</glyph>
<glyph name="quotesingle" format="2">
  <advance width="600"/>
  <unicode hex="0027"/>
  <outline>
    <contour>
      <point x="371" y="464" type="line"/>
      <point x="417" y="740" type="line"/>
      <point x="343" y="740" type="line"/>
      <point x="297" y="464" type="line"/>
    </contour>
  </outline>
</glyph>
<glyph name="asterisk" format="2">
  <advance width="600"/>
  <unicode hex="002A"/>
  <outline>
    <contour>
      <point x="296" y="230" type="line"/>
      <point x="392" y="58" type="line"/>
      <point x="450" y="99" type="line"/>
      <point x="355" y="267" type="line"/>
      <point x="562" y="335" type="line"/>
      <point x="553" y="399" type="line"/>
      <point x="348" y="335" type="line"/>
      <point x="384" y="551" type="line"/>
      <point x="312" y="551" type="line"/>
      <point x="276" y="335" type="line"/>
      <point x="86" y="399" type="line"/>
      <point x="56" y="339" type="line"/>
      <point x="242" y="270" type="line"/>
      <point x="92" y="102" type="line"/>
      <point x="145" y="58" type="line"/>
    </contour>
  </outline>
</glyph>
<glyph name="plus" format="2">
  <advance width="600"/>
  <unicode hex="002B"/>
  <outline>
    <contour>
      <point x="304" y="62" type="line"/>
      <point x="339" y="272" type="line"/>
      <point x="537" y="272" type="line"/>
      <point x="548" y="338" type="line"/>
      <point x="350" y="338" type="line"/>
      <point x="385" y="548" type="line"/>
      <point x="311" y="548" type="line"/>
      <point x="276" y="338" type="line"/>
      <point x="78" y="338" type="line"/>
      <point x="67" y="272" type="line"/>
      <point x="265" y="272" type="line"/>
      <point x="230" y="62" type="line"/>
    </contour>
  </outline>
</glyph>
<glyph name="hyphen" format="2">
  <advance width="600"/>
  <unicode hex="002D"/>
  <outline>
    <contour>
      <point x="443" y="263" type="line"/>
      <point x="457" y="345" type="line"/>
      <point x="171" y="345" type="line"/>
      <point x="157" y="263" type="line"/>
    </contour>
  </outline>
</glyph>
<glyph name="period" format="2">
  <advance width="600"/>
  <unicode hex="002E"/>
  <outline>
    <contour>
      <point x="257" y="-9" type="curve" smooth="yes"/>
      <point x="308" y="-9"/>
      <point x="332" y="14"/>
      <point x="338" y="50" type="curve" smooth="yes"/>
      <point x="340" y="62"/>
      <point x="342" y="74"/>
      <point x="342" y="82" type="curve" smooth="yes"/>
      <point x="342" y="107"/>
      <point x="324" y="127"/>
      <point x="277" y="127" type="curve" smooth="yes"/>
      <point x="226" y="127"/>
      <point x="202" y="104"/>
      <point x="196" y="68" type="curve" smooth="yes"/>
      <point x="194" y="56"/>
      <point x="192" y="44"/>
      <point x="192" y="36" type="curve" smooth="yes"/>
      <point x="192" y="11"/>
      <point x="210" y="-9"/>
    </contour>
  </outline>
</glyph>
<glyph name="slash" format="2">
  <advance width="600"/>
  <unicode hex="002F"/>
  <outline>
    <contour>
      <point x="97" y="-138" type="line"/>
      <point x="594" y="760" type="line"/>
      <point x="521" y="760" type="line"/>
      <point x="25" y="-138" type="line"/>
    </contour>
  </outline>
</glyph>
<glyph name="one" format="2">
  <advance width="600"/>
  <unicode hex="0031"/>
  <outline>
    <contour>
      <point x="509" y="0" type="line"/>
      <point x="521" y="72" type="line"/>
      <point x="336" y="72" type="line"/>
      <point x="441" y="698" type="line"/>
      <point x="310" y="698" type="line"/>
      <point x="97" y="525" type="line"/>
      <point x="138" y="472" type="line"/>
      <point x="341" y="636" type="line"/>
      <point x="349" y="636" type="line"/>
      <point x="254" y="72" type="line"/>
      <point x="54" y="72" type="line"/>
      <point x="42" y="0" type="line"/>
    </contour>
  </outline>
</glyph>
<glyph name="four" format="2">
  <advance width="600"/>
  <unicode hex="0034"/>
  <outline>
    <contour>
      <point x="415" y="0" type="line"/>
      <point x="438" y="137" type="line"/>
      <point x="543" y="137" type="line"/>
      <point x="554" y="205" type="line"/>
      <point x="449" y="205" type="line"/>
      <point x="532" y="698" type="line"/>
      <point x="421" y="698" type="line"/>
      <point x="28" y="214" type="line"/>
      <point x="15" y="137" type="line"/>
      <point x="360" y="137" type="line"/>
      <point x="337" y="0" type="line"/>
    </contour>
    <contour>
      <point x="436" y="614" type="line"/>
      <point x="440" y="614" type="line"/>
      <point x="371" y="205" type="line"/>
      <point x="103" y="205" type="line"/>
    </contour>
  </outline>
</glyph>
<glyph name="five" format="2">
  <advance width="600"/>
  <unicode hex="0035"/>
  <outline>
    <contour>
      <point x="571" y="698" type="line"/>
      <point x="193" y="698" type="line"/>
      <point x="105" y="314" type="line"/>
      <point x="173" y="305" type="line"/>
      <point x="209" y="338"/>
      <point x="246" y="364"/>
      <point x="312" y="364" type="curve" smooth="yes"/>
      <point x="398" y="364"/>
      <point x="442" y="320"/>
      <point x="442" y="247" type="curve" smooth="yes"/>
      <point x="442" y="230"/>
      <point x="441" y="221"/>
      <point x="438" y="203" type="curve" smooth="yes"/>
      <point x="423" y="113"/>
      <point x="362" y="60"/>
      <point x="266" y="60" type="curve" smooth="yes"/>
      <point x="182" y="60"/>
      <point x="148" y="98"/>
      <point x="118" y="153" type="curve"/>
      <point x="48" y="107" type="line"/>
      <point x="81" y="47"/>
      <point x="148" y="-12"/>
      <point x="256" y="-12" type="curve" smooth="yes"/>
      <point x="437" y="-12"/>
      <point x="529" y="115"/>
      <point x="529" y="252" type="curve" smooth="yes"/>
      <point x="529" y="364"/>
      <point x="455" y="433"/>
      <point x="343" y="433" type="curve" smooth="yes"/>
      <point x="273" y="433"/>
      <point x="232" y="404"/>
      <point x="191" y="358" type="curve"/>
      <point x="185" y="358" type="line"/>
      <point x="250" y="627" type="line"/>
      <point x="559" y="627" type="line"/>
    </contour>
  </outline>
</glyph>
<glyph name="seven" format="2">
  <advance width="600"/>
  <unicode hex="0037"/>
  <outline>
    <contour>
      <point x="222" y="0" type="line"/>
      <point x="590" y="626" type="line"/>
      <point x="602" y="698" type="line"/>
      <point x="137" y="698" type="line"/>
      <point x="104" y="497" type="line"/>
      <point x="178" y="497" type="line"/>
      <point x="199" y="627" type="line"/>
      <point x="503" y="627" type="line"/>
      <point x="131" y="0" type="line"/>
    </contour>
  </outline>
</glyph>
<glyph name="eight" format="2">
  <advance width="600"/>
  <unicode hex="0038"/>
  <outline>
    <contour>
      <point x="255" y="-12" type="curve" smooth="yes"/>
      <point x="437" y="-12"/>
      <point x="535" y="90"/>
      <point x="535" y="207" type="curve" smooth="yes"/>
      <point x="535" y="296"/>
      <point x="493" y="342"/>
      <point x="419" y="363" type="curve"/>
      <point x="420" y="371" type="line"/>
      <point x="517" y="402"/>
      <point x="570" y="477"/>
      <point x="570" y="556" type="curve" smooth="yes"/>
      <point x="570" y="650"/>
      <point x="501" y="710"/>
      <point x="374" y="710" type="curve" smooth="yes"/>
      <point x="208" y="710"/>
      <point x="120" y="609"/>
      <point x="120" y="508" type="curve" smooth="yes"/>
      <point x="120" y="443"/>
      <point x="154" y="394"/>
      <point x="216" y="372" type="curve"/>
      <point x="215" y="364" type="line"/>
      <point x="105" y="335"/>
      <point x="41" y="258"/>
      <point x="41" y="160" type="curve" smooth="yes"/>
      <point x="41" y="60"/>
      <point x="110" y="-12"/>
    </contour>
    <contour>
      <point x="267" y="58" type="curve" smooth="yes"/>
      <point x="178" y="58"/>
      <point x="127" y="96"/>
      <point x="127" y="164" type="curve" smooth="yes"/>
      <point x="127" y="178"/>
      <point x="129" y="189"/>
      <point x="132" y="207" type="curve" smooth="yes"/>
      <point x="145" y="285"/>
      <point x="207" y="334"/>
      <point x="311" y="334" type="curve" smooth="yes"/>
      <point x="400" y="334"/>
      <point x="451" y="296"/>
      <point x="451" y="228" type="curve" smooth="yes"/>
      <point x="451" y="214"/>
      <point x="449" y="203"/>
      <point x="446" y="185" type="curve" smooth="yes"/>
      <point x="433" y="107"/>
      <point x="371" y="58"/>
    </contour>
    <contour>
      <point x="324" y="401" type="curve" smooth="yes"/>
      <point x="245" y="401"/>
      <point x="201" y="435"/>
      <point x="201" y="495" type="curve" smooth="yes"/>
      <point x="201" y="505"/>
      <point x="202" y="516"/>
      <point x="204" y="528" type="curve" smooth="yes"/>
      <point x="215" y="594"/>
      <point x="270" y="640"/>
      <point x="362" y="640" type="curve" smooth="yes"/>
      <point x="441" y="640"/>
      <point x="485" y="606"/>
      <point x="485" y="546" type="curve" smooth="yes"/>
      <point x="485" y="536"/>
      <point x="484" y="525"/>
      <point x="482" y="513" type="curve" smooth="yes"/>
      <point x="471" y="447"/>
      <point x="416" y="401"/>
    </contour>
  </outline>
</glyph>
<glyph name="less" format="2">
  <advance width="600"/>
  <unicode hex="003C"/>
  <outline>
    <contour>
      <point x="473" y="20" type="line"/>
      <point x="486" y="95" type="line"/>
      <point x="167" y="297" type="line"/>
      <point x="168" y="305" type="line"/>
      <point x="555" y="508" type="line"/>
      <point x="569" y="593" type="line"/>
      <point x="101" y="344" type="line"/>
      <point x="88" y="268" type="line"/>
    </contour>
  </outline>
</glyph>
<glyph name="equal" format="2">
  <advance width="600"/>
  <unicode hex="003D"/>
  <outline>
    <contour>
      <point x="555" y="373" type="line"/>
      <point x="566" y="439" type="line"/>
      <point x="95" y="439" type="line"/>
      <point x="84" y="373" type="line"/>
    </contour>
    <contour>
      <point x="522" y="174" type="line"/>
      <point x="533" y="240" type="line"/>
      <point x="62" y="240" type="line"/>
      <point x="51" y="174" type="line"/>
    </contour>
  </outline>
</glyph>
<glyph name="greater" format="2">
  <advance width="600"/>
  <unicode hex="003E"/>
  <outline>
    <contour>
      <point x="49" y="20" type="line"/>
      <point x="517" y="269" type="line"/>
      <point x="530" y="345" type="line"/>
      <point x="145" y="593" type="line"/>
      <point x="132" y="519" type="line"/>
      <point x="451" y="316" type="line"/>
      <point x="450" y="308" type="line"/>
      <point x="63" y="106" type="line"/>
    </contour>
  </outline>
</glyph>
<glyph name="question" format="2">
  <advance width="600"/>
  <unicode hex="003F"/>
  <outline>
    <contour>
      <point x="310" y="215" type="line"/>
      <point x="327" y="315" type="line"/>
      <point x="454" y="333"/>
      <point x="555" y="408"/>
      <point x="555" y="543" type="curve" smooth="yes"/>
      <point x="555" y="644"/>
      <point x="483" y="710"/>
      <point x="363" y="710" type="curve" smooth="yes"/>
      <point x="233" y="710"/>
      <point x="160" y="634"/>
      <point x="128" y="550" type="curve"/>
      <point x="199" y="520" type="line"/>
      <point x="225" y="589"/>
      <point x="271" y="639"/>
      <point x="356" y="639" type="curve" smooth="yes"/>
      <point x="425" y="639"/>
      <point x="470" y="602"/>
      <point x="470" y="544" type="curve" smooth="yes"/>
      <point x="470" y="542"/>
      <point x="470" y="527"/>
      <point x="468" y="515" type="curve" smooth="yes"/>
      <point x="453" y="425"/>
      <point x="400" y="390"/>
      <point x="259" y="372" type="curve"/>
      <point x="233" y="215" type="line"/>
    </contour>
    <contour>
      <point x="239" y="-9" type="curve" smooth="yes"/>
      <point x="290" y="-9"/>
      <point x="314" y="14"/>
      <point x="320" y="50" type="curve" smooth="yes"/>
      <point x="322" y="62"/>
      <point x="324" y="74"/>
      <point x="324" y="82" type="curve" smooth="yes"/>
      <point x="324" y="107"/>
      <point x="306" y="127"/>
      <point x="259" y="127" type="curve" smooth="yes"/>
      <point x="208" y="127"/>
      <point x="184" y="104"/>
      <point x="178" y="68" type="curve" smooth="yes"/>
      <point x="176" y="56"/>
      <point x="174" y="44"/>
      <point x="174" y="36" type="curve" smooth="yes"/>
      <point x="174" y="11"/>
      <point x="192" y="-9"/>
    </contour>
  </outline>
</glyph>
<glyph name="A" format="2">
  <advance width="600"/>
  <unicode hex="0041"/>
  <anchor x="264.0" y="0.0" name="bottom"/>
  <anchor x="528.0" y="0.0" name="bottomright"/>
  <anchor x="374.0" y="698.0" name="top"/>
  <outline>
    <contour>
      <point x="528" y="0" type="line"/>
      <point x="431" y="698" type="line"/>
      <point x="321" y="698" type="line"/>
      <point x="-9" y="0" type="line"/>
      <point x="79" y="0" type="line"/>
      <point x="171" y="199" type="line"/>
      <point x="417" y="199" type="line"/>
      <point x="442" y="0" type="line"/>
    </contour>
    <contour>
      <point x="409" y="272" type="line"/>
      <point x="202" y="272" type="line"/>
      <point x="357" y="614" type="line"/>
      <point x="366" y="614" type="line"/>
    </contour>
  </outline>
</glyph>
<glyph name="B" format="2">
  <advance width="600"/>
  <unicode hex="0042"/>
  <anchor x="266.0" y="0.0" name="bottom"/>
  <anchor x="360.0" y="698.0" name="top"/>
  <outline>
    <contour>
      <point x="46" y="0" type="line"/>
      <point x="313" y="0" type="line" smooth="yes"/>
      <point x="442" y="0"/>
      <point x="531" y="106"/>
      <point x="531" y="222" type="curve" smooth="yes"/>
      <point x="531" y="305"/>
      <point x="485" y="343"/>
      <point x="423" y="362" type="curve"/>
      <point x="424" y="366" type="line"/>
      <point x="501" y="387"/>
      <point x="556" y="445"/>
      <point x="556" y="537" type="curve" smooth="yes"/>
      <point x="556" y="635"/>
      <point x="497" y="698"/>
      <point x="388" y="698" type="curve" smooth="yes"/>
      <point x="163" y="698" type="line"/>
    </contour>
    <contour>
      <point x="139" y="72" type="line"/>
      <point x="182" y="327" type="line"/>
      <point x="338" y="327" type="line" smooth="yes"/>
      <point x="407" y="327"/>
      <point x="447" y="296"/>
      <point x="447" y="245" type="curve" smooth="yes"/>
      <point x="447" y="232"/>
      <point x="445" y="220"/>
      <point x="443" y="208" type="curve" smooth="yes"/>
      <point x="438" y="178" type="line" smooth="yes"/>
      <point x="426" y="106"/>
      <point x="376" y="72"/>
      <point x="296" y="72" type="curve" smooth="yes"/>
    </contour>
    <contour>
      <point x="193" y="395" type="line"/>
      <point x="231" y="626" type="line"/>
      <point x="374" y="626" type="line" smooth="yes"/>
      <point x="434" y="626"/>
      <point x="472" y="604"/>
      <point x="472" y="551" type="curve" smooth="yes"/>
      <point x="472" y="541"/>
      <point x="471" y="531"/>
      <point x="469" y="519" type="curve" smooth="yes"/>
      <point x="464" y="489" type="line" smooth="yes"/>
      <point x="454" y="429"/>
      <point x="411" y="395"/>
      <point x="336" y="395" type="curve" smooth="yes"/>
    </contour>
  </outline>
</glyph>
<glyph name="C" format="2">
  <advance width="600"/>
  <unicode hex="0043"/>
  <anchor x="290.0" y="0.0" name="bottom"/>
  <anchor x="392.0" y="698.0" name="top"/>
  <outline>
    <contour>
      <point x="287" y="-12" type="curve" smooth="yes"/>
      <point x="412" y="-12"/>
      <point x="479" y="55"/>
      <point x="532" y="165" type="curve"/>
      <point x="467" y="198" type="line"/>
      <point x="414" y="104"/>
      <point x="376" y="60"/>
      <point x="296" y="60" type="curve" smooth="yes"/>
      <point x="200" y="60"/>
      <point x="160" y="123"/>
      <point x="160" y="219" type="curve" smooth="yes"/>
      <point x="160" y="247"/>
      <point x="163" y="277"/>
      <point x="168" y="307" type="curve" smooth="yes"/>
      <point x="184" y="403" type="line" smooth="yes"/>
      <point x="208" y="547"/>
      <point x="273" y="638"/>
      <point x="385" y="638" type="curve" smooth="yes"/>
      <point x="468" y="638"/>
      <point x="494" y="588"/>
      <point x="508" y="528" type="curve"/>
      <point x="582" y="552" type="line"/>
      <point x="567" y="629"/>
      <point x="520" y="710"/>
      <point x="391" y="710" type="curve" smooth="yes"/>
      <point x="138" y="710"/>
      <point x="78" y="401"/>
      <point x="78" y="240" type="curve" smooth="yes"/>
      <point x="78" y="78"/>
      <point x="142" y="-12"/>
    </contour>
  </outline>
</glyph>
<glyph name="D" format="2">
  <advance width="600"/>
  <unicode hex="0044"/>
  <anchor x="242.0" y="0.0" name="bottom"/>
  <anchor x="343.0" y="698.0" name="top"/>
  <outline>
    <contour>
      <point x="55" y="0" type="line"/>
      <point x="248" y="0" type="line" smooth="yes"/>
      <point x="443" y="0"/>
      <point x="565" y="148"/>
      <point x="565" y="473" type="curve" smooth="yes"/>
      <point x="565" y="602"/>
      <point x="489" y="698"/>
      <point x="343" y="698" type="curve" smooth="yes"/>
      <point x="172" y="698" type="line"/>
    </contour>
    <contour>
      <point x="149" y="72" type="line"/>
      <point x="242" y="626" type="line"/>
      <point x="333" y="626" type="line" smooth="yes"/>
      <point x="431" y="626"/>
      <point x="483" y="572"/>
      <point x="483" y="471" type="curve" smooth="yes"/>
      <point x="483" y="443"/>
      <point x="480" y="409"/>
      <point x="476" y="385" type="curve" smooth="yes"/>
      <point x="460" y="289" type="line" smooth="yes"/>
      <point x="436" y="146"/>
      <point x="366" y="72"/>
      <point x="255" y="72" type="curve" smooth="yes"/>
    </contour>
  </outline>
</glyph>
<glyph name="E" format="2">
  <advance width="600"/>
  <unicode hex="0045"/>
  <anchor x="279.0" y="0.0" name="bottom"/>
  <anchor x="477.0" y="0.0" name="bottomright"/>
  <anchor x="379.0" y="698.0" name="top"/>
  <outline>
    <contour>
      <point x="477" y="0" type="line"/>
      <point x="489" y="72" type="line"/>
      <point x="141" y="72" type="line"/>
      <point x="182" y="318" type="line"/>
      <point x="517" y="318" type="line"/>
      <point x="529" y="390" type="line"/>
      <point x="194" y="390" type="line"/>
      <point x="234" y="626" type="line"/>
      <point x="580" y="626" type="line"/>
      <point x="592" y="698" type="line"/>
      <point x="164" y="698" type="line"/>
      <point x="47" y="0" type="line"/>
    </contour>
  </outline>
</glyph>
<glyph name="F" format="2">
  <advance width="600"/>
  <unicode hex="0046"/>
  <anchor x="87.0" y="0.0" name="bottom"/>
  <anchor x="382.0" y="698.0" name="top"/>
  <outline>
    <contour>
      <point x="129" y="0" type="line"/>
      <point x="182" y="317" type="line"/>
      <point x="509" y="317" type="line"/>
      <point x="521" y="389" type="line"/>
      <point x="194" y="389" type="line"/>
      <point x="234" y="626" type="line"/>
      <point x="590" y="626" type="line"/>
      <point x="602" y="698" type="line"/>
      <point x="164" y="698" type="line"/>
      <point x="47" y="0" type="line"/>
    </contour>
  </outline>
</glyph>
<glyph name="H" format="2">
  <advance width="600"/>
  <unicode hex="0048"/>
  <anchor x="255.0" y="0.0" name="bottom"/>
  <anchor x="372.0" y="698.0" name="top"/>
  <outline>
    <contour>
      <point x="393" y="0" type="line"/>
      <point x="475" y="0" type="line"/>
      <point x="592" y="698" type="line"/>
      <point x="510" y="698" type="line"/>
      <point x="458" y="390" type="line"/>
      <point x="186" y="390" type="line"/>
      <point x="238" y="698" type="line"/>
      <point x="156" y="698" type="line"/>
      <point x="39" y="0" type="line"/>
      <point x="121" y="0" type="line"/>
      <point x="174" y="318" type="line"/>
      <point x="446" y="318" type="line"/>
    </contour>
  </outline>
</glyph>
<glyph name="I" format="2">
  <advance width="600"/>
  <unicode hex="0049"/>
  <anchor x="261.0" y="0.0" name="bottom"/>
  <anchor x="473.0" y="0.0" name="bottomright"/>
  <anchor x="372.0" y="698.0" name="top"/>
  <outline>
    <contour>
      <point x="473" y="0" type="line"/>
      <point x="484" y="66" type="line"/>
      <point x="309" y="66" type="line"/>
      <point x="404" y="632" type="line"/>
      <point x="579" y="632" type="line"/>
      <point x="590" y="698" type="line"/>
      <point x="158" y="698" type="line"/>
      <point x="147" y="632" type="line"/>
      <point x="322" y="632" type="line"/>
      <point x="227" y="66" type="line"/>
      <point x="52" y="66" type="line"/>
      <point x="41" y="0" type="line"/>
    </contour>
  </outline>
</glyph>
<glyph name="J" format="2">
  <advance width="600"/>
  <unicode hex="004A"/>
  <anchor x="252.0" y="0.0" name="bottom"/>
  <anchor x="384.0" y="698.0" name="top"/>
  <outline>
    <contour>
      <point x="217" y="698" type="line"/>
      <point x="205" y="626" type="line"/>
      <point x="459" y="626" type="line"/>
      <point x="387" y="195" type="line" smooth="yes"/>
      <point x="372" y="105"/>
      <point x="326" y="61"/>
      <point x="251" y="61" type="curve" smooth="yes"/>
      <point x="166" y="61"/>
      <point x="144" y="109"/>
      <point x="137" y="168" type="curve"/>
      <point x="58" y="151" type="line"/>
      <point x="69" y="43"/>
      <point x="142" y="-12"/>
      <point x="249" y="-12" type="curve" smooth="yes"/>
      <point x="362" y="-12"/>
      <point x="444" y="45"/>
      <point x="465" y="170" type="curve" smooth="yes"/>
      <point x="553" y="698" type="line"/>
    </contour>
  </outline>
</glyph>
<glyph name="K" format="2">
  <advance width="600"/>
  <unicode hex="004B"/>
  <anchor x="266.0" y="0.0" name="bottom"/>
  <anchor x="377.0" y="698.0" name="top"/>
  <outline>
    <contour>
      <point x="440" y="0" type="line"/>
      <point x="530" y="0" type="line"/>
      <point x="347" y="402" type="line"/>
      <point x="645" y="698" type="line"/>
      <point x="541" y="698" type="line"/>
      <point x="319" y="477" type="line"/>
      <point x="185" y="335" type="line"/>
      <point x="181" y="335" type="line"/>
      <point x="242" y="698" type="line"/>
      <point x="160" y="698" type="line"/>
      <point x="43" y="0" type="line"/>
      <point x="125" y="0" type="line"/>
      <point x="162" y="221" type="line"/>
      <point x="287" y="345" type="line"/>
    </contour>
  </outline>
</glyph>
<glyph name="L" format="2">
  <advance width="600"/>
  <unicode hex="004C"/>
  <anchor x="283.0" y="0.0" name="bottom"/>
  <anchor x="235.0" y="698.0" name="top"/>
  <anchor x="371.0" y="740.0" name="topright"/>
  <outline>
    <contour>
      <point x="491" y="0" type="line"/>
      <point x="503" y="72" type="line"/>
      <point x="172" y="72" type="line"/>
      <point x="276" y="698" type="line"/>
      <point x="195" y="698" type="line"/>
      <point x="78" y="0" type="line"/>
    </contour>
  </outline>
</glyph>
<glyph name="M" format="2">
  <advance width="600"/>
  <unicode hex="004D"/>
  <anchor x="256.0" y="0.0" name="bottom"/>
  <anchor x="374.0" y="698.0" name="top"/>
  <outline>
    <contour>
      <point x="413" y="0" type="line"/>
      <point x="488" y="0" type="line"/>
      <point x="605" y="698" type="line"/>
      <point x="500" y="698" type="line"/>
      <point x="323" y="389" type="line"/>
      <point x="317" y="389" type="line"/>
      <point x="243" y="698" type="line"/>
      <point x="143" y="698" type="line"/>
      <point x="26" y="0" type="line"/>
      <point x="101" y="0" type="line"/>
      <point x="159" y="350" type="line"/>
      <point x="196" y="574" type="line"/>
      <point x="203" y="574" type="line"/>
      <point x="292" y="214" type="line"/>
      <point x="503" y="574" type="line"/>
      <point x="510" y="574" type="line"/>
      <point x="472" y="350" type="line"/>
    </contour>
  </outline>
</glyph>
<glyph name="N" format="2">
  <advance width="600"/>
  <unicode hex="004E"/>
  <anchor x="254.0" y="0.0" name="bottom"/>
  <anchor x="371.0" y="698.0" name="top"/>
  <outline>
    <contour>
      <point x="356" y="0" type="line"/>
      <point x="475" y="0" type="line"/>
      <point x="592" y="698" type="line"/>
      <point x="516" y="698" type="line"/>
      <point x="415" y="96" type="line"/>
      <point x="408" y="96" type="line"/>
      <point x="275" y="698" type="line"/>
      <point x="156" y="698" type="line"/>
      <point x="39" y="0" type="line"/>
      <point x="115" y="0" type="line"/>
      <point x="216" y="602" type="line"/>
      <point x="223" y="602" type="line"/>
    </contour>
  </outline>
</glyph>
<glyph name="O" format="2">
  <advance width="600"/>
  <unicode hex="004F"/>
  <anchor x="263.0" y="0.0" name="bottom"/>
  <anchor x="365.0" y="698.0" name="top"/>
  <outline>
    <contour>
      <point x="260" y="-12" type="curve" smooth="yes"/>
      <point x="510" y="-12"/>
      <point x="570" y="297"/>
      <point x="570" y="473" type="curve" smooth="yes"/>
      <point x="570" y="625"/>
      <point x="508" y="710"/>
      <point x="372" y="710" type="curve" smooth="yes"/>
      <point x="122" y="710"/>
      <point x="62" y="401"/>
      <point x="62" y="225" type="curve" smooth="yes"/>
      <point x="62" y="73"/>
      <point x="124" y="-12"/>
    </contour>
    <contour>
      <point x="266" y="60" type="curve" smooth="yes"/>
      <point x="178" y="60"/>
      <point x="143" y="115"/>
      <point x="143" y="210" type="curve" smooth="yes"/>
      <point x="143" y="233"/>
      <point x="145" y="262"/>
      <point x="150" y="292" type="curve" smooth="yes"/>
      <point x="169" y="406" type="line" smooth="yes"/>
      <point x="193" y="549"/>
      <point x="259" y="638"/>
      <point x="366" y="638" type="curve" smooth="yes"/>
      <point x="454" y="638"/>
      <point x="489" y="583"/>
      <point x="489" y="488" type="curve" smooth="yes"/>
      <point x="489" y="465"/>
      <point x="487" y="436"/>
      <point x="482" y="406" type="curve" smooth="yes"/>
      <point x="463" y="292" type="line" smooth="yes"/>
      <point x="439" y="149"/>
      <point x="373" y="60"/>
    </contour>
  </outline>
</glyph>
<glyph name="P" format="2">
  <advance width="600"/>
  <unicode hex="0050"/>
  <anchor x="88.0" y="0.0" name="bottom"/>
  <anchor x="377.0" y="698.0" name="top"/>
  <outline>
    <contour>
      <point x="129" y="0" type="line"/>
      <point x="179" y="297" type="line"/>
      <point x="355" y="297" type="line" smooth="yes"/>
      <point x="501" y="297"/>
      <point x="584" y="386"/>
      <point x="584" y="534" type="curve" smooth="yes"/>
      <point x="584" y="631"/>
      <point x="530" y="698"/>
      <point x="413" y="698" type="curve" smooth="yes"/>
      <point x="164" y="698" type="line"/>
      <point x="47" y="0" type="line"/>
    </contour>
    <contour>
      <point x="234" y="626" type="line"/>
      <point x="403" y="626" type="line" smooth="yes"/>
      <point x="464" y="626"/>
      <point x="500" y="598"/>
      <point x="500" y="543" type="curve" smooth="yes"/>
      <point x="500" y="530"/>
      <point x="499" y="516"/>
      <point x="497" y="504" type="curve" smooth="yes"/>
      <point x="491" y="468" type="line" smooth="yes"/>
      <point x="481" y="408"/>
      <point x="438" y="369"/>
      <point x="363" y="369" type="curve" smooth="yes"/>
      <point x="191" y="369" type="line"/>
    </contour>
  </outline>
</glyph>
<glyph name="Q" format="2">
  <advance width="600"/>
  <unicode hex="0051"/>
  <anchor x="365.0" y="698.0" name="top"/>
  <outline>
    <contour>
      <point x="384" y="-182" type="curve" smooth="yes"/>
      <point x="421" y="-182"/>
      <point x="441" y="-163"/>
      <point x="484" y="-122" type="curve" smooth="yes"/>
      <point x="545" y="-64" type="line"/>
      <point x="501" y="-27" type="line"/>
      <point x="401" y="-117" type="line"/>
      <point x="388" y="-114" type="line"/>
      <point x="316" y="-6" type="line"/>
      <point x="517" y="35"/>
      <point x="570" y="307"/>
      <point x="570" y="473" type="curve" smooth="yes"/>
      <point x="570" y="625"/>
      <point x="508" y="710"/>
      <point x="372" y="710" type="curve" smooth="yes"/>
      <point x="122" y="710"/>
      <point x="62" y="401"/>
      <point x="62" y="225" type="curve" smooth="yes"/>
      <point x="62" y="85"/>
      <point x="114" y="1"/>
      <point x="229" y="-10" type="curve"/>
      <point x="316" y="-137" type="line" smooth="yes"/>
      <point x="334" y="-163"/>
      <point x="353" y="-182"/>
    </contour>
    <contour>
      <point x="266" y="60" type="curve" smooth="yes"/>
      <point x="178" y="60"/>
      <point x="143" y="115"/>
      <point x="143" y="210" type="curve" smooth="yes"/>
      <point x="143" y="233"/>
      <point x="145" y="262"/>
      <point x="150" y="292" type="curve" smooth="yes"/>
      <point x="169" y="406" type="line" smooth="yes"/>
      <point x="193" y="549"/>
      <point x="259" y="638"/>
      <point x="366" y="638" type="curve" smooth="yes"/>
      <point x="454" y="638"/>
      <point x="489" y="583"/>
      <point x="489" y="488" type="curve" smooth="yes"/>
      <point x="489" y="465"/>
      <point x="487" y="436"/>
      <point x="482" y="406" type="curve" smooth="yes"/>
      <point x="463" y="292" type="line" smooth="yes"/>
      <point x="439" y="149"/>
      <point x="373" y="60"/>
    </contour>
  </outline>
</glyph>
<glyph name="R" format="2">
  <advance width="600"/>
  <unicode hex="0052"/>
  <anchor x="265.0" y="0.0" name="bottom"/>
  <anchor x="354.0" y="698.0" name="top"/>
  <outline>
    <contour>
      <point x="179" y="299" type="line"/>
      <point x="293" y="299" type="line"/>
      <point x="412" y="0" type="line"/>
      <point x="501" y="0" type="line"/>
      <point x="374" y="302" type="line"/>
      <point x="506" y="311"/>
      <point x="584" y="395"/>
      <point x="584" y="534" type="curve" smooth="yes"/>
      <point x="584" y="631"/>
      <point x="530" y="698"/>
      <point x="413" y="698" type="curve" smooth="yes"/>
      <point x="164" y="698" type="line"/>
      <point x="47" y="0" type="line"/>
      <point x="129" y="0" type="line"/>
    </contour>
    <contour>
      <point x="191" y="369" type="line"/>
      <point x="234" y="626" type="line"/>
      <point x="403" y="626" type="line" smooth="yes"/>
      <point x="464" y="626"/>
      <point x="500" y="598"/>
      <point x="500" y="543" type="curve" smooth="yes"/>
      <point x="500" y="530"/>
      <point x="499" y="516"/>
      <point x="497" y="504" type="curve" smooth="yes"/>
      <point x="491" y="468" type="line" smooth="yes"/>
      <point x="480" y="402"/>
      <point x="431" y="369"/>
      <point x="363" y="369" type="curve" smooth="yes"/>
    </contour>
  </outline>
</glyph>
<glyph name="T" format="2">
  <advance width="600"/>
  <unicode hex="0054"/>
  <anchor x="258.0" y="0.0" name="bottom"/>
  <anchor x="368.0" y="698.0" name="top"/>
  <outline>
    <contour>
      <point x="637" y="626" type="line"/>
      <point x="649" y="698" type="line"/>
      <point x="99" y="698" type="line"/>
      <point x="87" y="626" type="line"/>
      <point x="321" y="626" type="line"/>
      <point x="216" y="0" type="line"/>
      <point x="298" y="0" type="line"/>
      <point x="403" y="626" type="line"/>
    </contour>
  </outline>
</glyph>
<glyph name="U" format="2">
  <advance width="600"/>
  <unicode hex="0055"/>
  <anchor x="256.0" y="0.0" name="bottom"/>
  <anchor x="364.0" y="0.0" name="bottomright"/>
  <anchor x="367.0" y="698.0" name="top"/>
  <outline>
    <contour>
      <point x="154" y="698" type="line"/>
      <point x="91" y="323" type="line" smooth="yes"/>
      <point x="82" y="269"/>
      <point x="73" y="209"/>
      <point x="73" y="166" type="curve" smooth="yes"/>
      <point x="73" y="52"/>
      <point x="126" y="-12"/>
      <point x="269" y="-12" type="curve" smooth="yes"/>
      <point x="452" y="-12"/>
      <point x="489" y="84"/>
      <point x="524" y="291" type="curve" smooth="yes"/>
      <point x="592" y="698" type="line"/>
      <point x="510" y="698" type="line"/>
      <point x="439" y="274" type="line" smooth="yes"/>
      <point x="416" y="137"/>
      <point x="398" y="60"/>
      <point x="266" y="60" type="curve" smooth="yes"/>
      <point x="177" y="60"/>
      <point x="154" y="104"/>
      <point x="154" y="173" type="curve" smooth="yes"/>
      <point x="154" y="198"/>
      <point x="157" y="226"/>
      <point x="169" y="298" type="curve" smooth="yes"/>
      <point x="236" y="698" type="line"/>
    </contour>
  </outline>
</glyph>
<glyph name="V" format="2">
  <advance width="600"/>
  <unicode hex="0056"/>
  <anchor x="255.0" y="0.0" name="bottom"/>
  <anchor x="355.0" y="698.0" name="top"/>
  <outline>
    <contour>
      <point x="313" y="0" type="line"/>
      <point x="635" y="698" type="line"/>
      <point x="549" y="698" type="line"/>
      <point x="392" y="349" type="line"/>
      <point x="271" y="81" type="line"/>
      <point x="266" y="81" type="line"/>
      <point x="231" y="349" type="line"/>
      <point x="187" y="698" type="line"/>
      <point x="109" y="698" type="line"/>
      <point x="201" y="0" type="line"/>
    </contour>
  </outline>
</glyph>
<glyph name="W" format="2">
  <advance width="600"/>
  <unicode hex="0057"/>
  <anchor x="258.0" y="0.0" name="bottom"/>
  <anchor x="363.0" y="698.0" name="top"/>
  <outline>
    <contour>
      <point x="167" y="0" type="line"/>
      <point x="322" y="421" type="line"/>
      <point x="330" y="421" type="line"/>
      <point x="345" y="0" type="line"/>
      <point x="466" y="0" type="line"/>
      <point x="637" y="698" type="line"/>
      <point x="562" y="698" type="line"/>
      <point x="467" y="298" type="line"/>
      <point x="416" y="82" type="line"/>
      <point x="408" y="82" type="line"/>
      <point x="387" y="516" type="line"/>
      <point x="293" y="516" type="line"/>
      <point x="130" y="82" type="line"/>
      <point x="122" y="82" type="line"/>
      <point x="143" y="305" type="line"/>
      <point x="180" y="698" type="line"/>
      <point x="107" y="698" type="line"/>
      <point x="46" y="0" type="line"/>
    </contour>
  </outline>
</glyph>
<glyph name="X" format="2">
  <advance width="600"/>
  <unicode hex="0058"/>
  <anchor x="261.0" y="0.0" name="bottom"/>
  <anchor x="377.0" y="698.0" name="top"/>
  <outline>
    <contour>
      <point x="367" y="353" type="line"/>
      <point x="643" y="698" type="line"/>
      <point x="547" y="698" type="line"/>
      <point x="441" y="563" type="line"/>
      <point x="332" y="425" type="line"/>
      <point x="328" y="425" type="line"/>
      <point x="264" y="563" type="line"/>
      <point x="202" y="698" type="line"/>
      <point x="114" y="698" type="line"/>
      <point x="275" y="360" type="line"/>
      <point x="-16" y="0" type="line"/>
      <point x="80" y="0" type="line"/>
      <point x="191" y="141" type="line"/>
      <point x="309" y="290" type="line"/>
      <point x="313" y="290" type="line"/>
      <point x="381" y="141" type="line"/>
      <point x="445" y="0" type="line"/>
      <point x="533" y="0" type="line"/>
    </contour>
  </outline>
</glyph>
<glyph name="Z" format="2">
  <advance width="600"/>
  <unicode hex="005A"/>
  <anchor x="257.0" y="0.0" name="bottom"/>
  <anchor x="364.0" y="698.0" name="top"/>
  <outline>
    <contour>
      <point x="520" y="72" type="line"/>
      <point x="111" y="72" type="line"/>
      <point x="597" y="624" type="line"/>
      <point x="609" y="698" type="line"/>
      <point x="141" y="698" type="line"/>
      <point x="129" y="626" type="line"/>
      <point x="503" y="626" type="line"/>
      <point x="17" y="74" type="line"/>
      <point x="5" y="0" type="line"/>
      <point x="508" y="0" type="line"/>
    </contour>
  </outline>
</glyph>
<glyph name="bracketleft" format="2">
  <advance width="600"/>
  <unicode hex="005B"/>
  <outline>
    <contour>
      <point x="436" y="-138" type="line"/>
      <point x="446" y="-77" type="line"/>
      <point x="238" y="-77" type="line"/>
      <point x="367" y="699" type="line"/>
      <point x="576" y="699" type="line"/>
      <point x="586" y="760" type="line"/>
      <point x="310" y="760" type="line"/>
      <point x="160" y="-138" type="line"/>
    </contour>
  </outline>
</glyph>
<glyph name="bracketright" format="2">
  <advance width="600"/>
  <unicode hex="005D"/>
  <outline>
    <contour>
      <point x="160" y="760" type="line"/>
      <point x="149" y="699" type="line"/>
      <point x="358" y="699" type="line"/>
      <point x="229" y="-77" type="line"/>
      <point x="20" y="-77" type="line"/>
      <point x="10" y="-138" type="line"/>
      <point x="286" y="-138" type="line"/>
      <point x="436" y="760" type="line"/>
    </contour>
  </outline>
</glyph>
<glyph name="asciicircum" format="2">
  <advance width="600"/>
  <unicode hex="005E"/>
  <outline>
    <contour>
      <point x="572" y="320" type="line"/>
      <point x="422" y="698" type="line"/>
      <point x="334" y="698" type="line"/>
      <point x="65" y="328" type="line"/>
      <point x="123" y="293" type="line"/>
      <point x="367" y="630" type="line"/>
      <point x="371" y="630" type="line"/>
      <point x="507" y="293" type="line"/>
    </contour>
  </outline>
</glyph>
<glyph name="underscore" format="2">
  <advance width="600"/>
  <unicode hex="005F"/>
  <outline>
    <contour>
      <point x="477" y="-167" type="line"/>
      <point x="489" y="-95" type="line"/>
      <point x="14" y="-95" type="line"/>
      <point x="2" y="-167" type="line"/>
    </contour>
  </outline>
</glyph>
<glyph name="grave" format="2">
  <advance width="600"/>
  <unicode hex="0060"/>
  <anchor x="300.0" y="516.0" name="_top"/>
  <outline>
    <contour>
      <point x="304" y="585" type="line"/>
      <point x="355" y="605" type="line"/>
      <point x="303" y="779" type="line"/>
      <point x="229" y="752" type="line"/>
    </contour>
  </outline>
</glyph>
<glyph name="a" format="2">
  <advance width="600"/>
  <unicode hex="0061"/>
  <anchor x="240.0" y="0.0" name="bottom"/>
  <anchor x="524.0" y="0.0" name="bottomright"/>
  <anchor x="316.0" y="516.0" name="top"/>
  <outline>
    <contour>
      <point x="213" y="-12" type="curve" smooth="yes"/>
      <point x="302" y="-12"/>
      <point x="352" y="41"/>
      <point x="392" y="122" type="curve"/>
      <point x="395" y="122" type="line"/>
      <point x="389" y="85" type="line" smooth="yes"/>
      <point x="381" y="38"/>
      <point x="402" y="0"/>
      <point x="466" y="0" type="curve" smooth="yes"/>
      <point x="524" y="0" type="line"/>
      <point x="536" y="70" type="line"/>
      <point x="465" y="70" type="line"/>
      <point x="539" y="516" type="line"/>
      <point x="461" y="516" type="line"/>
      <point x="446" y="426" type="line"/>
      <point x="443" y="426" type="line"/>
      <point x="421" y="493"/>
      <point x="370" y="528"/>
      <point x="296" y="528" type="curve" smooth="yes"/>
      <point x="117" y="528"/>
      <point x="56" y="326"/>
      <point x="56" y="188" type="curve" smooth="yes"/>
      <point x="56" y="56"/>
      <point x="112" y="-12"/>
    </contour>
    <contour>
      <point x="240" y="57" type="curve" smooth="yes"/>
      <point x="171" y="57"/>
      <point x="135" y="103"/>
      <point x="135" y="180" type="curve" smooth="yes"/>
      <point x="135" y="193"/>
      <point x="136" y="207"/>
      <point x="139" y="225" type="curve" smooth="yes"/>
      <point x="151" y="297" type="line" smooth="yes"/>
      <point x="167" y="393"/>
      <point x="222" y="459"/>
      <point x="318" y="459" type="curve" smooth="yes"/>
      <point x="394" y="459"/>
      <point x="445" y="418"/>
      <point x="433" y="346" type="curve" smooth="yes"/>
      <point x="414" y="232" type="line" smooth="yes"/>
      <point x="406" y="185"/>
      <point x="385" y="144"/>
      <point x="359" y="114" type="curve" smooth="yes"/>
      <point x="324" y="74"/>
      <point x="282" y="57"/>
    </contour>
  </outline>
</glyph>
<glyph name="b" format="2">
  <advance width="600"/>
  <unicode hex="0062"/>
  <anchor x="291.0" y="0.0" name="bottom"/>
  <outline>
    <contour>
      <point x="53" y="0" type="line"/>
      <point x="131" y="0" type="line"/>
      <point x="146" y="90" type="line"/>
      <point x="149" y="90" type="line"/>
      <point x="171" y="23"/>
      <point x="224" y="-12"/>
      <point x="300" y="-12" type="curve" smooth="yes"/>
      <point x="482" y="-12"/>
      <point x="544" y="190"/>
      <point x="544" y="328" type="curve" smooth="yes"/>
      <point x="544" y="460"/>
      <point x="487" y="528"/>
      <point x="383" y="528" type="curve" smooth="yes"/>
      <point x="292" y="528"/>
      <point x="240" y="475"/>
      <point x="200" y="394" type="curve"/>
      <point x="197" y="394" type="line"/>
      <point x="255" y="740" type="line"/>
      <point x="177" y="740" type="line"/>
    </contour>
    <contour>
      <point x="276" y="57" type="curve" smooth="yes"/>
      <point x="199" y="57"/>
      <point x="147" y="98"/>
      <point x="159" y="170" type="curve" smooth="yes"/>
      <point x="178" y="284" type="line" smooth="yes"/>
      <point x="186" y="332"/>
      <point x="209" y="373"/>
      <point x="235" y="402" type="curve" smooth="yes"/>
      <point x="271" y="442"/>
      <point x="313" y="459"/>
      <point x="356" y="459" type="curve" smooth="yes"/>
      <point x="428" y="459"/>
      <point x="465" y="413"/>
      <point x="465" y="336" type="curve" smooth="yes"/>
      <point x="465" y="323"/>
      <point x="464" y="309"/>
      <point x="461" y="291" type="curve" smooth="yes"/>
      <point x="449" y="219" type="line" smooth="yes"/>
      <point x="433" y="123"/>
      <point x="375" y="57"/>
    </contour>
  </outline>
</glyph>
<glyph name="c" format="2">
  <advance width="600"/>
  <unicode hex="0063"/>
  <anchor x="272.0" y="0.0" name="bottom"/>
  <anchor x="339.0" y="516.0" name="top"/>
  <outline>
    <contour>
      <point x="270" y="-12" type="curve" smooth="yes"/>
      <point x="378" y="-12"/>
      <point x="443" y="44"/>
      <point x="508" y="149" type="curve"/>
      <point x="452" y="182" type="line"/>
      <point x="370" y="69"/>
      <point x="326" y="56"/>
      <point x="280" y="56" type="curve" smooth="yes"/>
      <point x="205" y="56"/>
      <point x="154" y="97"/>
      <point x="154" y="185" type="curve" smooth="yes"/>
      <point x="154" y="198"/>
      <point x="155" y="209"/>
      <point x="159" y="233" type="curve" smooth="yes"/>
      <point x="169" y="293" type="line" smooth="yes"/>
      <point x="187" y="401"/>
      <point x="244" y="460"/>
      <point x="332" y="460" type="curve" smooth="yes"/>
      <point x="396" y="460"/>
      <point x="434" y="441"/>
      <point x="454" y="378" type="curve"/>
      <point x="521" y="404" type="line"/>
      <point x="503" y="472"/>
      <point x="450" y="528"/>
      <point x="341" y="528" type="curve" smooth="yes"/>
      <point x="194" y="528"/>
      <point x="75" y="403"/>
      <point x="75" y="206" type="curve" smooth="yes"/>
      <point x="75" y="77"/>
      <point x="142" y="-12"/>
    </contour>
  </outline>
</glyph>
<glyph name="d" format="2">
  <advance width="600"/>
  <unicode hex="0064"/>
  <anchor x="227.0" y="0.0" name="bottom"/>
  <anchor x="647.0" y="740.0" name="topright"/>
  <outline>
    <contour>
      <point x="383" y="0" type="line"/>
      <point x="461" y="0" type="line"/>
      <point x="585" y="740" type="line"/>
      <point x="507" y="740" type="line"/>
      <point x="454" y="426" type="line"/>
      <point x="451" y="426" type="line"/>
      <point x="429" y="493"/>
      <point x="376" y="528"/>
      <point x="300" y="528" type="curve" smooth="yes"/>
      <point x="118" y="528"/>
      <point x="56" y="326"/>
      <point x="56" y="188" type="curve" smooth="yes"/>
      <point x="56" y="56"/>
      <point x="113" y="-12"/>
      <point x="217" y="-12" type="curve" smooth="yes"/>
      <point x="308" y="-12"/>
      <point x="360" y="41"/>
      <point x="400" y="122" type="curve"/>
      <point x="403" y="122" type="line"/>
    </contour>
    <contour>
      <point x="244" y="57" type="curve" smooth="yes"/>
      <point x="172" y="57"/>
      <point x="135" y="103"/>
      <point x="135" y="180" type="curve" smooth="yes"/>
      <point x="135" y="193"/>
      <point x="136" y="207"/>
      <point x="139" y="225" type="curve" smooth="yes"/>
      <point x="151" y="297" type="line" smooth="yes"/>
      <point x="167" y="393"/>
      <point x="224" y="459"/>
      <point x="323" y="459" type="curve" smooth="yes"/>
      <point x="400" y="459"/>
      <point x="453" y="418"/>
      <point x="441" y="346" type="curve" smooth="yes"/>
      <point x="422" y="232" type="line" smooth="yes"/>
      <point x="414" y="184"/>
      <point x="391" y="143"/>
      <point x="365" y="114" type="curve" smooth="yes"/>
      <point x="329" y="74"/>
      <point x="287" y="57"/>
    </contour>
  </outline>
</glyph>
<glyph name="i" format="2">
  <advance width="600"/>
  <unicode hex="0069"/>
  <anchor x="264.0" y="0.0" name="bottom"/>
  <anchor x="322.0" y="0.0" name="bottomright"/>
  <outline>
    <contour>
      <point x="340" y="631" type="curve" smooth="yes"/>
      <point x="380" y="631"/>
      <point x="401" y="649"/>
      <point x="406" y="679" type="curve" smooth="yes"/>
      <point x="408" y="691"/>
      <point x="410" y="700"/>
      <point x="410" y="708" type="curve" smooth="yes"/>
      <point x="410" y="729"/>
      <point x="395" y="748"/>
      <point x="352" y="748" type="curve" smooth="yes"/>
      <point x="312" y="748"/>
      <point x="291" y="730"/>
      <point x="286" y="700" type="curve" smooth="yes"/>
      <point x="284" y="688"/>
      <point x="282" y="679"/>
      <point x="282" y="671" type="curve" smooth="yes"/>
      <point x="282" y="650"/>
      <point x="297" y="631"/>
    </contour>
    <contour>
      <point x="272" y="-12" type="curve" smooth="yes"/>
      <point x="317" y="-12"/>
      <point x="354" y="12"/>
      <point x="448" y="99" type="curve" smooth="yes"/>
      <point x="539" y="183" type="line"/>
      <point x="492" y="227" type="line"/>
      <point x="295" y="57" type="line"/>
      <point x="272" y="66" type="line"/>
      <point x="359" y="516" type="line"/>
      <point x="93" y="516" type="line"/>
      <point x="82" y="449" type="line"/>
      <point x="268" y="449" type="line"/>
      <point x="200" y="97" type="line" smooth="yes"/>
      <point x="198" y="85"/>
      <point x="195" y="70"/>
      <point x="195" y="57" type="curve" smooth="yes"/>
      <point x="195" y="17"/>
      <point x="222" y="-12"/>
    </contour>
  </outline>
</glyph>
<glyph name="k" format="2">
  <advance width="600"/>
  <unicode hex="006B"/>
  <anchor x="251.0" y="0.0" name="bottom"/>
  <outline>
    <contour>
      <point x="59" y="0" type="line"/>
      <point x="137" y="0" type="line"/>
      <point x="185" y="285" type="line" smooth="yes"/>
      <point x="192" y="328"/>
      <point x="213" y="366"/>
      <point x="242" y="402" type="curve" smooth="yes"/>
      <point x="270" y="436"/>
      <point x="304" y="461"/>
      <point x="355" y="461" type="curve" smooth="yes"/>
      <point x="409" y="461"/>
      <point x="439" y="433"/>
      <point x="439" y="386" type="curve" smooth="yes"/>
      <point x="439" y="325"/>
      <point x="388" y="268"/>
      <point x="221" y="227" type="curve"/>
      <point x="302" y="51" type="line" smooth="yes"/>
      <point x="323" y="5"/>
      <point x="345" y="-12"/>
      <point x="379" y="-12" type="curve" smooth="yes"/>
      <point x="417" y="-12"/>
      <point x="447" y="10"/>
      <point x="499" y="62" type="curve" smooth="yes"/>
      <point x="570" y="133" type="line"/>
      <point x="527" y="178" type="line"/>
      <point x="394" y="56" type="line"/>
      <point x="381" y="58" type="line"/>
      <point x="310" y="213" type="line"/>
      <point x="485" y="256"/>
      <point x="519" y="339"/>
      <point x="519" y="401" type="curve" smooth="yes"/>
      <point x="519" y="478"/>
      <point x="466" y="528"/>
      <point x="384" y="528" type="curve" smooth="yes"/>
      <point x="298" y="528"/>
      <point x="244" y="473"/>
      <point x="207" y="394" type="curve"/>
      <point x="203" y="394" type="line"/>
      <point x="261" y="740" type="line"/>
      <point x="183" y="740" type="line"/>
    </contour>
  </outline>
</glyph>
<glyph name="l" format="2">
  <advance width="600"/>
  <unicode hex="006C"/>
  <anchor x="248.0" y="0.0" name="bottom"/>
  <anchor x="332.0" y="698.0" name="top"/>
  <anchor x="466.0" y="740.0" name="topright"/>
  <outline>
    <contour>
      <point x="249" y="-12" type="curve" smooth="yes"/>
      <point x="289" y="-12"/>
      <point x="325" y="5"/>
      <point x="422" y="93" type="curve" smooth="yes"/>
      <point x="526" y="187" type="line"/>
      <point x="481" y="231" type="line"/>
      <point x="276" y="57" type="line"/>
      <point x="251" y="65" type="line"/>
      <point x="381" y="740" type="line"/>
      <point x="118" y="740" type="line"/>
      <point x="107" y="673" type="line"/>
      <point x="289" y="673" type="line"/>
      <point x="177" y="91" type="line" smooth="yes"/>
      <point x="175" y="82"/>
      <point x="174" y="68"/>
      <point x="174" y="59" type="curve" smooth="yes"/>
      <point x="174" y="18"/>
      <point x="195" y="-12"/>
    </contour>
  </outline>
</glyph>
<glyph name="n" format="2">
  <advance width="600"/>
  <unicode hex="006E"/>
  <anchor x="253.0" y="0.0" name="bottom"/>
  <anchor x="337.0" y="516.0" name="top"/>
  <outline>
    <contour>
      <point x="137" y="0" type="line"/>
      <point x="185" y="285" type="line" smooth="yes"/>
      <point x="195" y="344"/>
      <point x="233" y="390"/>
      <point x="244" y="403" type="curve" smooth="yes"/>
      <point x="273" y="437"/>
      <point x="308" y="459"/>
      <point x="353" y="459" type="curve" smooth="yes"/>
      <point x="411" y="459"/>
      <point x="439" y="421"/>
      <point x="439" y="360" type="curve" smooth="yes"/>
      <point x="439" y="349"/>
      <point x="438" y="329"/>
      <point x="434" y="305" type="curve" smooth="yes"/>
      <point x="383" y="0" type="line"/>
      <point x="461" y="0" type="line"/>
      <point x="513" y="312" type="line" smooth="yes"/>
      <point x="517" y="335"/>
      <point x="519" y="359"/>
      <point x="519" y="379" type="curve" smooth="yes"/>
      <point x="519" y="473"/>
      <point x="465" y="528"/>
      <point x="379" y="528" type="curve" smooth="yes"/>
      <point x="296" y="528"/>
      <point x="245" y="476"/>
      <point x="207" y="394" type="curve"/>
      <point x="203" y="394" type="line"/>
      <point x="223" y="516" type="line"/>
      <point x="145" y="516" type="line"/>
      <point x="59" y="0" type="line"/>
    </contour>
  </outline>
</glyph>
<glyph name="p" format="2">
  <advance width="600"/>
  <unicode hex="0070"/>
  <anchor x="375.0" y="516.0" name="top"/>
  <outline>
    <contour>
      <point x="19" y="-200" type="line"/>
      <point x="97" y="-200" type="line"/>
      <point x="146" y="90" type="line"/>
      <point x="149" y="90" type="line"/>
      <point x="171" y="23"/>
      <point x="224" y="-12"/>
      <point x="300" y="-12" type="curve" smooth="yes"/>
      <point x="482" y="-12"/>
      <point x="544" y="190"/>
      <point x="544" y="328" type="curve" smooth="yes"/>
      <point x="544" y="460"/>
      <point x="487" y="528"/>
      <point x="383" y="528" type="curve" smooth="yes"/>
      <point x="292" y="528"/>
      <point x="240" y="475"/>
      <point x="200" y="394" type="curve"/>
      <point x="197" y="394" type="line"/>
      <point x="217" y="516" type="line"/>
      <point x="139" y="516" type="line"/>
    </contour>
    <contour>
      <point x="277" y="57" type="curve" smooth="yes"/>
      <point x="200" y="57"/>
      <point x="147" y="98"/>
      <point x="159" y="170" type="curve" smooth="yes"/>
      <point x="178" y="284" type="line" smooth="yes"/>
      <point x="186" y="332"/>
      <point x="209" y="373"/>
      <point x="235" y="402" type="curve" smooth="yes"/>
      <point x="271" y="442"/>
      <point x="313" y="459"/>
      <point x="356" y="459" type="curve" smooth="yes"/>
      <point x="428" y="459"/>
      <point x="465" y="413"/>
      <point x="465" y="336" type="curve" smooth="yes"/>
      <point x="465" y="323"/>
      <point x="464" y="309"/>
      <point x="461" y="291" type="curve" smooth="yes"/>
      <point x="449" y="219" type="line" smooth="yes"/>
      <point x="433" y="123"/>
      <point x="376" y="57"/>
    </contour>
  </outline>
</glyph>
<glyph name="r" format="2">
  <advance width="600"/>
  <unicode hex="0072"/>
  <anchor x="218.0" y="0.0" name="bottom"/>
  <anchor x="369.0" y="516.0" name="top"/>
  <outline>
    <contour>
      <point x="256" y="0" type="line"/>
      <point x="301" y="269" type="line" smooth="yes"/>
      <point x="311" y="329"/>
      <point x="347" y="371"/>
      <point x="360" y="386" type="curve" smooth="yes"/>
      <point x="391" y="422"/>
      <point x="428" y="438"/>
      <point x="488" y="438" type="curve" smooth="yes"/>
      <point x="576" y="438" type="line"/>
      <point x="589" y="516" type="line"/>
      <point x="511" y="516" type="line" smooth="yes"/>
      <point x="412" y="516"/>
      <point x="360" y="460"/>
      <point x="324" y="378" type="curve"/>
      <point x="319" y="378" type="line"/>
      <point x="342" y="516" type="line"/>
      <point x="119" y="516" type="line"/>
      <point x="108" y="449" type="line"/>
      <point x="253" y="449" type="line"/>
      <point x="178" y="0" type="line"/>
    </contour>
  </outline>
</glyph>
<glyph name="s" format="2">
  <advance width="600"/>
  <unicode hex="0073"/>
  <anchor x="272.0" y="0.0" name="bottom"/>
  <anchor x="336.0" y="516.0" name="top"/>
  <outline>
    <contour>
      <point x="268" y="-12" type="curve" smooth="yes"/>
      <point x="406" y="-12"/>
      <point x="499" y="54"/>
      <point x="499" y="161" type="curve" smooth="yes"/>
      <point x="499" y="263"/>
      <point x="414" y="279"/>
      <point x="348" y="290" type="curve" smooth="yes"/>
      <point x="275" y="302" type="line" smooth="yes"/>
      <point x="233" y="309"/>
      <point x="195" y="320"/>
      <point x="195" y="370" type="curve" smooth="yes"/>
      <point x="195" y="426"/>
      <point x="242" y="462"/>
      <point x="331" y="462" type="curve" smooth="yes"/>
      <point x="418" y="462"/>
      <point x="460" y="428"/>
      <point x="478" y="401" type="curve"/>
      <point x="533" y="449" type="line"/>
      <point x="494" y="498"/>
      <point x="430" y="528"/>
      <point x="340" y="528" type="curve" smooth="yes"/>
      <point x="218" y="528"/>
      <point x="119" y="473"/>
      <point x="119" y="364" type="curve" smooth="yes"/>
      <point x="119" y="268"/>
      <point x="197" y="243"/>
      <point x="272" y="232" type="curve" smooth="yes"/>
      <point x="347" y="221" type="line" smooth="yes"/>
      <point x="389" y="215"/>
      <point x="422" y="201"/>
      <point x="422" y="153" type="curve" smooth="yes"/>
      <point x="422" y="91"/>
      <point x="366" y="54"/>
      <point x="275" y="54" type="curve" smooth="yes"/>
      <point x="197" y="54"/>
      <point x="146" y="81"/>
      <point x="106" y="131" type="curve"/>
      <point x="48" y="85" type="line"/>
      <point x="93" y="23"/>
      <point x="168" y="-12"/>
    </contour>
  </outline>
</glyph>
<glyph name="u" format="2">
  <advance width="600"/>
  <unicode hex="0075"/>
  <anchor x="261.0" y="0.0" name="bottom"/>
  <anchor x="457.0" y="0.0" name="bottomright"/>
  <anchor x="340.0" y="516.0" name="top"/>
  <outline>
    <contour>
      <point x="379" y="0" type="line"/>
      <point x="457" y="0" type="line"/>
      <point x="543" y="516" type="line"/>
      <point x="465" y="516" type="line"/>
      <point x="417" y="231" type="line" smooth="yes"/>
      <point x="407" y="172"/>
      <point x="369" y="126"/>
      <point x="358" y="113" type="curve" smooth="yes"/>
      <point x="329" y="79"/>
      <point x="294" y="57"/>
      <point x="249" y="57" type="curve" smooth="yes"/>
      <point x="191" y="57"/>
      <point x="163" y="95"/>
      <point x="163" y="156" type="curve" smooth="yes"/>
      <point x="163" y="167"/>
      <point x="164" y="187"/>
      <point x="168" y="211" type="curve" smooth="yes"/>
      <point x="219" y="516" type="line"/>
      <point x="141" y="516" type="line"/>
      <point x="89" y="204" type="line" smooth="yes"/>
      <point x="85" y="181"/>
      <point x="83" y="157"/>
      <point x="83" y="137" type="curve" smooth="yes"/>
      <point x="83" y="43"/>
      <point x="137" y="-12"/>
      <point x="223" y="-12" type="curve" smooth="yes"/>
      <point x="306" y="-12"/>
      <point x="357" y="40"/>
      <point x="395" y="122" type="curve"/>
      <point x="399" y="122" type="line"/>
    </contour>
  </outline>
</glyph>
<glyph name="z" format="2">
  <advance width="600"/>
  <unicode hex="007A"/>
  <anchor x="286.0" y="0.0" name="bottom"/>
  <anchor x="331.0" y="516.0" name="top"/>
  <outline>
    <contour>
      <point x="425" y="-10" type="curve" smooth="yes"/>
      <point x="487" y="-10"/>
      <point x="524" y="32"/>
      <point x="524" y="76" type="curve" smooth="yes"/>
      <point x="524" y="107"/>
      <point x="512" y="146"/>
      <point x="498" y="180" type="curve" smooth="yes"/>
      <point x="482" y="220" type="line"/>
      <point x="425" y="200" type="line"/>
      <point x="456" y="64" type="line"/>
      <point x="445" y="53" type="line"/>
      <point x="190" y="112" type="line"/>
      <point x="548" y="440" type="line"/>
      <point x="559" y="516" type="line"/>
      <point x="480" y="516" type="line"/>
      <point x="470" y="453" type="line"/>
      <point x="465" y="449" type="line"/>
      <point x="445" y="461" type="line" smooth="yes"/>
      <point x="368" y="507"/>
      <point x="313" y="528"/>
      <point x="258" y="528" type="curve" smooth="yes"/>
      <point x="159" y="528"/>
      <point x="102" y="466"/>
      <point x="102" y="353" type="curve" smooth="yes"/>
      <point x="102" y="341" type="line"/>
      <point x="166" y="341" type="line"/>
      <point x="166" y="403"/>
      <point x="177" y="462"/>
      <point x="255" y="462" type="curve" smooth="yes"/>
      <point x="292" y="462"/>
      <point x="338" y="449"/>
      <point x="420" y="407" type="curve"/>
      <point x="62" y="78" type="line"/>
      <point x="51" y="0" type="line"/>
      <point x="130" y="0" type="line"/>
      <point x="140" y="66" type="line"/>
      <point x="145" y="70" type="line"/>
      <point x="324" y="10" type="line" smooth="yes"/>
      <point x="367" y="-4"/>
      <point x="397" y="-10"/>
    </contour>
  </outline>
</glyph>
<glyph name="braceleft" format="2">
  <advance width="600"/>
  <unicode hex="007B"/>
  <outline>
    <contour>
      <point x="427" y="-138" type="line"/>
      <point x="437" y="-77" type="line"/>
      <point x="248" y="-77" type="line"/>
      <point x="261" y="1" type="line" smooth="yes"/>
      <point x="270" y="56"/>
      <point x="292" y="79"/>
      <point x="318" y="107" type="curve" smooth="yes"/>
      <point x="354" y="146"/>
      <point x="383" y="177"/>
      <point x="383" y="222" type="curve" smooth="yes"/>
      <point x="383" y="269"/>
      <point x="351" y="300"/>
      <point x="292" y="307" type="curve"/>
      <point x="292" y="311" type="line"/>
      <point x="375" y="324"/>
      <point x="417" y="366"/>
      <point x="417" y="425" type="curve" smooth="yes"/>
      <point x="417" y="462"/>
      <point x="401" y="490"/>
      <point x="386" y="515" type="curve" smooth="yes"/>
      <point x="373" y="537"/>
      <point x="361" y="556"/>
      <point x="361" y="590" type="curve" smooth="yes"/>
      <point x="361" y="599"/>
      <point x="362" y="610"/>
      <point x="377" y="699" type="curve"/>
      <point x="567" y="699" type="line"/>
      <point x="577" y="760" type="line"/>
      <point x="402" y="760" type="line" smooth="yes"/>
      <point x="349" y="760"/>
      <point x="313" y="725"/>
      <point x="306" y="679" type="curve" smooth="yes"/>
      <point x="294" y="603"/>
      <point x="293" y="592"/>
      <point x="293" y="581" type="curve" smooth="yes"/>
      <point x="293" y="531"/>
      <point x="313" y="506"/>
      <point x="329" y="480" type="curve" smooth="yes"/>
      <point x="343" y="458"/>
      <point x="349" y="442"/>
      <point x="349" y="423" type="curve" smooth="yes"/>
      <point x="349" y="369"/>
      <point x="303" y="341"/>
      <point x="218" y="341" type="curve" smooth="yes"/>
      <point x="121" y="341" type="line"/>
      <point x="111" y="281" type="line"/>
      <point x="208" y="281" type="line" smooth="yes"/>
      <point x="278" y="281"/>
      <point x="314" y="260"/>
      <point x="314" y="215" type="curve" smooth="yes"/>
      <point x="314" y="194"/>
      <point x="306" y="177"/>
      <point x="272" y="142" type="curve" smooth="yes"/>
      <point x="243" y="112"/>
      <point x="205" y="79"/>
      <point x="194" y="7" type="curve" smooth="yes"/>
      <point x="184" y="-59"/>
      <point x="183" y="-66"/>
      <point x="183" y="-74" type="curve" smooth="yes"/>
      <point x="183" y="-110"/>
      <point x="205" y="-138"/>
      <point x="253" y="-138" type="curve" smooth="yes"/>
    </contour>
  </outline>
</glyph>
<glyph name="bar" format="2">
  <advance width="600"/>
  <unicode hex="007C"/>
  <outline>
    <contour>
      <point x="268" y="-138" type="line"/>
      <point x="418" y="760" type="line"/>
      <point x="350" y="760" type="line"/>
      <point x="200" y="-138" type="line"/>
    </contour>
  </outline>
</glyph>
<glyph name="exclamdown" format="2">
  <advance width="600"/>
  <unicode hex="00A1"/>
  <outline>
    <contour>
      <point x="269" y="-182" type="line"/>
      <point x="303" y="21" type="line"/>
      <point x="320" y="283" type="line"/>
      <point x="289" y="283" type="line"/>
      <point x="217" y="21" type="line"/>
      <point x="183" y="-182" type="line"/>
    </contour>
    <contour>
      <point x="323" y="389" type="curve" smooth="yes"/>
      <point x="376" y="389"/>
      <point x="398" y="412"/>
      <point x="404" y="448" type="curve" smooth="yes"/>
      <point x="407" y="466"/>
      <point x="408" y="475"/>
      <point x="408" y="481" type="curve" smooth="yes"/>
      <point x="408" y="506"/>
      <point x="390" y="525"/>
      <point x="343" y="525" type="curve" smooth="yes"/>
      <point x="290" y="525"/>
      <point x="268" y="502"/>
      <point x="262" y="466" type="curve" smooth="yes"/>
      <point x="259" y="448"/>
      <point x="258" y="439"/>
      <point x="258" y="433" type="curve" smooth="yes"/>
      <point x="258" y="408"/>
      <point x="276" y="389"/>
    </contour>
  </outline>
</glyph>
<glyph name="sterling" format="2">
  <advance width="600"/>
  <unicode hex="00A3"/>
  <outline>
    <contour>
      <point x="463" y="-12" type="curve" smooth="yes"/>
      <point x="518" y="-12"/>
      <point x="547" y="24"/>
      <point x="547" y="75" type="curve" smooth="yes"/>
      <point x="547" y="107"/>
      <point x="536" y="148"/>
      <point x="521" y="184" type="curve" smooth="yes"/>
      <point x="505" y="222" type="line"/>
      <point x="443" y="203" type="line"/>
      <point x="475" y="73" type="line"/>
      <point x="464" y="62" type="line"/>
      <point x="138" y="125" type="line"/>
      <point x="140" y="129" type="line"/>
      <point x="210" y="138"/>
      <point x="237" y="203"/>
      <point x="237" y="268" type="curve" smooth="yes"/>
      <point x="237" y="280"/>
      <point x="236" y="295"/>
      <point x="234" y="306" type="curve"/>
      <point x="391" y="306" type="line"/>
      <point x="402" y="374" type="line"/>
      <point x="222" y="374" type="line"/>
      <point x="217" y="398"/>
      <point x="214" y="422"/>
      <point x="214" y="450" type="curve" smooth="yes"/>
      <point x="214" y="570"/>
      <point x="269" y="641"/>
      <point x="368" y="641" type="curve" smooth="yes"/>
      <point x="449" y="641"/>
      <point x="487" y="595"/>
      <point x="503" y="539" type="curve"/>
      <point x="574" y="567" type="line"/>
      <point x="562" y="634"/>
      <point x="499" y="710"/>
      <point x="373" y="710" type="curve" smooth="yes"/>
      <point x="228" y="710"/>
      <point x="131" y="604"/>
      <point x="131" y="458" type="curve" smooth="yes"/>
      <point x="131" y="428"/>
      <point x="135" y="401"/>
      <point x="141" y="374" type="curve"/>
      <point x="63" y="374" type="line"/>
      <point x="52" y="306" type="line"/>
      <point x="153" y="306" type="line"/>
      <point x="155" y="294"/>
      <point x="156" y="280"/>
      <point x="156" y="265" type="curve" smooth="yes"/>
      <point x="156" y="159"/>
      <point x="104" y="113"/>
      <point x="30" y="79" type="curve"/>
      <point x="18" y="0" type="line"/>
      <point x="101" y="0" type="line"/>
      <point x="111" y="65" type="line"/>
      <point x="338" y="12" type="line" smooth="yes"/>
      <point x="384" y="1"/>
      <point x="430" y="-12"/>
    </contour>
  </outline>
</glyph>
<glyph name="yen" format="2">
  <advance width="600"/>
  <unicode hex="00A5"/>
  <outline>
    <contour>
      <point x="33" y="0" type="line"/>
      <point x="483" y="0" type="line"/>
      <point x="494" y="68" type="line"/>
      <point x="307" y="68" type="line"/>
      <point x="339" y="256" type="line"/>
      <point x="525" y="256" type="line"/>
      <point x="536" y="324" type="line"/>
      <point x="394" y="324" type="line"/>
      <point x="651" y="698" type="line"/>
      <point x="556" y="698" type="line"/>
      <point x="309" y="324" type="line"/>
      <point x="305" y="324" type="line"/>
      <point x="184" y="698" type="line"/>
      <point x="97" y="698" type="line"/>
      <point x="228" y="324" type="line"/>
      <point x="86" y="324" type="line"/>
      <point x="75" y="256" type="line"/>
      <point x="261" y="256" type="line"/>
      <point x="229" y="68" type="line"/>
      <point x="44" y="68" type="line"/>
    </contour>
  </outline>
</glyph>
<glyph name="brokenbar" format="2">
  <advance width="600"/>
  <unicode hex="00A6"/>
  <outline>
    <contour>
      <point x="358" y="400" type="line"/>
      <point x="418" y="760" type="line"/>
      <point x="350" y="760" type="line"/>
      <point x="290" y="400" type="line"/>
    </contour>
    <contour>
      <point x="268" y="-138" type="line"/>
      <point x="328" y="222" type="line"/>
      <point x="260" y="222" type="line"/>
      <point x="200" y="-138" type="line"/>
    </contour>
  </outline>
</glyph>
<glyph name="dieresis" format="2">
  <advance width="600"/>
  <unicode hex="00A8"/>
  <anchor x="300.0" y="516.0" name="_top"/>
  <outline>
    <contour>
      <point x="226" y="619" type="curve" smooth="yes"/>
      <point x="266" y="619"/>
      <point x="279" y="636"/>
      <point x="285" y="662" type="curve" smooth="yes"/>
      <point x="287" y="671"/>
      <point x="289" y="680"/>
      <point x="289" y="687" type="curve" smooth="yes"/>
      <point x="289" y="706"/>
      <point x="276" y="723"/>
      <point x="237" y="723" type="curve" smooth="yes"/>
      <point x="197" y="723"/>
      <point x="184" y="706"/>
      <point x="178" y="680" type="curve" smooth="yes"/>
      <point x="176" y="671"/>
      <point x="174" y="662"/>
      <point x="174" y="655" type="curve" smooth="yes"/>
      <point x="174" y="636"/>
      <point x="187" y="619"/>
    </contour>
    <contour>
      <point x="412" y="619" type="curve" smooth="yes"/>
      <point x="452" y="619"/>
      <point x="465" y="636"/>
      <point x="471" y="662" type="curve" smooth="yes"/>
      <point x="473" y="671"/>
      <point x="475" y="680"/>
      <point x="475" y="687" type="curve" smooth="yes"/>
      <point x="475" y="706"/>
      <point x="462" y="723"/>
      <point x="423" y="723" type="curve" smooth="yes"/>
      <point x="383" y="723"/>
      <point x="370" y="706"/>
      <point x="364" y="680" type="curve" smooth="yes"/>
      <point x="362" y="671"/>
      <point x="360" y="662"/>
      <point x="360" y="655" type="curve" smooth="yes"/>
      <point x="360" y="636"/>
      <point x="373" y="619"/>
    </contour>
  </outline>
</glyph>
<glyph name="copyright" format="2">
  <advance width="600"/>
  <unicode hex="00A9"/>
  <outline>
    <contour>
      <point x="271" y="18" type="curve" smooth="yes"/>
      <point x="471" y="18"/>
      <point x="616" y="174"/>
      <point x="616" y="398" type="curve" smooth="yes"/>
      <point x="616" y="573"/>
      <point x="508" y="680"/>
      <point x="356" y="680" type="curve" smooth="yes"/>
      <point x="156" y="680"/>
      <point x="11" y="524"/>
      <point x="11" y="300" type="curve" smooth="yes"/>
      <point x="11" y="125"/>
      <point x="119" y="18"/>
    </contour>
    <contour>
      <point x="276" y="72" type="curve" smooth="yes"/>
      <point x="129" y="72"/>
      <point x="71" y="182"/>
      <point x="71" y="300" type="curve" smooth="yes"/>
      <point x="71" y="315"/>
      <point x="72" y="334"/>
      <point x="82" y="389" type="curve" smooth="yes"/>
      <point x="107" y="530"/>
      <point x="213" y="626"/>
      <point x="351" y="626" type="curve" smooth="yes"/>
      <point x="498" y="626"/>
      <point x="556" y="516"/>
      <point x="556" y="398" type="curve" smooth="yes"/>
      <point x="556" y="383"/>
      <point x="555" y="364"/>
      <point x="545" y="309" type="curve" smooth="yes"/>
      <point x="520" y="168"/>
      <point x="414" y="72"/>
    </contour>
    <contour>
      <point x="290" y="172" type="curve" smooth="yes"/>
      <point x="355" y="172"/>
      <point x="403" y="205"/>
      <point x="433" y="252" type="curve"/>
      <point x="388" y="283" type="line"/>
      <point x="364" y="250"/>
      <point x="335" y="228"/>
      <point x="294" y="228" type="curve" smooth="yes"/>
      <point x="250" y="228"/>
      <point x="230" y="253"/>
      <point x="230" y="295" type="curve" smooth="yes"/>
      <point x="230" y="304"/>
      <point x="231" y="312"/>
      <point x="232" y="322" type="curve" smooth="yes"/>
      <point x="241" y="379" type="line" smooth="yes"/>
      <point x="250" y="434"/>
      <point x="278" y="472"/>
      <point x="336" y="472" type="curve" smooth="yes"/>
      <point x="378" y="472"/>
      <point x="395" y="453"/>
      <point x="403" y="421" type="curve"/>
      <point x="461" y="445" type="line"/>
      <point x="446" y="495"/>
      <point x="406" y="528"/>
      <point x="343" y="528" type="curve" smooth="yes"/>
      <point x="235" y="528"/>
      <point x="162" y="431"/>
      <point x="162" y="317" type="curve" smooth="yes"/>
      <point x="162" y="227"/>
      <point x="207" y="172"/>
    </contour>
  </outline>
</glyph>
<glyph name="ordfeminine" format="2">
  <advance width="600"/>
  <unicode hex="00AA"/>
  <outline>
    <contour>
      <point x="443" y="355" type="line"/>
      <point x="479" y="577" type="line" smooth="yes"/>
      <point x="481" y="590"/>
      <point x="482" y="604"/>
      <point x="482" y="613" type="curve" smooth="yes"/>
      <point x="482" y="673"/>
      <point x="433" y="710"/>
      <point x="355" y="710" type="curve" smooth="yes"/>
      <point x="285" y="710"/>
      <point x="237" y="674"/>
      <point x="213" y="641" type="curve"/>
      <point x="251" y="606" type="line"/>
      <point x="270" y="635"/>
      <point x="305" y="658"/>
      <point x="348" y="658" type="curve" smooth="yes"/>
      <point x="393" y="658"/>
      <point x="419" y="641"/>
      <point x="419" y="605" type="curve" smooth="yes"/>
      <point x="419" y="598"/>
      <point x="419" y="589"/>
      <point x="417" y="580" type="curve" smooth="yes"/>
      <point x="412" y="553" type="line"/>
      <point x="338" y="553" type="line" smooth="yes"/>
      <point x="229" y="553"/>
      <point x="172" y="515"/>
      <point x="172" y="436" type="curve" smooth="yes"/>
      <point x="172" y="384"/>
      <point x="207" y="349"/>
      <point x="278" y="349" type="curve" smooth="yes"/>
      <point x="329" y="349"/>
      <point x="363" y="381"/>
      <point x="380" y="412" type="curve"/>
      <point x="388" y="412" type="line"/>
      <point x="379" y="355" type="line"/>
    </contour>
    <contour>
      <point x="405" y="506" type="line"/>
      <point x="398" y="465" type="line" smooth="yes"/>
      <point x="391" y="425"/>
      <point x="342" y="400"/>
      <point x="291" y="400" type="curve" smooth="yes"/>
      <point x="255" y="400"/>
      <point x="235" y="412"/>
      <point x="235" y="437" type="curve" smooth="yes"/>
      <point x="235" y="441"/>
      <point x="236" y="450"/>
      <point x="239" y="463" type="curve" smooth="yes"/>
      <point x="246" y="494"/>
      <point x="276" y="506"/>
      <point x="331" y="506" type="curve" smooth="yes"/>
    </contour>
  </outline>
</glyph>
<glyph name="logicalnot" format="2">
  <advance width="600"/>
  <unicode hex="00AC"/>
  <outline>
    <contour>
      <point x="495" y="78" type="line"/>
      <point x="538" y="338" type="line"/>
      <point x="78" y="338" type="line"/>
      <point x="67" y="272" type="line"/>
      <point x="459" y="272" type="line"/>
      <point x="427" y="78" type="line"/>
    </contour>
  </outline>
</glyph>
<glyph name="macron" format="2">
  <advance width="600"/>
  <unicode hex="00AF"/>
  <anchor x="300.0" y="516.0" name="_top"/>
  <outline>
    <contour>
      <point x="180" y="638" type="line"/>
      <point x="457" y="638" type="line"/>
      <point x="468" y="705" type="line"/>
      <point x="191" y="705" type="line"/>
    </contour>
  </outline>
</glyph>
<glyph name="plusminus" format="2">
  <advance width="600"/>
  <unicode hex="00B1"/>
  <outline>
    <contour>
      <point x="319" y="151" type="line"/>
      <point x="352" y="351" type="line"/>
      <point x="550" y="351" type="line"/>
      <point x="560" y="417" type="line"/>
      <point x="362" y="417" type="line"/>
      <point x="395" y="617" type="line"/>
      <point x="321" y="617" type="line"/>
      <point x="288" y="417" type="line"/>
      <point x="90" y="417" type="line"/>
      <point x="79" y="351" type="line"/>
      <point x="278" y="351" type="line"/>
      <point x="245" y="151" type="line"/>
    </contour>
    <contour>
      <point x="494" y="0" type="line"/>
      <point x="505" y="66" type="line"/>
      <point x="32" y="66" type="line"/>
      <point x="21" y="0" type="line"/>
    </contour>
  </outline>
</glyph>
<glyph name="acute" format="2">
  <advance width="600"/>
  <unicode hex="00B4"/>
  <anchor x="300.0" y="516.0" name="_top"/>
  <outline>
    <contour>
      <point x="449" y="740" type="line"/>
      <point x="381" y="779" type="line"/>
      <point x="273" y="613" type="line"/>
      <point x="320" y="585" type="line"/>
    </contour>
  </outline>
</glyph>
<glyph name="mu" format="2">
  <advance width="600"/>
  <unicode hex="00B5"/>
  <outline>
    <contour>
      <point x="100" y="-200" type="line"/>
      <point x="126" y="-44" type="line"/>
      <point x="136" y="55" type="line"/>
      <point x="140" y="55" type="line"/>
      <point x="149" y="11"/>
      <point x="183" y="-12"/>
      <point x="231" y="-12" type="curve" smooth="yes"/>
      <point x="320" y="-12"/>
      <point x="368" y="59"/>
      <point x="396" y="122" type="curve"/>
      <point x="400" y="122" type="line"/>
      <point x="380" y="0" type="line"/>
      <point x="458" y="0" type="line"/>
      <point x="543" y="516" type="line"/>
      <point x="465" y="516" type="line"/>
      <point x="418" y="231" type="line" smooth="yes"/>
      <point x="408" y="172"/>
      <point x="370" y="126"/>
      <point x="359" y="113" type="curve" smooth="yes"/>
      <point x="330" y="79"/>
      <point x="295" y="57"/>
      <point x="250" y="57" type="curve" smooth="yes"/>
      <point x="192" y="57"/>
      <point x="163" y="95"/>
      <point x="163" y="156" type="curve" smooth="yes"/>
      <point x="163" y="167"/>
      <point x="164" y="185"/>
      <point x="168" y="208" type="curve" smooth="yes"/>
      <point x="219" y="516" type="line"/>
      <point x="141" y="516" type="line"/>
      <point x="23" y="-200" type="line"/>
    </contour>
  </outline>
</glyph>
<glyph name="paragraph" format="2">
  <advance width="600"/>
  <unicode hex="00B6"/>
  <outline>
    <contour>
      <point x="204" y="-149" type="line"/>
      <point x="274" y="-149" type="line"/>
      <point x="405" y="636" type="line"/>
      <point x="495" y="636" type="line"/>
      <point x="364" y="-149" type="line"/>
      <point x="434" y="-149" type="line"/>
      <point x="576" y="698" type="line"/>
      <point x="345" y="698" type="line" smooth="yes"/>
      <point x="209" y="698"/>
      <point x="81" y="601"/>
      <point x="81" y="444" type="curve" smooth="yes"/>
      <point x="81" y="321"/>
      <point x="160" y="246"/>
      <point x="270" y="246" type="curve"/>
    </contour>
  </outline>
</glyph>
<glyph name="periodcentered" format="2">
  <advance width="600"/>
  <unicode hex="00B7"/>
  <outline>
    <contour>
      <point x="297" y="236" type="curve" smooth="yes"/>
      <point x="348" y="236"/>
      <point x="372" y="259"/>
      <point x="378" y="295" type="curve" smooth="yes"/>
      <point x="380" y="307"/>
      <point x="382" y="319"/>
      <point x="382" y="327" type="curve" smooth="yes"/>
      <point x="382" y="352"/>
      <point x="364" y="372"/>
      <point x="317" y="372" type="curve" smooth="yes"/>
      <point x="266" y="372"/>
      <point x="242" y="349"/>
      <point x="236" y="313" type="curve" smooth="yes"/>
      <point x="234" y="301"/>
      <point x="232" y="289"/>
      <point x="232" y="281" type="curve" smooth="yes"/>
      <point x="232" y="256"/>
      <point x="250" y="236"/>
    </contour>
  </outline>
</glyph>
<glyph name="onesuperior" format="2">
  <advance width="600"/>
  <unicode hex="00B9"/>
  <outline>
    <contour>
      <point x="460" y="329" type="line"/>
      <point x="468" y="378" type="line"/>
      <point x="374" y="378" type="line"/>
      <point x="428" y="698" type="line"/>
      <point x="336" y="698" type="line"/>
      <point x="229" y="614" type="line"/>
      <point x="260" y="577" type="line"/>
      <point x="354" y="651" type="line"/>
      <point x="360" y="651" type="line"/>
      <point x="314" y="378" type="line"/>
      <point x="208" y="378" type="line"/>
      <point x="200" y="329" type="line"/>
    </contour>
  </outline>
</glyph>
<glyph name="AE" format="2">
  <advance width="600"/>
  <unicode hex="00C6"/>
  <anchor x="419.0" y="698.0" name="top"/>
  <outline>
    <contour>
      <point x="266" y="0" type="line"/>
      <point x="512" y="0" type="line"/>
      <point x="523" y="69" type="line"/>
      <point x="356" y="69" type="line"/>
      <point x="397" y="319" type="line"/>
      <point x="553" y="319" type="line"/>
      <point x="564" y="388" type="line"/>
      <point x="408" y="388" type="line"/>
      <point x="448" y="629" type="line"/>
      <point x="616" y="629" type="line"/>
      <point x="627" y="698" type="line"/>
      <point x="297" y="698" type="line"/>
      <point x="-23" y="0" type="line"/>
      <point x="62" y="0" type="line"/>
      <point x="151" y="201" type="line"/>
      <point x="299" y="201" type="line"/>
    </contour>
    <contour>
      <point x="372" y="638" type="line"/>
      <point x="311" y="270" type="line"/>
      <point x="181" y="270" type="line"/>
      <point x="344" y="638" type="line"/>
    </contour>
  </outline>
</glyph>
<glyph name="Thorn" format="2">
  <advance width="600"/>
  <unicode hex="00DE"/>
  <outline>
    <contour>
      <point x="130" y="0" type="line"/>
      <point x="156" y="154" type="line"/>
      <point x="331" y="154" type="line" smooth="yes"/>
      <point x="477" y="154"/>
      <point x="560" y="243"/>
      <point x="560" y="391" type="curve" smooth="yes"/>
      <point x="560" y="488"/>
      <point x="506" y="555"/>
      <point x="389" y="555" type="curve" smooth="yes"/>
      <point x="223" y="555" type="line"/>
      <point x="247" y="698" type="line"/>
      <point x="165" y="698" type="line"/>
      <point x="48" y="0" type="line"/>
    </contour>
    <contour>
      <point x="211" y="483" type="line"/>
      <point x="379" y="483" type="line" smooth="yes"/>
      <point x="440" y="483"/>
      <point x="476" y="455"/>
      <point x="476" y="400" type="curve" smooth="yes"/>
      <point x="476" y="387"/>
      <point x="475" y="373"/>
      <point x="473" y="361" type="curve" smooth="yes"/>
      <point x="467" y="325" type="line" smooth="yes"/>
      <point x="457" y="265"/>
      <point x="414" y="226"/>
      <point x="339" y="226" type="curve" smooth="yes"/>
      <point x="168" y="226" type="line"/>
    </contour>
  </outline>
</glyph>
<glyph name="thorn" format="2">
  <advance width="600"/>
  <unicode hex="00FE"/>
  <outline>
    <contour>
      <point x="19" y="-200" type="line"/>
      <point x="97" y="-200" type="line"/>
      <point x="146" y="90" type="line"/>
      <point x="149" y="90" type="line"/>
      <point x="171" y="23"/>
      <point x="224" y="-12"/>
      <point x="300" y="-12" type="curve" smooth="yes"/>
      <point x="482" y="-12"/>
      <point x="544" y="190"/>
      <point x="544" y="328" type="curve" smooth="yes"/>
      <point x="544" y="460"/>
      <point x="487" y="528"/>
      <point x="383" y="528" type="curve" smooth="yes"/>
      <point x="292" y="528"/>
      <point x="240" y="475"/>
      <point x="200" y="394" type="curve"/>
      <point x="197" y="394" type="line"/>
      <point x="255" y="740" type="line"/>
      <point x="177" y="740" type="line"/>
    </contour>
    <contour>
      <point x="277" y="57" type="curve" smooth="yes"/>
      <point x="200" y="57"/>
      <point x="147" y="98"/>
      <point x="159" y="170" type="curve" smooth="yes"/>
      <point x="178" y="284" type="line" smooth="yes"/>
      <point x="186" y="332"/>
      <point x="209" y="373"/>
      <point x="235" y="402" type="curve" smooth="yes"/>
      <point x="271" y="442"/>
      <point x="313" y="459"/>
      <point x="356" y="459" type="curve" smooth="yes"/>
      <point x="428" y="459"/>
      <point x="465" y="413"/>
      <point x="465" y="336" type="curve" smooth="yes"/>
      <point x="465" y="323"/>
      <point x="464" y="309"/>
      <point x="461" y="291" type="curve" smooth="yes"/>
      <point x="449" y="219" type="line" smooth="yes"/>
      <point x="433" y="123"/>
      <point x="376" y="57"/>
    </contour>
  </outline>
</glyph>
<glyph name="Aogonek" format="2">
  <advance width="600"/>
  <unicode hex="0104"/>
  <anchor x="264.0" y="0.0" name="bottom"/>
  <anchor x="374.0" y="698.0" name="top"/>
  <outline>
    <contour>
      <point x="-9" y="0" type="line"/>
      <point x="79" y="0" type="line"/>
      <point x="171" y="199" type="line"/>
      <point x="417" y="199" type="line"/>
      <point x="442" y="0" type="line"/>
      <point x="465" y="0" type="line"/>
      <point x="465" y="-5" type="line"/>
      <point x="390" y="-40"/>
      <point x="339" y="-77"/>
      <point x="339" y="-132" type="curve" smooth="yes"/>
      <point x="339" y="-186"/>
      <point x="386" y="-207"/>
      <point x="437" y="-207" type="curve" smooth="yes"/>
      <point x="484" y="-207"/>
      <point x="517" y="-189"/>
      <point x="535" y="-170" type="curve"/>
      <point x="497" y="-127" type="line"/>
      <point x="478" y="-144"/>
      <point x="458" y="-153"/>
      <point x="441" y="-153" type="curve" smooth="yes"/>
      <point x="423" y="-153"/>
      <point x="407" y="-144"/>
      <point x="407" y="-122" type="curve" smooth="yes"/>
      <point x="407" y="-101"/>
      <point x="421" y="-70"/>
      <point x="528" y="0" type="curve"/>
      <point x="431" y="698" type="line"/>
      <point x="321" y="698" type="line"/>
    </contour>
    <contour>
      <point x="409" y="272" type="line"/>
      <point x="202" y="272" type="line"/>
      <point x="357" y="614" type="line"/>
      <point x="366" y="614" type="line"/>
    </contour>
  </outline>
</glyph>
<glyph name="aogonek" format="2">
  <advance width="600"/>
  <unicode hex="0105"/>
  <anchor x="240.0" y="0.0" name="bottom"/>
  <anchor x="316.0" y="516.0" name="top"/>
  <outline>
    <contour>
      <point x="433" y="-207" type="curve" smooth="yes"/>
      <point x="480" y="-207"/>
      <point x="513" y="-189"/>
      <point x="531" y="-170" type="curve"/>
      <point x="493" y="-127" type="line"/>
      <point x="474" y="-144"/>
      <point x="454" y="-153"/>
      <point x="437" y="-153" type="curve" smooth="yes"/>
      <point x="419" y="-153"/>
      <point x="403" y="-144"/>
      <point x="403" y="-122" type="curve" smooth="yes"/>
      <point x="403" y="-101"/>
      <point x="417" y="-70"/>
      <point x="524" y="0" type="curve"/>
      <point x="536" y="70" type="line"/>
      <point x="465" y="70" type="line"/>
      <point x="539" y="516" type="line"/>
      <point x="461" y="516" type="line"/>
      <point x="446" y="426" type="line"/>
      <point x="443" y="426" type="line"/>
      <point x="421" y="493"/>
      <point x="370" y="528"/>
      <point x="296" y="528" type="curve" smooth="yes"/>
      <point x="117" y="528"/>
      <point x="56" y="326"/>
      <point x="56" y="188" type="curve" smooth="yes"/>
      <point x="56" y="56"/>
      <point x="112" y="-12"/>
      <point x="213" y="-12" type="curve" smooth="yes"/>
      <point x="302" y="-12"/>
      <point x="352" y="41"/>
      <point x="392" y="122" type="curve"/>
      <point x="395" y="122" type="line"/>
      <point x="389" y="85" type="line" smooth="yes"/>
      <point x="381" y="39"/>
      <point x="401" y="2"/>
      <point x="461" y="0" type="curve"/>
      <point x="461" y="-5" type="line"/>
      <point x="386" y="-40"/>
      <point x="335" y="-77"/>
      <point x="335" y="-132" type="curve" smooth="yes"/>
      <point x="335" y="-186"/>
      <point x="382" y="-207"/>
    </contour>
    <contour>
      <point x="240" y="57" type="curve" smooth="yes"/>
      <point x="171" y="57"/>
      <point x="135" y="103"/>
      <point x="135" y="180" type="curve" smooth="yes"/>
      <point x="135" y="193"/>
      <point x="136" y="207"/>
      <point x="139" y="225" type="curve" smooth="yes"/>
      <point x="151" y="297" type="line" smooth="yes"/>
      <point x="167" y="393"/>
      <point x="222" y="459"/>
      <point x="318" y="459" type="curve" smooth="yes"/>
      <point x="394" y="459"/>
      <point x="445" y="418"/>
      <point x="433" y="346" type="curve" smooth="yes"/>
      <point x="414" y="232" type="line" smooth="yes"/>
      <point x="406" y="185"/>
      <point x="385" y="144"/>
      <point x="359" y="114" type="curve" smooth="yes"/>
      <point x="324" y="74"/>
      <point x="282" y="57"/>
    </contour>
  </outline>
</glyph>
<glyph name="Dcroat" format="2">
  <advance width="600"/>
  <unicode hex="0110"/>
  <outline>
    <contour>
      <point x="55" y="0" type="line"/>
      <point x="248" y="0" type="line" smooth="yes"/>
      <point x="443" y="0"/>
      <point x="565" y="148"/>
      <point x="565" y="473" type="curve" smooth="yes"/>
      <point x="565" y="602"/>
      <point x="489" y="698"/>
      <point x="343" y="698" type="curve" smooth="yes"/>
      <point x="172" y="698" type="line"/>
      <point x="122" y="399" type="line"/>
      <point x="41" y="399" type="line"/>
      <point x="31" y="337" type="line"/>
      <point x="111" y="337" type="line"/>
    </contour>
    <contour>
      <point x="149" y="72" type="line"/>
      <point x="194" y="337" type="line"/>
      <point x="333" y="337" type="line"/>
      <point x="343" y="399" type="line"/>
      <point x="204" y="399" type="line"/>
      <point x="242" y="626" type="line"/>
      <point x="333" y="626" type="line" smooth="yes"/>
      <point x="431" y="626"/>
      <point x="483" y="572"/>
      <point x="483" y="471" type="curve" smooth="yes"/>
      <point x="483" y="443"/>
      <point x="480" y="409"/>
      <point x="476" y="385" type="curve" smooth="yes"/>
      <point x="460" y="289" type="line" smooth="yes"/>
      <point x="436" y="146"/>
      <point x="366" y="72"/>
      <point x="255" y="72" type="curve" smooth="yes"/>
    </contour>
  </outline>
</glyph>
<glyph name="dcroat" format="2">
  <advance width="600"/>
  <unicode hex="0111"/>
  <outline>
    <contour>
      <point x="383" y="0" type="line"/>
      <point x="461" y="0" type="line"/>
      <point x="563" y="609" type="line"/>
      <point x="627" y="609" type="line"/>
      <point x="637" y="669" type="line"/>
      <point x="573" y="669" type="line"/>
      <point x="585" y="740" type="line"/>
      <point x="507" y="740" type="line"/>
      <point x="495" y="669" type="line"/>
      <point x="342" y="669" type="line"/>
      <point x="332" y="609" type="line"/>
      <point x="485" y="609" type="line"/>
      <point x="454" y="426" type="line"/>
      <point x="451" y="426" type="line"/>
      <point x="429" y="493"/>
      <point x="376" y="528"/>
      <point x="300" y="528" type="curve" smooth="yes"/>
      <point x="118" y="528"/>
      <point x="56" y="326"/>
      <point x="56" y="188" type="curve" smooth="yes"/>
      <point x="56" y="56"/>
      <point x="113" y="-12"/>
      <point x="217" y="-12" type="curve" smooth="yes"/>
      <point x="308" y="-12"/>
      <point x="360" y="41"/>
      <point x="400" y="122" type="curve"/>
      <point x="403" y="122" type="line"/>
    </contour>
    <contour>
      <point x="244" y="57" type="curve" smooth="yes"/>
      <point x="172" y="57"/>
      <point x="135" y="103"/>
      <point x="135" y="180" type="curve" smooth="yes"/>
      <point x="135" y="193"/>
      <point x="136" y="207"/>
      <point x="139" y="225" type="curve" smooth="yes"/>
      <point x="151" y="297" type="line" smooth="yes"/>
      <point x="167" y="393"/>
      <point x="224" y="459"/>
      <point x="323" y="459" type="curve" smooth="yes"/>
      <point x="400" y="459"/>
      <point x="453" y="418"/>
      <point x="441" y="346" type="curve" smooth="yes"/>
      <point x="422" y="232" type="line" smooth="yes"/>
      <point x="414" y="184"/>
      <point x="391" y="143"/>
      <point x="365" y="114" type="curve" smooth="yes"/>
      <point x="329" y="74"/>
      <point x="287" y="57"/>
    </contour>
  </outline>
</glyph>
<glyph name="Eogonek" format="2">
  <advance width="600"/>
  <unicode hex="0118"/>
  <anchor x="279.0" y="0.0" name="bottom"/>
  <anchor x="379.0" y="698.0" name="top"/>
  <outline>
    <contour>
      <point x="47" y="0" type="line"/>
      <point x="414" y="0" type="line"/>
      <point x="415" y="-5" type="line"/>
      <point x="338" y="-39"/>
      <point x="288" y="-77"/>
      <point x="288" y="-132" type="curve" smooth="yes"/>
      <point x="288" y="-186"/>
      <point x="335" y="-207"/>
      <point x="386" y="-207" type="curve" smooth="yes"/>
      <point x="433" y="-207"/>
      <point x="466" y="-189"/>
      <point x="484" y="-170" type="curve"/>
      <point x="446" y="-127" type="line"/>
      <point x="427" y="-144"/>
      <point x="407" y="-153"/>
      <point x="390" y="-153" type="curve" smooth="yes"/>
      <point x="372" y="-153"/>
      <point x="356" y="-144"/>
      <point x="356" y="-122" type="curve" smooth="yes"/>
      <point x="356" y="-101"/>
      <point x="370" y="-70"/>
      <point x="477" y="0" type="curve"/>
      <point x="489" y="72" type="line"/>
      <point x="141" y="72" type="line"/>
      <point x="182" y="318" type="line"/>
      <point x="517" y="318" type="line"/>
      <point x="529" y="390" type="line"/>
      <point x="194" y="390" type="line"/>
      <point x="234" y="626" type="line"/>
      <point x="580" y="626" type="line"/>
      <point x="592" y="698" type="line"/>
      <point x="164" y="698" type="line"/>
    </contour>
  </outline>
</glyph>
<glyph name="eogonek" format="2">
  <advance width="600"/>
  <unicode hex="0119"/>
  <anchor x="281.0" y="0.0" name="bottom"/>
  <anchor x="354.0" y="516.0" name="top"/>
  <outline>
    <contour>
      <point x="319" y="-207" type="curve" smooth="yes"/>
      <point x="366" y="-207"/>
      <point x="399" y="-189"/>
      <point x="417" y="-170" type="curve"/>
      <point x="379" y="-127" type="line"/>
      <point x="360" y="-144"/>
      <point x="341" y="-153"/>
      <point x="325" y="-153" type="curve" smooth="yes"/>
      <point x="306" y="-153"/>
      <point x="289" y="-143"/>
      <point x="289" y="-119" type="curve" smooth="yes"/>
      <point x="289" y="-85"/>
      <point x="311" y="-45"/>
      <point x="410" y="24" type="curve" smooth="yes"/>
      <point x="450" y="52"/>
      <point x="484" y="85"/>
      <point x="514" y="135" type="curve"/>
      <point x="459" y="169" type="line"/>
      <point x="401" y="87"/>
      <point x="358" y="55"/>
      <point x="284" y="55" type="curve" smooth="yes"/>
      <point x="176" y="55"/>
      <point x="155" y="122"/>
      <point x="155" y="194" type="curve" smooth="yes"/>
      <point x="155" y="196"/>
      <point x="155" y="207"/>
      <point x="156" y="217" type="curve"/>
      <point x="485" y="226"/>
      <point x="532" y="316"/>
      <point x="532" y="389" type="curve" smooth="yes"/>
      <point x="532" y="479"/>
      <point x="458" y="528"/>
      <point x="357" y="528" type="curve" smooth="yes"/>
      <point x="191" y="528"/>
      <point x="73" y="396"/>
      <point x="73" y="209" type="curve" smooth="yes"/>
      <point x="73" y="61"/>
      <point x="147" y="-12"/>
      <point x="277" y="-12" type="curve" smooth="yes"/>
      <point x="293" y="-12"/>
      <point x="309" y="-11"/>
      <point x="323" y="-9" type="curve"/>
      <point x="324" y="-13" type="line"/>
      <point x="261" y="-43"/>
      <point x="221" y="-80"/>
      <point x="221" y="-132" type="curve" smooth="yes"/>
      <point x="221" y="-186"/>
      <point x="268" y="-207"/>
    </contour>
    <contour>
      <point x="350" y="463" type="curve" smooth="yes"/>
      <point x="425" y="463"/>
      <point x="452" y="428"/>
      <point x="452" y="386" type="curve" smooth="yes"/>
      <point x="452" y="336"/>
      <point x="414" y="279"/>
      <point x="162" y="271" type="curve"/>
      <point x="163" y="281" type="line" smooth="yes"/>
      <point x="178" y="398"/>
      <point x="246" y="463"/>
    </contour>
  </outline>
</glyph>
<glyph name="Hbar" format="2">
  <advance width="600"/>
  <unicode hex="0126"/>
  <outline>
    <contour>
      <point x="393" y="0" type="line"/>
      <point x="475" y="0" type="line"/>
      <point x="562" y="518" type="line"/>
      <point x="632" y="518" type="line"/>
      <point x="642" y="581" type="line"/>
      <point x="572" y="581" type="line"/>
      <point x="592" y="698" type="line"/>
      <point x="510" y="698" type="line"/>
      <point x="491" y="581" type="line"/>
      <point x="218" y="581" type="line"/>
      <point x="238" y="698" type="line"/>
      <point x="156" y="698" type="line"/>
      <point x="137" y="581" type="line"/>
      <point x="67" y="581" type="line"/>
      <point x="57" y="518" type="line"/>
      <point x="126" y="518" type="line"/>
      <point x="39" y="0" type="line"/>
      <point x="121" y="0" type="line"/>
      <point x="174" y="318" type="line"/>
      <point x="446" y="318" type="line"/>
    </contour>
    <contour>
      <point x="185" y="390" type="line"/>
      <point x="208" y="518" type="line"/>
      <point x="480" y="518" type="line"/>
      <point x="458" y="390" type="line"/>
    </contour>
  </outline>
</glyph>
<glyph name="Iogonek" format="2">
  <advance width="600"/>
  <unicode hex="012E"/>
  <anchor x="261.0" y="0.0" name="bottom"/>
  <anchor x="372.0" y="698.0" name="top"/>
  <outline>
    <contour>
      <point x="41" y="0" type="line"/>
      <point x="410" y="0" type="line"/>
      <point x="411" y="-5" type="line"/>
      <point x="334" y="-39"/>
      <point x="284" y="-77"/>
      <point x="284" y="-132" type="curve" smooth="yes"/>
      <point x="284" y="-186"/>
      <point x="331" y="-207"/>
      <point x="382" y="-207" type="curve" smooth="yes"/>
      <point x="429" y="-207"/>
      <point x="462" y="-189"/>
      <point x="480" y="-170" type="curve"/>
      <point x="442" y="-127" type="line"/>
      <point x="423" y="-144"/>
      <point x="403" y="-153"/>
      <point x="386" y="-153" type="curve" smooth="yes"/>
      <point x="368" y="-153"/>
      <point x="352" y="-144"/>
      <point x="352" y="-122" type="curve" smooth="yes"/>
      <point x="352" y="-101"/>
      <point x="366" y="-70"/>
      <point x="473" y="0" type="curve"/>
      <point x="484" y="66" type="line"/>
      <point x="309" y="66" type="line"/>
      <point x="404" y="632" type="line"/>
      <point x="579" y="632" type="line"/>
      <point x="590" y="698" type="line"/>
      <point x="158" y="698" type="line"/>
      <point x="147" y="632" type="line"/>
      <point x="322" y="632" type="line"/>
      <point x="227" y="66" type="line"/>
      <point x="52" y="66" type="line"/>
    </contour>
  </outline>
</glyph>
<glyph name="iogonek" format="2">
  <advance width="600"/>
  <unicode hex="012F"/>
  <anchor x="264.0" y="0.0" name="bottom"/>
  <outline>
    <contour>
      <point x="264" y="-207" type="curve" smooth="yes"/>
      <point x="311" y="-207"/>
      <point x="344" y="-189"/>
      <point x="362" y="-170" type="curve"/>
      <point x="324" y="-127" type="line"/>
      <point x="305" y="-144"/>
      <point x="285" y="-153"/>
      <point x="268" y="-153" type="curve" smooth="yes"/>
      <point x="250" y="-153"/>
      <point x="234" y="-144"/>
      <point x="234" y="-122" type="curve" smooth="yes"/>
      <point x="234" y="-98"/>
      <point x="252" y="-68"/>
      <point x="354" y="21" type="curve" smooth="yes"/>
      <point x="539" y="183" type="line"/>
      <point x="492" y="227" type="line"/>
      <point x="295" y="57" type="line"/>
      <point x="272" y="66" type="line"/>
      <point x="359" y="516" type="line"/>
      <point x="93" y="516" type="line"/>
      <point x="82" y="449" type="line"/>
      <point x="268" y="449" type="line"/>
      <point x="200" y="97" type="line" smooth="yes"/>
      <point x="198" y="85"/>
      <point x="195" y="70"/>
      <point x="195" y="57" type="curve" smooth="yes"/>
      <point x="195" y="24"/>
      <point x="214" y="-10"/>
      <point x="253" y="-10" type="curve" smooth="yes"/>
      <point x="268" y="-10" type="line"/>
      <point x="269" y="-15" type="line"/>
      <point x="209" y="-47"/>
      <point x="166" y="-81"/>
      <point x="166" y="-132" type="curve" smooth="yes"/>
      <point x="166" y="-186"/>
      <point x="213" y="-207"/>
    </contour>
    <contour>
      <point x="340" y="631" type="curve" smooth="yes"/>
      <point x="380" y="631"/>
      <point x="401" y="649"/>
      <point x="406" y="679" type="curve" smooth="yes"/>
      <point x="408" y="691"/>
      <point x="410" y="700"/>
      <point x="410" y="708" type="curve" smooth="yes"/>
      <point x="410" y="729"/>
      <point x="395" y="748"/>
      <point x="352" y="748" type="curve" smooth="yes"/>
      <point x="312" y="748"/>
      <point x="291" y="730"/>
      <point x="286" y="700" type="curve" smooth="yes"/>
      <point x="284" y="688"/>
      <point x="282" y="679"/>
      <point x="282" y="671" type="curve" smooth="yes"/>
      <point x="282" y="650"/>
      <point x="297" y="631"/>
    </contour>
  </outline>
</glyph>
<glyph name="dotlessi" format="2">
  <advance width="600"/>
  <unicode hex="0131"/>
  <anchor x="264.0" y="0.0" name="bottom"/>
  <anchor x="322.0" y="0.0" name="bottomright"/>
  <anchor x="316.0" y="516.0" name="top"/>
  <outline>
    <contour>
      <point x="272" y="-12" type="curve" smooth="yes"/>
      <point x="317" y="-12"/>
      <point x="354" y="12"/>
      <point x="448" y="99" type="curve" smooth="yes"/>
      <point x="539" y="183" type="line"/>
      <point x="492" y="227" type="line"/>
      <point x="295" y="57" type="line"/>
      <point x="272" y="66" type="line"/>
      <point x="359" y="516" type="line"/>
      <point x="93" y="516" type="line"/>
      <point x="82" y="449" type="line"/>
      <point x="268" y="449" type="line"/>
      <point x="200" y="97" type="line" smooth="yes"/>
      <point x="198" y="85"/>
      <point x="195" y="70"/>
      <point x="195" y="57" type="curve" smooth="yes"/>
      <point x="195" y="17"/>
      <point x="222" y="-12"/>
    </contour>
  </outline>
</glyph>
<glyph name="IJ" format="2">
  <advance width="600"/>
  <unicode hex="0132"/>
  <outline>
    <contour>
      <point x="499" y="698" type="line"/>
      <point x="415" y="195" type="line" smooth="yes"/>
      <point x="400" y="105"/>
      <point x="351" y="61"/>
      <point x="269" y="61" type="curve" smooth="yes"/>
      <point x="175" y="61"/>
      <point x="153" y="109"/>
      <point x="145" y="168" type="curve"/>
      <point x="66" y="151" type="line"/>
      <point x="78" y="43"/>
      <point x="154" y="-12"/>
      <point x="267" y="-12" type="curve" smooth="yes"/>
      <point x="386" y="-12"/>
      <point x="472" y="45"/>
      <point x="493" y="170" type="curve" smooth="yes"/>
      <point x="581" y="698" type="line"/>
    </contour>
    <contour>
      <point x="98" y="290" type="line"/>
      <point x="180" y="290" type="line"/>
      <point x="247" y="698" type="line"/>
      <point x="165" y="698" type="line"/>
    </contour>
  </outline>
</glyph>
<glyph name="ij" format="2">
  <advance width="600"/>
  <unicode hex="0133"/>
  <outline>
    <contour>
      <point x="63" y="0" type="line"/>
      <point x="141" y="0" type="line"/>
      <point x="227" y="516" type="line"/>
      <point x="149" y="516" type="line"/>
    </contour>
    <contour>
      <point x="335" y="-212" type="curve" smooth="yes"/>
      <point x="395" y="-212"/>
      <point x="422" y="-163"/>
      <point x="431" y="-107" type="curve" smooth="yes"/>
      <point x="535" y="516" type="line"/>
      <point x="457" y="516" type="line"/>
      <point x="348" y="-138" type="line"/>
      <point x="330" y="-142" type="line"/>
      <point x="226" y="-32" type="line"/>
      <point x="173" y="-80" type="line"/>
      <point x="208" y="-118" type="line" smooth="yes"/>
      <point x="263" y="-177"/>
      <point x="293" y="-212"/>
    </contour>
    <contour>
      <point x="210" y="631" type="curve" smooth="yes"/>
      <point x="250" y="631"/>
      <point x="271" y="649"/>
      <point x="276" y="679" type="curve" smooth="yes"/>
      <point x="278" y="691"/>
      <point x="280" y="700"/>
      <point x="280" y="708" type="curve" smooth="yes"/>
      <point x="280" y="729"/>
      <point x="265" y="748"/>
      <point x="222" y="748" type="curve" smooth="yes"/>
      <point x="182" y="748"/>
      <point x="161" y="730"/>
      <point x="156" y="700" type="curve" smooth="yes"/>
      <point x="154" y="688"/>
      <point x="152" y="679"/>
      <point x="152" y="671" type="curve" smooth="yes"/>
      <point x="152" y="650"/>
      <point x="167" y="631"/>
    </contour>
    <contour>
      <point x="518" y="631" type="curve" smooth="yes"/>
      <point x="558" y="631"/>
      <point x="579" y="649"/>
      <point x="584" y="679" type="curve" smooth="yes"/>
      <point x="586" y="691"/>
      <point x="588" y="700"/>
      <point x="588" y="708" type="curve" smooth="yes"/>
      <point x="588" y="729"/>
      <point x="573" y="748"/>
      <point x="530" y="748" type="curve" smooth="yes"/>
      <point x="490" y="748"/>
      <point x="469" y="730"/>
      <point x="464" y="700" type="curve" smooth="yes"/>
      <point x="462" y="688"/>
      <point x="460" y="679"/>
      <point x="460" y="671" type="curve" smooth="yes"/>
      <point x="460" y="650"/>
      <point x="475" y="631"/>
    </contour>
  </outline>
</glyph>
<glyph name="kgreenlandic" format="2">
  <advance width="600"/>
  <unicode hex="0138"/>
  <anchor x="284.0" y="0.0" name="bottom"/>
  <outline>
    <contour>
      <point x="447" y="0" type="line"/>
      <point x="537" y="0" type="line"/>
      <point x="358" y="307" type="line"/>
      <point x="591" y="516" type="line"/>
      <point x="490" y="516" type="line"/>
      <point x="305" y="351" type="line"/>
      <point x="196" y="254" type="line"/>
      <point x="191" y="254" type="line"/>
      <point x="234" y="516" type="line"/>
      <point x="156" y="516" type="line"/>
      <point x="71" y="0" type="line"/>
      <point x="149" y="0" type="line"/>
      <point x="176" y="157" type="line"/>
      <point x="296" y="259" type="line"/>
    </contour>
  </outline>
</glyph>
<glyph name="Lslash" format="2">
  <advance width="600"/>
  <unicode hex="0141"/>
  <outline>
    <contour>
      <point x="503" y="72" type="line"/>
      <point x="172" y="72" type="line"/>
      <point x="209" y="296" type="line"/>
      <point x="429" y="365" type="line"/>
      <point x="440" y="434" type="line"/>
      <point x="221" y="365" type="line"/>
      <point x="276" y="698" type="line"/>
      <point x="195" y="698" type="line"/>
      <point x="136" y="343" type="line"/>
      <point x="49" y="317" type="line"/>
      <point x="38" y="248" type="line"/>
      <point x="124" y="274" type="line"/>
      <point x="78" y="0" type="line"/>
      <point x="491" y="0" type="line"/>
    </contour>
  </outline>
</glyph>
<glyph name="Eng" format="2">
  <advance width="600"/>
  <unicode hex="014A"/>
  <anchor x="371.0" y="698.0" name="top"/>
  <outline>
    <contour>
      <point x="115" y="0" type="line"/>
      <point x="216" y="602" type="line"/>
      <point x="223" y="602" type="line"/>
      <point x="356" y="0" type="line"/>
      <point x="398" y="0" type="line"/>
      <point x="374" y="-138" type="line"/>
      <point x="356" y="-142" type="line"/>
      <point x="252" y="-32" type="line"/>
      <point x="199" y="-80" type="line"/>
      <point x="234" y="-118" type="line" smooth="yes"/>
      <point x="289" y="-177"/>
      <point x="319" y="-212"/>
      <point x="361" y="-212" type="curve" smooth="yes"/>
      <point x="421" y="-212"/>
      <point x="448" y="-163"/>
      <point x="457" y="-107" type="curve" smooth="yes"/>
      <point x="592" y="698" type="line"/>
      <point x="516" y="698" type="line"/>
      <point x="415" y="96" type="line"/>
      <point x="408" y="96" type="line"/>
      <point x="275" y="698" type="line"/>
      <point x="156" y="698" type="line"/>
      <point x="39" y="0" type="line"/>
    </contour>
  </outline>
</glyph>
<glyph name="OE" format="2">
  <advance width="600"/>
  <unicode hex="0152"/>
  <outline>
    <contour>
      <point x="513" y="0" type="line"/>
      <point x="525" y="69" type="line"/>
      <point x="357" y="69" type="line"/>
      <point x="398" y="319" type="line"/>
      <point x="553" y="319" type="line"/>
      <point x="564" y="388" type="line"/>
      <point x="410" y="388" type="line"/>
      <point x="450" y="629" type="line"/>
      <point x="616" y="629" type="line"/>
      <point x="628" y="698" type="line"/>
      <point x="362" y="698" type="line" smooth="yes"/>
      <point x="167" y="698"/>
      <point x="42" y="538"/>
      <point x="42" y="252" type="curve" smooth="yes"/>
      <point x="42" y="87"/>
      <point x="115" y="0"/>
      <point x="261" y="0" type="curve" smooth="yes"/>
    </contour>
    <contour>
      <point x="277" y="69" type="line"/>
      <point x="275" y="69" type="line" smooth="yes"/>
      <point x="177" y="69"/>
      <point x="122" y="122"/>
      <point x="122" y="227" type="curve" smooth="yes"/>
      <point x="122" y="250"/>
      <point x="126" y="282"/>
      <point x="129" y="304" type="curve" smooth="yes"/>
      <point x="142" y="400" type="line" smooth="yes"/>
      <point x="161" y="543"/>
      <point x="242" y="629"/>
      <point x="353" y="629" type="curve" smooth="yes"/>
      <point x="371" y="629" type="line"/>
    </contour>
  </outline>
</glyph>
<glyph name="Tcedilla" format="2">
  <advance width="600"/>
  <unicode hex="0162"/>
  <anchor x="368.0" y="698.0" name="top"/>
  <outline>
    <contour>
      <point x="244" y="-207" type="curve" smooth="yes"/>
      <point x="305" y="-207"/>
      <point x="359" y="-181"/>
      <point x="359" y="-119" type="curve" smooth="yes"/>
      <point x="359" y="-80"/>
      <point x="337" y="-60"/>
      <point x="300" y="-60" type="curve" smooth="yes"/>
      <point x="292" y="-60"/>
      <point x="277" y="-61"/>
      <point x="263" y="-64" type="curve"/>
      <point x="261" y="-61" type="line"/>
      <point x="283" y="0" type="line"/>
      <point x="298" y="0" type="line"/>
      <point x="403" y="626" type="line"/>
      <point x="637" y="626" type="line"/>
      <point x="649" y="698" type="line"/>
      <point x="99" y="698" type="line"/>
      <point x="87" y="626" type="line"/>
      <point x="321" y="626" type="line"/>
      <point x="216" y="0" type="line"/>
      <point x="232" y="0" type="line"/>
      <point x="205" y="-76" type="line"/>
      <point x="234" y="-80" type="line" smooth="yes"/>
      <point x="285" y="-87"/>
      <point x="294" y="-105"/>
      <point x="294" y="-119" type="curve" smooth="yes"/>
      <point x="294" y="-141"/>
      <point x="273" y="-153"/>
      <point x="244" y="-153" type="curve" smooth="yes"/>
      <point x="215" y="-153"/>
      <point x="198" y="-141"/>
      <point x="188" y="-126" type="curve"/>
      <point x="148" y="-166" type="line"/>
      <point x="161" y="-187"/>
      <point x="192" y="-207"/>
    </contour>
  </outline>
</glyph>
<glyph name="tcedilla" format="2">
  <advance width="600"/>
  <unicode hex="0163"/>
  <anchor x="454.0" y="760.0" name="topright"/>
  <outline>
    <contour>
      <point x="218" y="-207" type="curve" smooth="yes"/>
      <point x="279" y="-207"/>
      <point x="333" y="-181"/>
      <point x="333" y="-119" type="curve" smooth="yes"/>
      <point x="333" y="-80"/>
      <point x="311" y="-60"/>
      <point x="274" y="-60" type="curve" smooth="yes"/>
      <point x="266" y="-60"/>
      <point x="251" y="-61"/>
      <point x="237" y="-64" type="curve"/>
      <point x="235" y="-61" type="line"/>
      <point x="253" y="-11" type="line"/>
      <point x="290" y="-7"/>
      <point x="330" y="16"/>
      <point x="413" y="75" type="curve" smooth="yes"/>
      <point x="526" y="155" type="line"/>
      <point x="487" y="205" type="line"/>
      <point x="262" y="55" type="line"/>
      <point x="242" y="67" type="line"/>
      <point x="306" y="449" type="line"/>
      <point x="519" y="449" type="line"/>
      <point x="530" y="516" type="line"/>
      <point x="317" y="516" type="line"/>
      <point x="348" y="698" type="line"/>
      <point x="274" y="698" type="line"/>
      <point x="251" y="563" type="line" smooth="yes"/>
      <point x="245" y="528"/>
      <point x="229" y="516"/>
      <point x="195" y="516" type="curve" smooth="yes"/>
      <point x="90" y="516" type="line"/>
      <point x="79" y="449" type="line"/>
      <point x="228" y="449" type="line"/>
      <point x="168" y="101" type="line" smooth="yes"/>
      <point x="166" y="90"/>
      <point x="165" y="71"/>
      <point x="165" y="62" type="curve" smooth="yes"/>
      <point x="165" y="27"/>
      <point x="179" y="4"/>
      <point x="204" y="-6" type="curve"/>
      <point x="179" y="-76" type="line"/>
      <point x="208" y="-80" type="line" smooth="yes"/>
      <point x="259" y="-87"/>
      <point x="268" y="-105"/>
      <point x="268" y="-119" type="curve" smooth="yes"/>
      <point x="268" y="-141"/>
      <point x="247" y="-153"/>
      <point x="218" y="-153" type="curve" smooth="yes"/>
      <point x="189" y="-153"/>
      <point x="172" y="-141"/>
      <point x="162" y="-126" type="curve"/>
      <point x="122" y="-166" type="line"/>
      <point x="135" y="-187"/>
      <point x="166" y="-207"/>
    </contour>
  </outline>
</glyph>
<glyph name="Tbar" format="2">
  <advance width="600"/>
  <unicode hex="0166"/>
  <anchor x="258.0" y="0.0" name="bottom"/>
  <anchor x="368.0" y="698.0" name="top"/>
  <outline>
    <contour>
      <point x="525" y="338" type="line"/>
      <point x="536" y="400" type="line"/>
      <point x="365" y="400" type="line"/>
      <point x="403" y="626" type="line"/>
      <point x="637" y="626" type="line"/>
      <point x="649" y="698" type="line"/>
      <point x="99" y="698" type="line"/>
      <point x="87" y="626" type="line"/>
      <point x="321" y="626" type="line"/>
      <point x="283" y="400" type="line"/>
      <point x="112" y="400" type="line"/>
      <point x="101" y="338" type="line"/>
      <point x="273" y="338" type="line"/>
      <point x="216" y="0" type="line"/>
      <point x="298" y="0" type="line"/>
      <point x="355" y="338" type="line"/>
    </contour>
  </outline>
</glyph>
<glyph name="tbar" format="2">
  <advance width="600"/>
  <unicode hex="0167"/>
  <anchor x="233.0" y="0.0" name="bottom"/>
  <anchor x="454.0" y="760.0" name="topright"/>
  <outline>
    <contour>
      <point x="239" y="-12" type="curve" smooth="yes"/>
      <point x="280" y="-12"/>
      <point x="320" y="9"/>
      <point x="413" y="75" type="curve" smooth="yes"/>
      <point x="526" y="155" type="line"/>
      <point x="487" y="205" type="line"/>
      <point x="262" y="55" type="line"/>
      <point x="242" y="67" type="line"/>
      <point x="275" y="268" type="line"/>
      <point x="427" y="268" type="line"/>
      <point x="437" y="329" type="line"/>
      <point x="286" y="329" type="line"/>
      <point x="306" y="449" type="line"/>
      <point x="519" y="449" type="line"/>
      <point x="530" y="516" type="line"/>
      <point x="317" y="516" type="line"/>
      <point x="348" y="698" type="line"/>
      <point x="274" y="698" type="line"/>
      <point x="251" y="563" type="line" smooth="yes"/>
      <point x="245" y="528"/>
      <point x="229" y="516"/>
      <point x="195" y="516" type="curve" smooth="yes"/>
      <point x="90" y="516" type="line"/>
      <point x="79" y="449" type="line"/>
      <point x="228" y="449" type="line"/>
      <point x="207" y="329" type="line"/>
      <point x="109" y="329" type="line"/>
      <point x="99" y="268" type="line"/>
      <point x="197" y="268" type="line"/>
      <point x="168" y="101" type="line" smooth="yes"/>
      <point x="166" y="90"/>
      <point x="165" y="71"/>
      <point x="165" y="62" type="curve" smooth="yes"/>
      <point x="165" y="14"/>
      <point x="192" y="-12"/>
    </contour>
  </outline>
</glyph>
<glyph name="Uogonek" format="2">
  <advance width="600"/>
  <unicode hex="0172"/>
  <anchor x="256.0" y="0.0" name="bottom"/>
  <anchor x="367.0" y="698.0" name="top"/>
  <outline>
    <contour>
      <point x="154" y="698" type="line"/>
      <point x="91" y="323" type="line" smooth="yes"/>
      <point x="82" y="269"/>
      <point x="73" y="209"/>
      <point x="73" y="166" type="curve" smooth="yes"/>
      <point x="73" y="52"/>
      <point x="126" y="-12"/>
      <point x="269" y="-12" type="curve" smooth="yes"/>
      <point x="277" y="-12"/>
      <point x="284" y="-12"/>
      <point x="292" y="-11" type="curve"/>
      <point x="293" y="-16" type="line"/>
      <point x="231" y="-45"/>
      <point x="189" y="-83"/>
      <point x="189" y="-132" type="curve" smooth="yes"/>
      <point x="189" y="-186"/>
      <point x="236" y="-207"/>
      <point x="287" y="-207" type="curve" smooth="yes"/>
      <point x="334" y="-207"/>
      <point x="367" y="-189"/>
      <point x="385" y="-170" type="curve"/>
      <point x="347" y="-127" type="line"/>
      <point x="328" y="-144"/>
      <point x="308" y="-153"/>
      <point x="291" y="-153" type="curve" smooth="yes"/>
      <point x="273" y="-153"/>
      <point x="257" y="-144"/>
      <point x="257" y="-122" type="curve" smooth="yes"/>
      <point x="257" y="-93"/>
      <point x="281" y="-49"/>
      <point x="378" y="5" type="curve" smooth="yes"/>
      <point x="472" y="57"/>
      <point x="499" y="142"/>
      <point x="524" y="291" type="curve" smooth="yes"/>
      <point x="592" y="698" type="line"/>
      <point x="510" y="698" type="line"/>
      <point x="439" y="274" type="line" smooth="yes"/>
      <point x="416" y="137"/>
      <point x="398" y="60"/>
      <point x="266" y="60" type="curve" smooth="yes"/>
      <point x="177" y="60"/>
      <point x="154" y="104"/>
      <point x="154" y="173" type="curve" smooth="yes"/>
      <point x="154" y="198"/>
      <point x="157" y="226"/>
      <point x="169" y="298" type="curve" smooth="yes"/>
      <point x="236" y="698" type="line"/>
    </contour>
  </outline>
</glyph>
<glyph name="uogonek" format="2">
  <advance width="600"/>
  <unicode hex="0173"/>
  <anchor x="261.0" y="0.0" name="bottom"/>
  <anchor x="340.0" y="516.0" name="top"/>
  <outline>
    <contour>
      <point x="543" y="516" type="line"/>
      <point x="465" y="516" type="line"/>
      <point x="417" y="231" type="line" smooth="yes"/>
      <point x="407" y="172"/>
      <point x="369" y="126"/>
      <point x="358" y="113" type="curve" smooth="yes"/>
      <point x="329" y="79"/>
      <point x="294" y="57"/>
      <point x="249" y="57" type="curve" smooth="yes"/>
      <point x="191" y="57"/>
      <point x="163" y="95"/>
      <point x="163" y="156" type="curve" smooth="yes"/>
      <point x="163" y="167"/>
      <point x="164" y="187"/>
      <point x="168" y="211" type="curve" smooth="yes"/>
      <point x="219" y="516" type="line"/>
      <point x="141" y="516" type="line"/>
      <point x="89" y="204" type="line" smooth="yes"/>
      <point x="85" y="181"/>
      <point x="83" y="157"/>
      <point x="83" y="137" type="curve" smooth="yes"/>
      <point x="83" y="43"/>
      <point x="138" y="-12"/>
      <point x="224" y="-12" type="curve" smooth="yes"/>
      <point x="307" y="-12"/>
      <point x="357" y="40"/>
      <point x="395" y="122" type="curve"/>
      <point x="399" y="122" type="line"/>
      <point x="379" y="0" type="line"/>
      <point x="395" y="0" type="line"/>
      <point x="394" y="-5" type="line"/>
      <point x="319" y="-39"/>
      <point x="269" y="-77"/>
      <point x="269" y="-132" type="curve" smooth="yes"/>
      <point x="269" y="-186"/>
      <point x="316" y="-207"/>
      <point x="367" y="-207" type="curve" smooth="yes"/>
      <point x="414" y="-207"/>
      <point x="447" y="-189"/>
      <point x="465" y="-170" type="curve"/>
      <point x="427" y="-127" type="line"/>
      <point x="408" y="-144"/>
      <point x="388" y="-153"/>
      <point x="371" y="-153" type="curve" smooth="yes"/>
      <point x="353" y="-153"/>
      <point x="337" y="-144"/>
      <point x="337" y="-122" type="curve" smooth="yes"/>
      <point x="337" y="-101"/>
      <point x="350" y="-70"/>
      <point x="457" y="0" type="curve"/>
    </contour>
  </outline>
</glyph>
<glyph name="longs" format="2">
  <advance width="600"/>
  <unicode hex="017F"/>
  <outline>
    <contour>
      <point x="196" y="-212" type="curve" smooth="yes"/>
      <point x="256" y="-212"/>
      <point x="283" y="-163"/>
      <point x="292" y="-107" type="curve" smooth="yes"/>
      <point x="422" y="673" type="line"/>
      <point x="630" y="673" type="line"/>
      <point x="641" y="740" type="line"/>
      <point x="468" y="740" type="line" smooth="yes"/>
      <point x="391" y="740"/>
      <point x="347" y="691"/>
      <point x="336" y="623" type="curve" smooth="yes"/>
      <point x="318" y="516" type="line"/>
      <point x="134" y="516" type="line"/>
      <point x="123" y="449" type="line"/>
      <point x="307" y="449" type="line"/>
      <point x="209" y="-138" type="line"/>
      <point x="191" y="-142" type="line"/>
      <point x="37" y="22" type="line"/>
      <point x="-16" y="-26" type="line"/>
      <point x="45" y="-93" type="line" smooth="yes"/>
      <point x="125" y="-180"/>
      <point x="154" y="-212"/>
    </contour>
  </outline>
</glyph>
<glyph name="florin" format="2">
  <advance width="600"/>
  <unicode hex="0192"/>
  <outline>
    <contour>
      <point x="139" y="-212" type="curve" smooth="yes"/>
      <point x="188" y="-212"/>
      <point x="209" y="-178"/>
      <point x="225" y="-119" type="curve"/>
      <point x="357" y="371" type="line"/>
      <point x="556" y="371" type="line"/>
      <point x="567" y="438" type="line"/>
      <point x="375" y="438" type="line"/>
      <point x="428" y="631" type="line"/>
      <point x="624" y="631" type="line"/>
      <point x="635" y="698" type="line"/>
      <point x="480" y="698" type="line" smooth="yes"/>
      <point x="403" y="698"/>
      <point x="355" y="650"/>
      <point x="336" y="581" type="curve" smooth="yes"/>
      <point x="297" y="438" type="line"/>
      <point x="128" y="438" type="line"/>
      <point x="117" y="371" type="line"/>
      <point x="279" y="371" type="line"/>
      <point x="142" y="-136" type="line"/>
      <point x="124" y="-144" type="line"/>
      <point x="-32" y="22" type="line"/>
      <point x="-84" y="-24" type="line"/>
      <point x="-2" y="-113" type="line" smooth="yes"/>
      <point x="65" y="-186"/>
      <point x="93" y="-212"/>
    </contour>
  </outline>
</glyph>
<glyph name="Ohorn" format="2">
  <advance width="600"/>
  <unicode hex="01A0"/>
  <anchor x="263.0" y="0.0" name="bottom"/>
  <anchor x="365.0" y="698.0" name="top"/>
  <outline>
    <contour>
      <point x="621" y="809" type="line"/>
      <point x="552" y="809" type="line"/>
      <point x="534" y="698" type="line"/>
      <point x="451" y="698" type="line"/>
      <point x="428" y="706"/>
      <point x="402" y="710"/>
      <point x="372" y="710" type="curve" smooth="yes"/>
      <point x="122" y="710"/>
      <point x="62" y="401"/>
      <point x="62" y="225" type="curve" smooth="yes"/>
      <point x="62" y="73"/>
      <point x="124" y="-12"/>
      <point x="260" y="-12" type="curve" smooth="yes"/>
      <point x="510" y="-12"/>
      <point x="570" y="297"/>
      <point x="570" y="473" type="curve" smooth="yes"/>
      <point x="570" y="547"/>
      <point x="556" y="605"/>
      <point x="518" y="646" type="curve"/>
      <point x="532" y="646" type="line" smooth="yes"/>
      <point x="581" y="646"/>
      <point x="598" y="674"/>
      <point x="604" y="708" type="curve" smooth="yes"/>
    </contour>
    <contour>
      <point x="266" y="60" type="curve" smooth="yes"/>
      <point x="178" y="60"/>
      <point x="143" y="115"/>
      <point x="143" y="210" type="curve" smooth="yes"/>
      <point x="143" y="233"/>
      <point x="145" y="262"/>
      <point x="150" y="292" type="curve" smooth="yes"/>
      <point x="169" y="406" type="line" smooth="yes"/>
      <point x="193" y="549"/>
      <point x="259" y="638"/>
      <point x="366" y="638" type="curve" smooth="yes"/>
      <point x="454" y="638"/>
      <point x="489" y="583"/>
      <point x="489" y="488" type="curve" smooth="yes"/>
      <point x="489" y="465"/>
      <point x="487" y="436"/>
      <point x="482" y="406" type="curve" smooth="yes"/>
      <point x="463" y="292" type="line" smooth="yes"/>
      <point x="439" y="149"/>
      <point x="373" y="60"/>
    </contour>
  </outline>
</glyph>
<glyph name="dotlessj" format="2">
  <advance width="600"/>
  <unicode hex="0237"/>
  <anchor x="435.0" y="516.0" name="top"/>
  <outline>
    <contour>
      <point x="275" y="-212" type="curve" smooth="yes"/>
      <point x="334" y="-212"/>
      <point x="361" y="-162"/>
      <point x="370" y="-107" type="curve" smooth="yes"/>
      <point x="474" y="516" type="line"/>
      <point x="183" y="516" type="line"/>
      <point x="172" y="449" type="line"/>
      <point x="385" y="449" type="line"/>
      <point x="287" y="-138" type="line"/>
      <point x="269" y="-142" type="line"/>
      <point x="111" y="26" type="line"/>
      <point x="58" y="-22" type="line"/>
      <point x="123" y="-93" type="line" smooth="yes"/>
      <point x="209" y="-187"/>
      <point x="234" y="-212"/>
    </contour>
  </outline>
</glyph>
<glyph name="schwa" format="2">
  <advance width="600"/>
  <unicode hex="0259"/>
  <outline>
    <contour>
      <point x="243" y="-12" type="curve" smooth="yes"/>
      <point x="409" y="-12"/>
      <point x="527" y="120"/>
      <point x="527" y="307" type="curve" smooth="yes"/>
      <point x="527" y="455"/>
      <point x="453" y="528"/>
      <point x="323" y="528" type="curve" smooth="yes"/>
      <point x="214" y="528"/>
      <point x="144" y="476"/>
      <point x="86" y="381" type="curve"/>
      <point x="141" y="347" type="line"/>
      <point x="199" y="429"/>
      <point x="242" y="461"/>
      <point x="316" y="461" type="curve" smooth="yes"/>
      <point x="424" y="461"/>
      <point x="445" y="394"/>
      <point x="445" y="322" type="curve" smooth="yes"/>
      <point x="445" y="320"/>
      <point x="445" y="309"/>
      <point x="444" y="299" type="curve"/>
      <point x="115" y="290"/>
      <point x="68" y="200"/>
      <point x="68" y="127" type="curve" smooth="yes"/>
      <point x="68" y="37"/>
      <point x="142" y="-12"/>
    </contour>
    <contour>
      <point x="250" y="53" type="curve" smooth="yes"/>
      <point x="175" y="53"/>
      <point x="148" y="88"/>
      <point x="148" y="130" type="curve" smooth="yes"/>
      <point x="148" y="180"/>
      <point x="186" y="237"/>
      <point x="438" y="245" type="curve"/>
      <point x="437" y="235" type="line" smooth="yes"/>
      <point x="422" y="118"/>
      <point x="354" y="53"/>
    </contour>
  </outline>
</glyph>
<glyph name="commaturnedtop" format="2">
  <advance width="600"/>
  <unicode hex="02BB"/>
  <anchor x="300.0" y="516.0" name="_top"/>
  <outline>
    <contour>
      <point x="257" y="589" type="line"/>
      <point x="365" y="589" type="line"/>
      <point x="420" y="774" type="line"/>
      <point x="359" y="774" type="line"/>
    </contour>
  </outline>
</glyph>
<glyph name="circumflex" format="2">
  <advance width="600"/>
  <unicode hex="02C6"/>
  <anchor x="300.0" y="516.0" name="_top"/>
  <outline>
    <contour>
      <point x="291" y="765" type="line"/>
      <point x="158" y="624" type="line"/>
      <point x="197" y="591" type="line"/>
      <point x="334" y="708" type="line"/>
      <point x="430" y="591" type="line"/>
      <point x="476" y="618" type="line"/>
      <point x="389" y="765" type="line"/>
    </contour>
  </outline>
</glyph>
<glyph name="caron" format="2">
  <advance width="600"/>
  <unicode hex="02C7"/>
  <anchor x="300.0" y="516.0" name="_top"/>
  <outline>
    <contour>
      <point x="362" y="599" type="line"/>
      <point x="495" y="740" type="line"/>
      <point x="456" y="773" type="line"/>
      <point x="319" y="656" type="line"/>
      <point x="223" y="773" type="line"/>
      <point x="177" y="746" type="line"/>
      <point x="264" y="599" type="line"/>
    </contour>
  </outline>
</glyph>
<glyph name="breve" format="2">
  <advance width="600"/>
  <unicode hex="02D8"/>
  <anchor x="300.0" y="516.0" name="_top"/>
  <outline>
    <contour>
      <point x="315" y="595" type="curve" smooth="yes"/>
      <point x="420" y="595"/>
      <point x="467" y="684"/>
      <point x="496" y="746" type="curve"/>
      <point x="446" y="767" type="line"/>
      <point x="419" y="733" type="line" smooth="yes"/>
      <point x="376" y="679"/>
      <point x="359" y="658"/>
      <point x="317" y="658" type="curve" smooth="yes"/>
      <point x="272" y="658"/>
      <point x="259" y="683"/>
      <point x="237" y="733" type="curve" smooth="yes"/>
      <point x="222" y="767" type="line"/>
      <point x="174" y="746" type="line"/>
      <point x="183" y="685"/>
      <point x="209" y="595"/>
    </contour>
  </outline>
</glyph>
<glyph name="tilde" format="2">
  <advance width="600"/>
  <unicode hex="02DC"/>
  <anchor x="300.0" y="516.0" name="_top"/>
  <outline>
    <contour>
      <point x="391" y="612" type="curve" smooth="yes"/>
      <point x="433" y="612"/>
      <point x="468" y="638"/>
      <point x="490" y="664" type="curve"/>
      <point x="462" y="705" type="line"/>
      <point x="439" y="687"/>
      <point x="420" y="676"/>
      <point x="399" y="676" type="curve" smooth="yes"/>
      <point x="380" y="676"/>
      <point x="358" y="685"/>
      <point x="335" y="699" type="curve" smooth="yes"/>
      <point x="315" y="711"/>
      <point x="292" y="727"/>
      <point x="259" y="727" type="curve" smooth="yes"/>
      <point x="217" y="727"/>
      <point x="182" y="701"/>
      <point x="160" y="675" type="curve"/>
      <point x="188" y="634" type="line"/>
      <point x="211" y="652"/>
      <point x="230" y="663"/>
      <point x="251" y="663" type="curve" smooth="yes"/>
      <point x="270" y="663"/>
      <point x="292" y="654"/>
      <point x="315" y="640" type="curve" smooth="yes"/>
      <point x="335" y="628"/>
      <point x="358" y="612"/>
    </contour>
  </outline>
</glyph>
<glyph name="hungarumlaut" format="2">
  <advance width="600"/>
  <unicode hex="02DD"/>
  <anchor x="300.0" y="516.0" name="_top"/>
  <outline>
    <contour>
      <point x="368" y="741" type="line"/>
      <point x="303" y="778" type="line"/>
      <point x="196" y="612" type="line"/>
      <point x="240" y="586" type="line"/>
    </contour>
    <contour>
      <point x="529" y="741" type="line"/>
      <point x="464" y="778" type="line"/>
      <point x="357" y="612" type="line"/>
      <point x="401" y="586" type="line"/>
    </contour>
  </outline>
</glyph>
<glyph name="hookcomb" format="2">
  <unicode hex="0309"/>
  <anchor x="0.0" y="516.0" name="_top"/>
  <outline>
    <contour>
      <point x="-52" y="704" type="line"/>
      <point x="63" y="704" type="line"/>
      <point x="-8" y="604" type="line"/>
      <point x="35" y="577" type="line"/>
      <point x="75" y="619" type="line" smooth="yes"/>
      <point x="108" y="653"/>
      <point x="127" y="683"/>
      <point x="127" y="713" type="curve" smooth="yes"/>
      <point x="127" y="743"/>
      <point x="107" y="765"/>
      <point x="60" y="765" type="curve" smooth="yes"/>
      <point x="-42" y="765" type="line"/>
    </contour>
  </outline>
</glyph>
<glyph name="horncomb" format="2">
  <unicode hex="031B"/>
  <outline>
    <contour>
      <point x="89" y="627" type="line"/>
      <point x="20" y="627" type="line"/>
      <point x="2" y="516" type="line"/>
      <point x="-80" y="516" type="line"/>
      <point x="-89" y="464" type="line"/>
      <point x="0" y="464" type="line" smooth="yes"/>
      <point x="49" y="464"/>
      <point x="66" y="492"/>
      <point x="72" y="526" type="curve" smooth="yes"/>
    </contour>
  </outline>
</glyph>
<glyph name="dotbelowcomb" format="2">
  <unicode hex="0323"/>
  <anchor x="0.0" y="0.0" name="_bottom"/>
  <outline>
    <contour>
      <point x="-25" y="-171" type="curve" smooth="yes"/>
      <point x="15" y="-171"/>
      <point x="27" y="-153"/>
      <point x="34" y="-128" type="curve" smooth="yes"/>
      <point x="36" y="-121"/>
      <point x="38" y="-109"/>
      <point x="38" y="-102" type="curve" smooth="yes"/>
      <point x="38" y="-83"/>
      <point x="24" y="-66"/>
      <point x="-14" y="-66" type="curve" smooth="yes"/>
      <point x="-54" y="-66"/>
      <point x="-66" y="-84"/>
      <point x="-73" y="-109" type="curve" smooth="yes"/>
      <point x="-75" y="-116"/>
      <point x="-77" y="-128"/>
      <point x="-77" y="-135" type="curve" smooth="yes"/>
      <point x="-77" y="-154"/>
      <point x="-63" y="-171"/>
    </contour>
  </outline>
</glyph>
<glyph name="commabelowcomb" format="2">
  <unicode hex="0326"/>
  <anchor x="0.0" y="0.0" name="_bottom"/>
  <outline>
    <contour>
      <point x="-119" y="-249" type="line"/>
      <point x="-58" y="-249" type="line"/>
      <point x="44" y="-64" type="line"/>
      <point x="-64" y="-64" type="line"/>
    </contour>
  </outline>
</glyph>
<glyph name="circumflexbelowcomb" format="2">
  <unicode hex="032D"/>
  <guideline x="0" y="0" angle="80.5" identifier="RC2YvJaIfu"/>
  <anchor x="0.0" y="0.0" name="_bottom"/>
  <outline>
    <contour>
      <point x="-58" y="-53" type="line"/>
      <point x="-191" y="-194" type="line"/>
      <point x="-152" y="-227" type="line"/>
      <point x="-15" y="-110" type="line"/>
      <point x="81" y="-227" type="line"/>
      <point x="127" y="-200" type="line"/>
      <point x="40" y="-53" type="line"/>
    </contour>
  </outline>
</glyph>
<glyph name="brevebelowcomb" format="2">
  <unicode hex="032E"/>
  <guideline x="0" y="0" angle="80.5" identifier="zbyx0ceFQ1"/>
  <anchor x="0.0" y="0.0" name="_bottom"/>
  <outline>
    <contour>
      <point x="-29" y="-218" type="curve" smooth="yes"/>
      <point x="76" y="-218"/>
      <point x="123" y="-129"/>
      <point x="152" y="-67" type="curve"/>
      <point x="102" y="-46" type="line"/>
      <point x="75" y="-80" type="line" smooth="yes"/>
      <point x="32" y="-134"/>
      <point x="15" y="-155"/>
      <point x="-27" y="-155" type="curve" smooth="yes"/>
      <point x="-72" y="-155"/>
      <point x="-85" y="-130"/>
      <point x="-107" y="-80" type="curve" smooth="yes"/>
      <point x="-122" y="-46" type="line"/>
      <point x="-170" y="-67" type="line"/>
      <point x="-161" y="-128"/>
      <point x="-135" y="-218"/>
    </contour>
  </outline>
</glyph>
<glyph name="macronbelowcomb" format="2">
  <unicode hex="0331"/>
  <guideline x="0" y="0" angle="80.5" identifier="Aee2Ttfwmx"/>
  <anchor x="0.0" y="0.0" name="_bottom"/>
  <outline>
    <contour>
      <point x="-161" y="-158" type="line"/>
      <point x="116" y="-158" type="line"/>
      <point x="127" y="-91" type="line"/>
      <point x="-150" y="-91" type="line"/>
    </contour>
  </outline>
</glyph>
<glyph name="pi" format="2">
  <advance width="600"/>
  <unicode hex="03C0"/>
  <outline>
    <contour>
      <point x="67" y="0" type="line"/>
      <point x="145" y="0" type="line"/>
      <point x="220" y="449" type="line"/>
      <point x="407" y="449" type="line"/>
      <point x="355" y="137" type="line" smooth="yes"/>
      <point x="348" y="94"/>
      <point x="345" y="74"/>
      <point x="345" y="56" type="curve" smooth="yes"/>
      <point x="345" y="20"/>
      <point x="365" y="-12"/>
      <point x="419" y="-12" type="curve" smooth="yes"/>
      <point x="457" y="-12"/>
      <point x="489" y="4"/>
      <point x="558" y="67" type="curve" smooth="yes"/>
      <point x="570" y="78" type="line"/>
      <point x="530" y="120" type="line"/>
      <point x="445" y="57" type="line"/>
      <point x="421" y="65" type="line"/>
      <point x="485" y="449" type="line"/>
      <point x="593" y="449" type="line"/>
      <point x="604" y="516" type="line"/>
      <point x="59" y="516" type="line"/>
      <point x="48" y="449" type="line"/>
      <point x="142" y="449" type="line"/>
    </contour>
  </outline>
</glyph>
<glyph name="uni040A" format="2">
  <advance width="600"/>
  <unicode hex="040A"/>
  <outline>
    <contour>
      <point x="11" y="0" type="line"/>
      <point x="90" y="0" type="line"/>
      <point x="143" y="318" type="line"/>
      <point x="296" y="318" type="line"/>
      <point x="243" y="0" type="line"/>
      <point x="360" y="0" type="line" smooth="yes"/>
      <point x="499" y="0"/>
      <point x="588" y="88"/>
      <point x="588" y="255" type="curve" smooth="yes"/>
      <point x="588" y="353"/>
      <point x="532" y="418"/>
      <point x="422" y="418" type="curve" smooth="yes"/>
      <point x="392" y="418" type="line"/>
      <point x="439" y="698" type="line"/>
      <point x="360" y="698" type="line"/>
      <point x="308" y="390" type="line"/>
      <point x="155" y="390" type="line"/>
      <point x="207" y="698" type="line"/>
      <point x="128" y="698" type="line"/>
    </contour>
    <contour>
      <point x="333" y="69" type="line"/>
      <point x="380" y="349" type="line"/>
      <point x="412" y="349" type="line" smooth="yes"/>
      <point x="469" y="349"/>
      <point x="507" y="320"/>
      <point x="507" y="260" type="curve" smooth="yes"/>
      <point x="507" y="240"/>
      <point x="506" y="221"/>
      <point x="503" y="202" type="curve" smooth="yes"/>
      <point x="499" y="178" type="line" smooth="yes"/>
      <point x="487" y="107"/>
      <point x="438" y="69"/>
      <point x="367" y="69" type="curve" smooth="yes"/>
    </contour>
  </outline>
</glyph>
<glyph name="uni040B" format="2">
  <advance width="600"/>
  <unicode hex="040B"/>
  <outline>
    <contour>
      <point x="124" y="0" type="line"/>
      <point x="206" y="0" type="line"/>
      <point x="264" y="345" type="line"/>
      <point x="300" y="359"/>
      <point x="330" y="366"/>
      <point x="372" y="366" type="curve" smooth="yes"/>
      <point x="434" y="366"/>
      <point x="461" y="339"/>
      <point x="461" y="291" type="curve" smooth="yes"/>
      <point x="461" y="273"/>
      <point x="459" y="252"/>
      <point x="453" y="218" type="curve" smooth="yes"/>
      <point x="416" y="0" type="line"/>
      <point x="498" y="0" type="line"/>
      <point x="532" y="202" type="line" smooth="yes"/>
      <point x="537" y="233"/>
      <point x="542" y="271"/>
      <point x="542" y="297" type="curve" smooth="yes"/>
      <point x="542" y="382"/>
      <point x="490" y="438"/>
      <point x="387" y="438" type="curve" smooth="yes"/>
      <point x="349" y="438"/>
      <point x="310" y="431"/>
      <point x="280" y="419" type="curve"/>
      <point x="276" y="419" type="line"/>
      <point x="311" y="626" type="line"/>
      <point x="469" y="626" type="line"/>
      <point x="481" y="698" type="line"/>
      <point x="83" y="698" type="line"/>
      <point x="71" y="626" type="line"/>
      <point x="229" y="626" type="line"/>
    </contour>
  </outline>
</glyph>
<glyph name="uni040F" format="2">
  <advance width="600"/>
  <unicode hex="040F"/>
  <outline>
    <contour>
      <point x="193" y="-150" type="line"/>
      <point x="270" y="-150" type="line"/>
      <point x="295" y="0" type="line"/>
      <point x="472" y="0" type="line"/>
      <point x="589" y="698" type="line"/>
      <point x="507" y="698" type="line"/>
      <point x="402" y="72" type="line"/>
      <point x="136" y="72" type="line"/>
      <point x="241" y="698" type="line"/>
      <point x="159" y="698" type="line"/>
      <point x="42" y="0" type="line"/>
      <point x="218" y="0" type="line"/>
    </contour>
  </outline>
</glyph>
<glyph name="uni0413" format="2">
  <advance width="600"/>
  <unicode hex="0413"/>
  <anchor x="402.0" y="698.0" name="top"/>
  <outline>
    <contour>
      <point x="90" y="0" type="line"/>
      <point x="172" y="0" type="line"/>
      <point x="277" y="626" type="line"/>
      <point x="584" y="626" type="line"/>
      <point x="596" y="698" type="line"/>
      <point x="207" y="698" type="line"/>
    </contour>
  </outline>
</glyph>
<glyph name="uni0414" format="2">
  <advance width="600"/>
  <unicode hex="0414"/>
  <outline>
    <contour>
      <point x="-40" y="-150" type="line"/>
      <point x="37" y="-150" type="line"/>
      <point x="62" y="0" type="line"/>
      <point x="454" y="0" type="line"/>
      <point x="429" y="-150" type="line"/>
      <point x="506" y="-150" type="line"/>
      <point x="543" y="72" type="line"/>
      <point x="460" y="72" type="line"/>
      <point x="565" y="698" type="line"/>
      <point x="246" y="698" type="line"/>
      <point x="212" y="493" type="line" smooth="yes"/>
      <point x="179" y="286"/>
      <point x="129" y="158"/>
      <point x="57" y="72" type="curve"/>
      <point x="-3" y="72" type="line"/>
    </contour>
    <contour>
      <point x="150" y="72" type="line"/>
      <point x="211" y="148"/>
      <point x="257" y="277"/>
      <point x="291" y="489" type="curve" smooth="yes"/>
      <point x="314" y="626" type="line"/>
      <point x="471" y="626" type="line"/>
      <point x="378" y="72" type="line"/>
    </contour>
  </outline>
</glyph>
<glyph name="uni0416" format="2">
  <advance width="600"/>
  <unicode hex="0416"/>
  <anchor x="374.0" y="698.0" name="top"/>
  <outline>
    <contour>
      <point x="-33" y="0" type="line"/>
      <point x="53" y="0" type="line"/>
      <point x="202" y="318" type="line"/>
      <point x="271" y="318" type="line"/>
      <point x="217" y="0" type="line"/>
      <point x="297" y="0" type="line"/>
      <point x="350" y="318" type="line"/>
      <point x="419" y="318" type="line"/>
      <point x="467" y="0" type="line"/>
      <point x="547" y="0" type="line"/>
      <point x="506" y="275" type="line" smooth="yes"/>
      <point x="499" y="323"/>
      <point x="485" y="342"/>
      <point x="457" y="352" type="curve"/>
      <point x="458" y="357" type="line"/>
      <point x="489" y="363"/>
      <point x="509" y="384"/>
      <point x="528" y="428" type="curve" smooth="yes"/>
      <point x="645" y="698" type="line"/>
      <point x="565" y="698" type="line"/>
      <point x="431" y="390" type="line"/>
      <point x="362" y="390" type="line"/>
      <point x="414" y="698" type="line"/>
      <point x="335" y="698" type="line"/>
      <point x="283" y="390" type="line"/>
      <point x="214" y="390" type="line"/>
      <point x="178" y="698" type="line"/>
      <point x="103" y="698" type="line"/>
      <point x="134" y="433" type="line" smooth="yes"/>
      <point x="139" y="389"/>
      <point x="150" y="369"/>
      <point x="176" y="357" type="curve"/>
      <point x="175" y="352" type="line"/>
      <point x="143" y="346"/>
      <point x="118" y="324"/>
      <point x="95" y="274" type="curve" smooth="yes"/>
    </contour>
  </outline>
</glyph>
<glyph name="uni0418" format="2">
  <advance width="600"/>
  <unicode hex="0418"/>
  <anchor x="366.0" y="698.0" name="top"/>
  <outline>
    <contour>
      <point x="39" y="0" type="line"/>
      <point x="118" y="0" type="line"/>
      <point x="382" y="388" type="line"/>
      <point x="495" y="554" type="line"/>
      <point x="501" y="554" type="line"/>
      <point x="450" y="341" type="line"/>
      <point x="393" y="0" type="line"/>
      <point x="475" y="0" type="line"/>
      <point x="592" y="698" type="line"/>
      <point x="513" y="698" type="line"/>
      <point x="256" y="320" type="line"/>
      <point x="136" y="144" type="line"/>
      <point x="130" y="144" type="line"/>
      <point x="181" y="357" type="line"/>
      <point x="238" y="698" type="line"/>
      <point x="156" y="698" type="line"/>
    </contour>
  </outline>
</glyph>
<glyph name="uni041A" format="2">
  <advance width="600"/>
  <unicode hex="041A"/>
  <anchor x="362.0" y="698.0" name="top"/>
  <outline>
    <contour>
      <point x="48" y="0" type="line"/>
      <point x="130" y="0" type="line"/>
      <point x="183" y="318" type="line"/>
      <point x="300" y="318" type="line"/>
      <point x="374" y="74" type="line" smooth="yes"/>
      <point x="390" y="22"/>
      <point x="415" y="0"/>
      <point x="458" y="0" type="curve" smooth="yes"/>
      <point x="512" y="0" type="line"/>
      <point x="524" y="72" type="line"/>
      <point x="460" y="72" type="line"/>
      <point x="398" y="275" type="line" smooth="yes"/>
      <point x="380" y="333"/>
      <point x="368" y="346"/>
      <point x="344" y="352" type="curve"/>
      <point x="345" y="357" type="line"/>
      <point x="371" y="361"/>
      <point x="390" y="374"/>
      <point x="416" y="414" type="curve"/>
      <point x="592" y="698" type="line"/>
      <point x="503" y="698" type="line"/>
      <point x="312" y="390" type="line"/>
      <point x="195" y="390" type="line"/>
      <point x="247" y="698" type="line"/>
      <point x="165" y="698" type="line"/>
    </contour>
  </outline>
</glyph>
<glyph name="uni041B" format="2">
  <advance width="600"/>
  <unicode hex="041B"/>
  <outline>
    <contour>
      <point x="-31" y="0" type="line"/>
      <point x="-5" y="0" type="line" smooth="yes"/>
      <point x="45" y="0"/>
      <point x="81" y="9"/>
      <point x="128" y="56" type="curve" smooth="yes"/>
      <point x="181" y="109"/>
      <point x="229" y="209"/>
      <point x="275" y="498" type="curve" smooth="yes"/>
      <point x="297" y="625" type="line"/>
      <point x="497" y="625" type="line"/>
      <point x="392" y="0" type="line"/>
      <point x="474" y="0" type="line"/>
      <point x="591" y="698" type="line"/>
      <point x="229" y="698" type="line"/>
      <point x="197" y="505" type="line" smooth="yes"/>
      <point x="151" y="225"/>
      <point x="116" y="132"/>
      <point x="46" y="72" type="curve"/>
      <point x="-20" y="72" type="line"/>
    </contour>
  </outline>
</glyph>
<glyph name="uni0423" format="2">
  <advance width="600"/>
  <unicode hex="0423"/>
  <anchor x="374.0" y="698.0" name="top"/>
  <outline>
    <contour>
      <point x="103" y="0" type="line"/>
      <point x="164" y="0" type="line" smooth="yes"/>
      <point x="234" y="0"/>
      <point x="265" y="15"/>
      <point x="301" y="82" type="curve" smooth="yes"/>
      <point x="637" y="698" type="line"/>
      <point x="551" y="698" type="line"/>
      <point x="385" y="386" type="line"/>
      <point x="316" y="251" type="line"/>
      <point x="314" y="251" type="line"/>
      <point x="283" y="389" type="line"/>
      <point x="203" y="698" type="line"/>
      <point x="124" y="698" type="line"/>
      <point x="264" y="163" type="line"/>
      <point x="215" y="72" type="line"/>
      <point x="115" y="72" type="line"/>
    </contour>
  </outline>
</glyph>
<glyph name="uni0424" format="2">
  <advance width="600"/>
  <unicode hex="0424"/>
  <outline>
    <contour>
      <point x="212" y="-29" type="line"/>
      <point x="291" y="-29" type="line"/>
      <point x="306" y="61" type="line"/>
      <point x="478" y="67"/>
      <point x="589" y="223"/>
      <point x="589" y="423" type="curve" smooth="yes"/>
      <point x="589" y="540"/>
      <point x="534" y="627"/>
      <point x="402" y="635" type="curve"/>
      <point x="417" y="725" type="line"/>
      <point x="338" y="725" type="line"/>
      <point x="323" y="635" type="line"/>
      <point x="151" y="629"/>
      <point x="40" y="473"/>
      <point x="40" y="273" type="curve" smooth="yes"/>
      <point x="40" y="156"/>
      <point x="95" y="69"/>
      <point x="227" y="61" type="curve"/>
    </contour>
    <contour>
      <point x="241" y="131" type="line"/>
      <point x="157" y="139"/>
      <point x="118" y="189"/>
      <point x="118" y="273" type="curve" smooth="yes"/>
      <point x="118" y="289"/>
      <point x="120" y="311"/>
      <point x="123" y="329" type="curve" smooth="yes"/>
      <point x="131" y="377" type="line" smooth="yes"/>
      <point x="148" y="478"/>
      <point x="213" y="559"/>
      <point x="313" y="565" type="curve"/>
    </contour>
    <contour>
      <point x="316" y="131" type="curve"/>
      <point x="388" y="565" type="line"/>
      <point x="472" y="557"/>
      <point x="511" y="507"/>
      <point x="511" y="423" type="curve" smooth="yes"/>
      <point x="511" y="407"/>
      <point x="509" y="385"/>
      <point x="506" y="367" type="curve" smooth="yes"/>
      <point x="498" y="319" type="line" smooth="yes"/>
      <point x="481" y="218"/>
      <point x="416" y="137"/>
    </contour>
  </outline>
</glyph>
<glyph name="uni0426" format="2">
  <advance width="600"/>
  <unicode hex="0426"/>
  <outline>
    <contour>
      <point x="433" y="-190" type="curve" smooth="yes"/>
      <point x="477" y="-190"/>
      <point x="505" y="-169"/>
      <point x="519" y="-85" type="curve" smooth="yes"/>
      <point x="545" y="72" type="line"/>
      <point x="458" y="72" type="line"/>
      <point x="563" y="698" type="line"/>
      <point x="481" y="698" type="line"/>
      <point x="376" y="72" type="line"/>
      <point x="133" y="72" type="line"/>
      <point x="238" y="698" type="line"/>
      <point x="156" y="698" type="line"/>
      <point x="39" y="0" type="line"/>
      <point x="478" y="0" type="line"/>
      <point x="443" y="-122" type="line"/>
      <point x="438" y="-126" type="line"/>
      <point x="306" y="-85" type="line" smooth="yes"/>
      <point x="270" y="-73"/>
      <point x="259" y="-71"/>
      <point x="241" y="-71" type="curve" smooth="yes"/>
      <point x="199" y="-71"/>
      <point x="167" y="-99"/>
      <point x="159" y="-149" type="curve" smooth="yes"/>
      <point x="153" y="-186" type="line"/>
      <point x="232" y="-186" type="line"/>
      <point x="241" y="-129" type="line"/>
      <point x="246" y="-125" type="line"/>
      <point x="342" y="-175"/>
      <point x="391" y="-190"/>
    </contour>
  </outline>
</glyph>
<glyph name="uni0428" format="2">
  <advance width="600"/>
  <unicode hex="0428"/>
  <outline>
    <contour>
      <point x="11" y="0" type="line"/>
      <point x="504" y="0" type="line"/>
      <point x="621" y="698" type="line"/>
      <point x="542" y="698" type="line"/>
      <point x="437" y="72" type="line"/>
      <point x="309" y="72" type="line"/>
      <point x="414" y="698" type="line"/>
      <point x="335" y="698" type="line"/>
      <point x="230" y="72" type="line"/>
      <point x="102" y="72" type="line"/>
      <point x="207" y="698" type="line"/>
      <point x="128" y="698" type="line"/>
    </contour>
  </outline>
</glyph>
<glyph name="uni042A" format="2">
  <advance width="600"/>
  <unicode hex="042A"/>
  <outline>
    <contour>
      <point x="126" y="0" type="line"/>
      <point x="325" y="0" type="line" smooth="yes"/>
      <point x="475" y="0"/>
      <point x="564" y="88"/>
      <point x="564" y="249" type="curve" smooth="yes"/>
      <point x="564" y="353"/>
      <point x="508" y="418"/>
      <point x="387" y="418" type="curve" smooth="yes"/>
      <point x="278" y="418" type="line"/>
      <point x="325" y="698" type="line"/>
      <point x="83" y="698" type="line"/>
      <point x="71" y="626" type="line"/>
      <point x="231" y="626" type="line"/>
    </contour>
    <contour>
      <point x="220" y="72" type="line"/>
      <point x="266" y="346" type="line"/>
      <point x="377" y="346" type="line" smooth="yes"/>
      <point x="442" y="346"/>
      <point x="480" y="320"/>
      <point x="480" y="260" type="curve" smooth="yes"/>
      <point x="480" y="240"/>
      <point x="479" y="221"/>
      <point x="476" y="202" type="curve" smooth="yes"/>
      <point x="472" y="178" type="line" smooth="yes"/>
      <point x="460" y="107"/>
      <point x="412" y="72"/>
      <point x="333" y="72" type="curve" smooth="yes"/>
    </contour>
  </outline>
</glyph>
<glyph name="uni042C" format="2">
  <advance width="600"/>
  <unicode hex="042C"/>
  <outline>
    <contour>
      <point x="151" y="72" type="line"/>
      <point x="197" y="346" type="line"/>
      <point x="335" y="346" type="line" smooth="yes"/>
      <point x="400" y="346"/>
      <point x="438" y="320"/>
      <point x="438" y="260" type="curve" smooth="yes"/>
      <point x="438" y="240"/>
      <point x="437" y="221"/>
      <point x="434" y="202" type="curve" smooth="yes"/>
      <point x="430" y="178" type="line" smooth="yes"/>
      <point x="418" y="107"/>
      <point x="370" y="72"/>
      <point x="291" y="72" type="curve" smooth="yes"/>
    </contour>
    <contour>
      <point x="57" y="0" type="line"/>
      <point x="283" y="0" type="line" smooth="yes"/>
      <point x="433" y="0"/>
      <point x="522" y="88"/>
      <point x="522" y="249" type="curve" smooth="yes"/>
      <point x="522" y="353"/>
      <point x="466" y="418"/>
      <point x="345" y="418" type="curve" smooth="yes"/>
      <point x="209" y="418" type="line"/>
      <point x="256" y="698" type="line"/>
      <point x="174" y="698" type="line"/>
    </contour>
  </outline>
</glyph>
<glyph name="uni0431" format="2">
  <advance width="600"/>
  <unicode hex="0431"/>
  <outline>
    <contour>
      <point x="273" y="-12" type="curve" smooth="yes"/>
      <point x="418" y="-12"/>
      <point x="536" y="113"/>
      <point x="536" y="310" type="curve" smooth="yes"/>
      <point x="536" y="448"/>
      <point x="466" y="516"/>
      <point x="362" y="516" type="curve" smooth="yes"/>
      <point x="284" y="516"/>
      <point x="236" y="481"/>
      <point x="190" y="411" type="curve"/>
      <point x="185" y="411" type="line"/>
      <point x="212" y="509"/>
      <point x="239" y="572"/>
      <point x="274" y="610" type="curve" smooth="yes"/>
      <point x="309" y="649"/>
      <point x="351" y="664"/>
      <point x="408" y="666" type="curve" smooth="yes"/>
      <point x="559" y="672" type="line"/>
      <point x="572" y="748" type="line"/>
      <point x="421" y="742" type="line" smooth="yes"/>
      <point x="333" y="739"/>
      <point x="271" y="713"/>
      <point x="225" y="667" type="curve" smooth="yes"/>
      <point x="133" y="575"/>
      <point x="78" y="345"/>
      <point x="78" y="198" type="curve" smooth="yes"/>
      <point x="78" y="81"/>
      <point x="146" y="-12"/>
    </contour>
    <contour>
      <point x="277" y="56" type="curve" smooth="yes"/>
      <point x="205" y="56"/>
      <point x="157" y="96"/>
      <point x="157" y="183" type="curve" smooth="yes"/>
      <point x="157" y="201"/>
      <point x="160" y="235"/>
      <point x="164" y="261" type="curve" smooth="yes"/>
      <point x="171" y="303" type="line" smooth="yes"/>
      <point x="186" y="396"/>
      <point x="235" y="448"/>
      <point x="337" y="448" type="curve" smooth="yes"/>
      <point x="408" y="448"/>
      <point x="457" y="408"/>
      <point x="457" y="327" type="curve" smooth="yes"/>
      <point x="457" y="313"/>
      <point x="456" y="296"/>
      <point x="454" y="282" type="curve" smooth="yes"/>
      <point x="444" y="222" type="line" smooth="yes"/>
      <point x="427" y="120"/>
      <point x="367" y="56"/>
    </contour>
  </outline>
</glyph>
<glyph name="uni0432" format="2">
  <advance width="600"/>
  <unicode hex="0432"/>
  <outline>
    <contour>
      <point x="286" y="-12" type="curve" smooth="yes"/>
      <point x="414" y="-12"/>
      <point x="502" y="68"/>
      <point x="502" y="166" type="curve" smooth="yes"/>
      <point x="502" y="226"/>
      <point x="467" y="266"/>
      <point x="401" y="278" type="curve"/>
      <point x="401" y="282" type="line"/>
      <point x="471" y="300"/>
      <point x="518" y="343"/>
      <point x="518" y="405" type="curve" smooth="yes"/>
      <point x="518" y="477"/>
      <point x="455" y="528"/>
      <point x="355" y="528" type="curve" smooth="yes"/>
      <point x="209" y="528"/>
      <point x="109" y="423"/>
      <point x="87" y="290" type="curve" smooth="yes"/>
      <point x="80" y="248"/>
      <point x="78" y="224"/>
      <point x="78" y="202" type="curve" smooth="yes"/>
      <point x="78" y="61"/>
      <point x="157" y="-12"/>
    </contour>
    <contour>
      <point x="290" y="53" type="curve" smooth="yes"/>
      <point x="204" y="53"/>
      <point x="158" y="102"/>
      <point x="158" y="196" type="curve" smooth="yes"/>
      <point x="158" y="206"/>
      <point x="159" y="216"/>
      <point x="160" y="222" type="curve"/>
      <point x="202" y="229" type="line" smooth="yes"/>
      <point x="267" y="239"/>
      <point x="299" y="241"/>
      <point x="325" y="241" type="curve" smooth="yes"/>
      <point x="387" y="241"/>
      <point x="419" y="216"/>
      <point x="419" y="166" type="curve" smooth="yes"/>
      <point x="419" y="158"/>
      <point x="418" y="150"/>
      <point x="417" y="144" type="curve" smooth="yes"/>
      <point x="408" y="89"/>
      <point x="356" y="53"/>
    </contour>
    <contour>
      <point x="167" y="283" type="line"/>
      <point x="169" y="295" type="line" smooth="yes"/>
      <point x="183" y="391"/>
      <point x="244" y="463"/>
      <point x="348" y="463" type="curve" smooth="yes"/>
      <point x="406" y="463"/>
      <point x="436" y="437"/>
      <point x="436" y="400" type="curve" smooth="yes"/>
      <point x="436" y="394"/>
      <point x="436" y="388"/>
      <point x="435" y="382" type="curve" smooth="yes"/>
      <point x="427" y="336"/>
      <point x="377" y="307"/>
      <point x="238" y="291" type="curve" smooth="yes"/>
    </contour>
  </outline>
</glyph>
<glyph name="uni0434" format="2">
  <advance width="600"/>
  <unicode hex="0434"/>
  <outline>
    <contour>
      <point x="245" y="-12" type="curve" smooth="yes"/>
      <point x="307" y="-12"/>
      <point x="360" y="2"/>
      <point x="410" y="52" type="curve" smooth="yes"/>
      <point x="476" y="118"/>
      <point x="523" y="259"/>
      <point x="523" y="469" type="curve" smooth="yes"/>
      <point x="523" y="669"/>
      <point x="445" y="752"/>
      <point x="295" y="752" type="curve" smooth="yes"/>
      <point x="265" y="752"/>
      <point x="237" y="750"/>
      <point x="226" y="748" type="curve"/>
      <point x="213" y="677" type="line"/>
      <point x="227" y="679"/>
      <point x="248" y="681"/>
      <point x="280" y="681" type="curve" smooth="yes"/>
      <point x="394" y="681"/>
      <point x="445" y="626"/>
      <point x="445" y="448" type="curve" smooth="yes"/>
      <point x="445" y="412" type="line"/>
      <point x="442" y="412" type="line"/>
      <point x="420" y="478"/>
      <point x="373" y="516"/>
      <point x="301" y="516" type="curve" smooth="yes"/>
      <point x="170" y="516"/>
      <point x="61" y="391"/>
      <point x="61" y="196" type="curve" smooth="yes"/>
      <point x="61" y="75"/>
      <point x="123" y="-12"/>
    </contour>
    <contour>
      <point x="250" y="56" type="curve" smooth="yes"/>
      <point x="183" y="56"/>
      <point x="140" y="96"/>
      <point x="140" y="181" type="curve" smooth="yes"/>
      <point x="140" y="195"/>
      <point x="142" y="210"/>
      <point x="146" y="234" type="curve" smooth="yes"/>
      <point x="155" y="287" type="line" smooth="yes"/>
      <point x="172" y="389"/>
      <point x="222" y="448"/>
      <point x="302" y="448" type="curve" smooth="yes"/>
      <point x="394" y="448"/>
      <point x="434" y="397"/>
      <point x="434" y="335" type="curve" smooth="yes"/>
      <point x="434" y="313"/>
      <point x="431" y="294"/>
      <point x="429" y="282" type="curve" smooth="yes"/>
      <point x="420" y="229" type="line" smooth="yes"/>
      <point x="401" y="116"/>
      <point x="335" y="56"/>
    </contour>
  </outline>
</glyph>
<glyph name="uni0437" format="2">
  <advance width="600"/>
  <unicode hex="0437"/>
  <anchor x="340.0" y="516.0" name="top"/>
  <outline>
    <contour>
      <point x="263" y="-12" type="curve" smooth="yes"/>
      <point x="407" y="-12"/>
      <point x="494" y="68"/>
      <point x="494" y="167" type="curve" smooth="yes"/>
      <point x="494" y="227"/>
      <point x="462" y="257"/>
      <point x="404" y="270" type="curve"/>
      <point x="404" y="274" type="line"/>
      <point x="480" y="293"/>
      <point x="520" y="338"/>
      <point x="520" y="397" type="curve" smooth="yes"/>
      <point x="520" y="476"/>
      <point x="448" y="528"/>
      <point x="335" y="528" type="curve" smooth="yes"/>
      <point x="239" y="528"/>
      <point x="171" y="490"/>
      <point x="113" y="432" type="curve"/>
      <point x="156" y="383" type="line"/>
      <point x="208" y="437"/>
      <point x="264" y="462"/>
      <point x="331" y="462" type="curve" smooth="yes"/>
      <point x="401" y="462"/>
      <point x="437" y="434"/>
      <point x="437" y="394" type="curve" smooth="yes"/>
      <point x="437" y="387"/>
      <point x="436" y="378"/>
      <point x="435" y="373" type="curve" smooth="yes"/>
      <point x="427" y="329"/>
      <point x="376" y="300"/>
      <point x="314" y="300" type="curve" smooth="yes"/>
      <point x="221" y="300" type="line"/>
      <point x="210" y="233" type="line"/>
      <point x="306" y="233" type="line" smooth="yes"/>
      <point x="374" y="233"/>
      <point x="409" y="211"/>
      <point x="409" y="167" type="curve" smooth="yes"/>
      <point x="409" y="157"/>
      <point x="407" y="145"/>
      <point x="406" y="139" type="curve" smooth="yes"/>
      <point x="397" y="89"/>
      <point x="355" y="54"/>
      <point x="270" y="54" type="curve" smooth="yes"/>
      <point x="196" y="54"/>
      <point x="145" y="81"/>
      <point x="105" y="131" type="curve"/>
      <point x="47" y="85" type="line"/>
      <point x="92" y="23"/>
      <point x="167" y="-12"/>
    </contour>
  </outline>
</glyph>
<glyph name="uni043B" format="2">
  <advance width="600"/>
  <unicode hex="043B"/>
  <outline>
    <contour>
      <point x="-5" y="0" type="line"/>
      <point x="28" y="0" type="line" smooth="yes"/>
      <point x="75" y="0"/>
      <point x="107" y="13"/>
      <point x="141" y="47" type="curve" smooth="yes"/>
      <point x="181" y="87"/>
      <point x="222" y="181"/>
      <point x="253" y="367" type="curve" smooth="yes"/>
      <point x="266" y="449" type="line"/>
      <point x="448" y="449" type="line"/>
      <point x="373" y="0" type="line"/>
      <point x="451" y="0" type="line"/>
      <point x="537" y="516" type="line"/>
      <point x="204" y="516" type="line"/>
      <point x="178" y="360" type="line" smooth="yes"/>
      <point x="151" y="200"/>
      <point x="117" y="115"/>
      <point x="73" y="67" type="curve"/>
      <point x="6" y="67" type="line"/>
    </contour>
  </outline>
</glyph>
<glyph name="uni043C" format="2">
  <advance width="600"/>
  <unicode hex="043C"/>
  <outline>
    <contour>
      <point x="34" y="0" type="line"/>
      <point x="108" y="0" type="line"/>
      <point x="166" y="347" type="line"/>
      <point x="175" y="417" type="line"/>
      <point x="181" y="417" type="line"/>
      <point x="272" y="94" type="line"/>
      <point x="472" y="417" type="line"/>
      <point x="478" y="417" type="line"/>
      <point x="465" y="347" type="line"/>
      <point x="406" y="0" type="line"/>
      <point x="480" y="0" type="line"/>
      <point x="566" y="516" type="line"/>
      <point x="461" y="516" type="line"/>
      <point x="298" y="252" type="line"/>
      <point x="296" y="252" type="line"/>
      <point x="222" y="516" type="line"/>
      <point x="120" y="516" type="line"/>
    </contour>
  </outline>
</glyph>
<glyph name="uni043D" format="2">
  <advance width="600"/>
  <unicode hex="043D"/>
  <outline>
    <contour>
      <point x="57" y="0" type="line"/>
      <point x="135" y="0" type="line"/>
      <point x="173" y="232" type="line"/>
      <point x="419" y="232" type="line"/>
      <point x="381" y="0" type="line"/>
      <point x="459" y="0" type="line"/>
      <point x="545" y="516" type="line"/>
      <point x="467" y="516" type="line"/>
      <point x="430" y="299" type="line"/>
      <point x="184" y="299" type="line"/>
      <point x="221" y="516" type="line"/>
      <point x="143" y="516" type="line"/>
    </contour>
  </outline>
</glyph>
<glyph name="uni0447" format="2">
  <advance width="600"/>
  <unicode hex="0447"/>
  <anchor x="329.0" y="516.0" name="top"/>
  <outline>
    <contour>
      <point x="366" y="0" type="line"/>
      <point x="443" y="0" type="line"/>
      <point x="530" y="516" type="line"/>
      <point x="452" y="516" type="line"/>
      <point x="428" y="375" type="line" smooth="yes"/>
      <point x="418" y="315"/>
      <point x="362" y="245"/>
      <point x="265" y="245" type="curve" smooth="yes"/>
      <point x="208" y="245"/>
      <point x="174" y="269"/>
      <point x="174" y="313" type="curve" smooth="yes"/>
      <point x="174" y="321"/>
      <point x="175" y="339"/>
      <point x="178" y="359" type="curve" smooth="yes"/>
      <point x="205" y="516" type="line"/>
      <point x="127" y="516" type="line"/>
      <point x="101" y="359" type="line" smooth="yes"/>
      <point x="97" y="334"/>
      <point x="95" y="310"/>
      <point x="95" y="297" type="curve" smooth="yes"/>
      <point x="95" y="228"/>
      <point x="156" y="175"/>
      <point x="248" y="175" type="curve" smooth="yes"/>
      <point x="322" y="175"/>
      <point x="370" y="210"/>
      <point x="406" y="277" type="curve"/>
      <point x="411" y="277" type="line"/>
    </contour>
  </outline>
</glyph>
<glyph name="uni0448" format="2">
  <advance width="600"/>
  <unicode hex="0448"/>
  <outline>
    <contour>
      <point x="119" y="-12" type="curve" smooth="yes"/>
      <point x="179" y="-12"/>
      <point x="218" y="27"/>
      <point x="244" y="86" type="curve"/>
      <point x="247" y="86" type="line"/>
      <point x="243" y="30"/>
      <point x="268" y="-12"/>
      <point x="326" y="-12" type="curve" smooth="yes"/>
      <point x="383" y="-12"/>
      <point x="414" y="29"/>
      <point x="438" y="81" type="curve"/>
      <point x="442" y="81" type="line"/>
      <point x="429" y="0" type="line"/>
      <point x="501" y="0" type="line"/>
      <point x="587" y="516" type="line"/>
      <point x="515" y="516" type="line"/>
      <point x="459" y="182" type="line" smooth="yes"/>
      <point x="454" y="152"/>
      <point x="442" y="119"/>
      <point x="423" y="92" type="curve" smooth="yes"/>
      <point x="407" y="69"/>
      <point x="384" y="52"/>
      <point x="356" y="52" type="curve" smooth="yes"/>
      <point x="328" y="52"/>
      <point x="314" y="69"/>
      <point x="314" y="111" type="curve" smooth="yes"/>
      <point x="314" y="127"/>
      <point x="316" y="146"/>
      <point x="320" y="170" type="curve" smooth="yes"/>
      <point x="378" y="516" type="line"/>
      <point x="306" y="516" type="line"/>
      <point x="250" y="182" type="line" smooth="yes"/>
      <point x="245" y="152"/>
      <point x="233" y="118"/>
      <point x="214" y="92" type="curve" smooth="yes"/>
      <point x="197" y="69"/>
      <point x="177" y="52"/>
      <point x="149" y="52" type="curve" smooth="yes"/>
      <point x="119" y="52"/>
      <point x="105" y="71"/>
      <point x="105" y="108" type="curve" smooth="yes"/>
      <point x="105" y="122"/>
      <point x="108" y="146"/>
      <point x="112" y="170" type="curve" smooth="yes"/>
      <point x="170" y="516" type="line"/>
      <point x="98" y="516" type="line"/>
      <point x="38" y="157" type="line" smooth="yes"/>
      <point x="34" y="133"/>
      <point x="31" y="106"/>
      <point x="31" y="87" type="curve" smooth="yes"/>
      <point x="31" y="24"/>
      <point x="62" y="-12"/>
    </contour>
  </outline>
</glyph>
<glyph name="uni044B" format="2">
  <advance width="600"/>
  <unicode hex="044B"/>
  <anchor x="343.0" y="516.0" name="top"/>
  <outline>
    <contour>
      <point x="190" y="-12" type="curve" smooth="yes"/>
      <point x="306" y="-12"/>
      <point x="382" y="78"/>
      <point x="382" y="220" type="curve" smooth="yes"/>
      <point x="382" y="299"/>
      <point x="334" y="357"/>
      <point x="258" y="357" type="curve" smooth="yes"/>
      <point x="206" y="357"/>
      <point x="166" y="330"/>
      <point x="136" y="286" type="curve"/>
      <point x="132" y="286" type="line"/>
      <point x="170" y="516" type="line"/>
      <point x="98" y="516" type="line"/>
      <point x="48" y="216" type="line" smooth="yes"/>
      <point x="42" y="182"/>
      <point x="40" y="161"/>
      <point x="40" y="139" type="curve" smooth="yes"/>
      <point x="40" y="49"/>
      <point x="94" y="-12"/>
    </contour>
    <contour>
      <point x="192" y="47" type="curve" smooth="yes"/>
      <point x="144" y="47"/>
      <point x="112" y="83"/>
      <point x="112" y="139" type="curve" smooth="yes"/>
      <point x="112" y="161"/>
      <point x="114" y="175"/>
      <point x="116" y="187" type="curve" smooth="yes"/>
      <point x="125" y="245"/>
      <point x="161" y="298"/>
      <point x="232" y="298" type="curve" smooth="yes"/>
      <point x="278" y="298"/>
      <point x="305" y="270"/>
      <point x="305" y="216" type="curve" smooth="yes"/>
      <point x="305" y="202"/>
      <point x="303" y="182"/>
      <point x="301" y="170" type="curve" smooth="yes"/>
      <point x="285" y="79"/>
      <point x="246" y="47"/>
    </contour>
    <contour>
      <point x="429" y="0" type="line"/>
      <point x="501" y="0" type="line"/>
      <point x="587" y="516" type="line"/>
      <point x="515" y="516" type="line"/>
    </contour>
  </outline>
</glyph>
<glyph name="uni044C" format="2">
  <advance width="600"/>
  <unicode hex="044C"/>
  <outline>
    <contour>
      <point x="279" y="-12" type="curve" smooth="yes"/>
      <point x="417" y="-12"/>
      <point x="509" y="87"/>
      <point x="509" y="207" type="curve" smooth="yes"/>
      <point x="509" y="306"/>
      <point x="447" y="357"/>
      <point x="357" y="357" type="curve" smooth="yes"/>
      <point x="280" y="357"/>
      <point x="233" y="319"/>
      <point x="201" y="273" type="curve"/>
      <point x="197" y="273" type="line"/>
      <point x="237" y="516" type="line"/>
      <point x="159" y="516" type="line"/>
      <point x="109" y="218" type="line" smooth="yes"/>
      <point x="104" y="188"/>
      <point x="102" y="163"/>
      <point x="102" y="147" type="curve" smooth="yes"/>
      <point x="102" y="57"/>
      <point x="163" y="-12"/>
    </contour>
    <contour>
      <point x="285" y="53" type="curve" smooth="yes"/>
      <point x="214" y="53"/>
      <point x="180" y="91"/>
      <point x="180" y="151" type="curve" smooth="yes"/>
      <point x="180" y="161"/>
      <point x="181" y="175"/>
      <point x="183" y="187" type="curve" smooth="yes"/>
      <point x="193" y="246"/>
      <point x="248" y="292"/>
      <point x="329" y="292" type="curve" smooth="yes"/>
      <point x="394" y="292"/>
      <point x="426" y="262"/>
      <point x="426" y="209" type="curve" smooth="yes"/>
      <point x="426" y="196"/>
      <point x="424" y="181"/>
      <point x="422" y="170" type="curve" smooth="yes"/>
      <point x="408" y="94"/>
      <point x="359" y="53"/>
    </contour>
  </outline>
</glyph>
<glyph name="uni044E" format="2">
  <advance width="600"/>
  <unicode hex="044E"/>
  <outline>
    <contour>
      <point x="344" y="-12" type="curve" smooth="yes"/>
      <point x="482" y="-12"/>
      <point x="558" y="149"/>
      <point x="558" y="370" type="curve" smooth="yes"/>
      <point x="558" y="475"/>
      <point x="515" y="528"/>
      <point x="429" y="528" type="curve" smooth="yes"/>
      <point x="312" y="528"/>
      <point x="251" y="429"/>
      <point x="227" y="297" type="curve"/>
      <point x="138" y="297" type="line"/>
      <point x="175" y="516" type="line"/>
      <point x="103" y="516" type="line"/>
      <point x="17" y="0" type="line"/>
      <point x="89" y="0" type="line"/>
      <point x="128" y="234" type="line"/>
      <point x="219" y="234" type="line"/>
      <point x="216" y="205"/>
      <point x="215" y="176"/>
      <point x="215" y="146" type="curve" smooth="yes"/>
      <point x="215" y="41"/>
      <point x="258" y="-12"/>
    </contour>
    <contour>
      <point x="350" y="54" type="curve" smooth="yes"/>
      <point x="307" y="54"/>
      <point x="288" y="80"/>
      <point x="288" y="146" type="curve" smooth="yes"/>
      <point x="288" y="168"/>
      <point x="292" y="202"/>
      <point x="298" y="238" type="curve" smooth="yes"/>
      <point x="309" y="300" type="line" smooth="yes"/>
      <point x="329" y="420"/>
      <point x="362" y="462"/>
      <point x="423" y="462" type="curve" smooth="yes"/>
      <point x="466" y="462"/>
      <point x="485" y="436"/>
      <point x="485" y="370" type="curve" smooth="yes"/>
      <point x="485" y="348"/>
      <point x="481" y="314"/>
      <point x="475" y="278" type="curve" smooth="yes"/>
      <point x="464" y="216" type="line" smooth="yes"/>
      <point x="444" y="96"/>
      <point x="411" y="54"/>
    </contour>
  </outline>
</glyph>
<glyph name="uni044F" format="2">
  <advance width="600"/>
  <unicode hex="044F"/>
  <outline>
    <contour>
      <point x="33" y="0" type="line"/>
      <point x="91" y="0" type="line" smooth="yes"/>
      <point x="129" y="0"/>
      <point x="155" y="12"/>
      <point x="190" y="60" type="curve" smooth="yes"/>
      <point x="293" y="202" type="line"/>
      <point x="399" y="202" type="line"/>
      <point x="366" y="0" type="line"/>
      <point x="444" y="0" type="line"/>
      <point x="527" y="497" type="line"/>
      <point x="475" y="515"/>
      <point x="409" y="528"/>
      <point x="339" y="528" type="curve" smooth="yes"/>
      <point x="182" y="528"/>
      <point x="107" y="450"/>
      <point x="107" y="350" type="curve" smooth="yes"/>
      <point x="107" y="282"/>
      <point x="150" y="236"/>
      <point x="242" y="224" type="curve"/>
      <point x="241" y="220" type="line"/>
      <point x="215" y="216"/>
      <point x="198" y="203"/>
      <point x="176" y="173" type="curve" smooth="yes"/>
      <point x="99" y="67" type="line"/>
      <point x="44" y="67" type="line"/>
    </contour>
    <contour>
      <point x="310" y="262" type="line" smooth="yes"/>
      <point x="233" y="262"/>
      <point x="190" y="289"/>
      <point x="190" y="350" type="curve" smooth="yes"/>
      <point x="190" y="356"/>
      <point x="190" y="361"/>
      <point x="192" y="373" type="curve" smooth="yes"/>
      <point x="202" y="431"/>
      <point x="243" y="463"/>
      <point x="333" y="463" type="curve" smooth="yes"/>
      <point x="377" y="463"/>
      <point x="414" y="457"/>
      <point x="440" y="449" type="curve"/>
      <point x="409" y="262" type="line"/>
    </contour>
  </outline>
</glyph>
<glyph name="uni0454" format="2">
  <advance width="600"/>
  <unicode hex="0454"/>
  <outline>
    <contour>
      <point x="270" y="-12" type="curve" smooth="yes"/>
      <point x="356" y="-12"/>
      <point x="415" y="22"/>
      <point x="479" y="102" type="curve"/>
      <point x="425" y="143" type="line"/>
      <point x="375" y="83"/>
      <point x="334" y="56"/>
      <point x="280" y="56" type="curve" smooth="yes"/>
      <point x="205" y="56"/>
      <point x="154" y="97"/>
      <point x="154" y="185" type="curve" smooth="yes"/>
      <point x="154" y="197"/>
      <point x="155" y="207"/>
      <point x="158" y="227" type="curve"/>
      <point x="377" y="227" type="line"/>
      <point x="388" y="294" type="line"/>
      <point x="169" y="294" type="line"/>
      <point x="187" y="401"/>
      <point x="244" y="460"/>
      <point x="332" y="460" type="curve" smooth="yes"/>
      <point x="396" y="460"/>
      <point x="434" y="441"/>
      <point x="454" y="378" type="curve"/>
      <point x="521" y="404" type="line"/>
      <point x="503" y="472"/>
      <point x="450" y="528"/>
      <point x="341" y="528" type="curve" smooth="yes"/>
      <point x="194" y="528"/>
      <point x="75" y="403"/>
      <point x="75" y="206" type="curve" smooth="yes"/>
      <point x="75" y="77"/>
      <point x="142" y="-12"/>
    </contour>
  </outline>
</glyph>
<glyph name="uni0459" format="2">
  <advance width="600"/>
  <unicode hex="0459"/>
  <outline>
    <contour>
      <point x="403" y="-12" type="curve" smooth="yes"/>
      <point x="511" y="-12"/>
      <point x="587" y="80"/>
      <point x="587" y="222" type="curve" smooth="yes"/>
      <point x="587" y="304"/>
      <point x="545" y="357"/>
      <point x="473" y="357" type="curve" smooth="yes"/>
      <point x="427" y="357"/>
      <point x="385" y="328"/>
      <point x="361" y="286" type="curve"/>
      <point x="357" y="286" type="line"/>
      <point x="395" y="516" type="line"/>
      <point x="149" y="516" type="line"/>
      <point x="124" y="368" type="line" smooth="yes"/>
      <point x="96" y="200"/>
      <point x="62" y="115"/>
      <point x="18" y="67" type="curve"/>
      <point x="-36" y="67" type="line"/>
      <point x="-47" y="0" type="line"/>
      <point x="-30" y="0" type="line" smooth="yes"/>
      <point x="9" y="0"/>
      <point x="39" y="9"/>
      <point x="68" y="34" type="curve" smooth="yes"/>
      <point x="121" y="80"/>
      <point x="160" y="161"/>
      <point x="194" y="367" type="curve" smooth="yes"/>
      <point x="208" y="451" type="line"/>
      <point x="312" y="451" type="line"/>
      <point x="270" y="195" type="line" smooth="yes"/>
      <point x="266" y="169"/>
      <point x="264" y="152"/>
      <point x="264" y="132" type="curve" smooth="yes"/>
      <point x="264" y="47"/>
      <point x="313" y="-12"/>
    </contour>
    <contour>
      <point x="405" y="47" type="curve" smooth="yes"/>
      <point x="363" y="47"/>
      <point x="336" y="81"/>
      <point x="336" y="135" type="curve" smooth="yes"/>
      <point x="336" y="149"/>
      <point x="337" y="163"/>
      <point x="341" y="187" type="curve" smooth="yes"/>
      <point x="350" y="241"/>
      <point x="388" y="298"/>
      <point x="447" y="298" type="curve" smooth="yes"/>
      <point x="489" y="298"/>
      <point x="510" y="276"/>
      <point x="510" y="218" type="curve" smooth="yes"/>
      <point x="510" y="204"/>
      <point x="508" y="184"/>
      <point x="506" y="172" type="curve" smooth="yes"/>
      <point x="490" y="81"/>
      <point x="451" y="47"/>
    </contour>
  </outline>
</glyph>
<glyph name="uni045A" format="2">
  <advance width="600"/>
  <unicode hex="045A"/>
  <outline>
    <contour>
      <point x="403" y="-12" type="curve" smooth="yes"/>
      <point x="511" y="-12"/>
      <point x="587" y="80"/>
      <point x="587" y="222" type="curve" smooth="yes"/>
      <point x="587" y="304"/>
      <point x="545" y="357"/>
      <point x="473" y="357" type="curve" smooth="yes"/>
      <point x="427" y="357"/>
      <point x="385" y="328"/>
      <point x="361" y="286" type="curve"/>
      <point x="357" y="286" type="line"/>
      <point x="395" y="516" type="line"/>
      <point x="323" y="516" type="line"/>
      <point x="287" y="298" type="line"/>
      <point x="133" y="298" type="line"/>
      <point x="170" y="516" type="line"/>
      <point x="98" y="516" type="line"/>
      <point x="12" y="0" type="line"/>
      <point x="84" y="0" type="line"/>
      <point x="122" y="233" type="line"/>
      <point x="276" y="233" type="line"/>
      <point x="270" y="195" type="line" smooth="yes"/>
      <point x="266" y="169"/>
      <point x="264" y="152"/>
      <point x="264" y="132" type="curve" smooth="yes"/>
      <point x="264" y="47"/>
      <point x="313" y="-12"/>
    </contour>
    <contour>
      <point x="405" y="47" type="curve" smooth="yes"/>
      <point x="363" y="47"/>
      <point x="336" y="81"/>
      <point x="336" y="135" type="curve" smooth="yes"/>
      <point x="336" y="149"/>
      <point x="337" y="163"/>
      <point x="341" y="187" type="curve" smooth="yes"/>
      <point x="350" y="241"/>
      <point x="388" y="298"/>
      <point x="447" y="298" type="curve" smooth="yes"/>
      <point x="489" y="298"/>
      <point x="510" y="276"/>
      <point x="510" y="218" type="curve" smooth="yes"/>
      <point x="510" y="204"/>
      <point x="508" y="184"/>
      <point x="506" y="172" type="curve" smooth="yes"/>
      <point x="490" y="81"/>
      <point x="451" y="47"/>
    </contour>
  </outline>
</glyph>
<glyph name="uni045F" format="2">
  <advance width="600"/>
  <unicode hex="045F"/>
  <outline>
    <contour>
      <point x="223" y="-12" type="curve" smooth="yes"/>
      <point x="306" y="-12"/>
      <point x="357" y="40"/>
      <point x="395" y="122" type="curve"/>
      <point x="399" y="122" type="line"/>
      <point x="379" y="0" type="line"/>
      <point x="457" y="0" type="line"/>
      <point x="543" y="516" type="line"/>
      <point x="465" y="516" type="line"/>
      <point x="417" y="231" type="line" smooth="yes"/>
      <point x="407" y="172"/>
      <point x="369" y="126"/>
      <point x="358" y="113" type="curve" smooth="yes"/>
      <point x="329" y="79"/>
      <point x="294" y="57"/>
      <point x="249" y="57" type="curve" smooth="yes"/>
      <point x="191" y="57"/>
      <point x="163" y="95"/>
      <point x="163" y="156" type="curve" smooth="yes"/>
      <point x="163" y="167"/>
      <point x="164" y="187"/>
      <point x="168" y="211" type="curve" smooth="yes"/>
      <point x="219" y="516" type="line"/>
      <point x="141" y="516" type="line"/>
      <point x="89" y="204" type="line" smooth="yes"/>
      <point x="85" y="181"/>
      <point x="83" y="157"/>
      <point x="83" y="137" type="curve" smooth="yes"/>
      <point x="83" y="43"/>
      <point x="137" y="-12"/>
    </contour>
    <contour>
      <point x="186" y="-200" type="line"/>
      <point x="258" y="-200" type="line"/>
      <point x="285" y="-42" type="line"/>
      <point x="213" y="-42" type="line"/>
    </contour>
  </outline>
</glyph>
<glyph name="uni0462" format="2">
  <advance width="600"/>
  <unicode hex="0462"/>
  <outline>
    <contour>
      <point x="174" y="72" type="line"/>
      <point x="220" y="346" type="line"/>
      <point x="358" y="346" type="line" smooth="yes"/>
      <point x="423" y="346"/>
      <point x="461" y="320"/>
      <point x="461" y="260" type="curve" smooth="yes"/>
      <point x="461" y="240"/>
      <point x="460" y="221"/>
      <point x="457" y="202" type="curve" smooth="yes"/>
      <point x="453" y="178" type="line" smooth="yes"/>
      <point x="441" y="107"/>
      <point x="393" y="72"/>
      <point x="314" y="72" type="curve" smooth="yes"/>
    </contour>
    <contour>
      <point x="80" y="0" type="line"/>
      <point x="306" y="0" type="line" smooth="yes"/>
      <point x="456" y="0"/>
      <point x="545" y="88"/>
      <point x="545" y="249" type="curve" smooth="yes"/>
      <point x="545" y="353"/>
      <point x="489" y="418"/>
      <point x="368" y="418" type="curve" smooth="yes"/>
      <point x="232" y="418" type="line"/>
      <point x="252" y="537" type="line"/>
      <point x="437" y="537" type="line"/>
      <point x="450" y="610" type="line"/>
      <point x="264" y="610" type="line"/>
      <point x="279" y="698" type="line"/>
      <point x="197" y="698" type="line"/>
      <point x="182" y="610" type="line"/>
      <point x="85" y="610" type="line"/>
      <point x="72" y="537" type="line"/>
      <point x="170" y="537" type="line"/>
    </contour>
  </outline>
</glyph>
<glyph name="uni0463" format="2">
  <advance width="600"/>
  <unicode hex="0463"/>
  <outline>
    <contour>
      <point x="279" y="-12" type="curve" smooth="yes"/>
      <point x="417" y="-12"/>
      <point x="509" y="87"/>
      <point x="509" y="207" type="curve" smooth="yes"/>
      <point x="509" y="306"/>
      <point x="447" y="357"/>
      <point x="357" y="357" type="curve" smooth="yes"/>
      <point x="280" y="357"/>
      <point x="233" y="319"/>
      <point x="201" y="273" type="curve"/>
      <point x="197" y="273" type="line"/>
      <point x="226" y="448" type="line"/>
      <point x="387" y="448" type="line"/>
      <point x="399" y="516" type="line"/>
      <point x="237" y="516" type="line"/>
      <point x="270" y="710" type="line"/>
      <point x="192" y="710" type="line"/>
      <point x="159" y="516" type="line"/>
      <point x="73" y="516" type="line"/>
      <point x="61" y="448" type="line"/>
      <point x="148" y="448" type="line"/>
      <point x="109" y="218" type="line" smooth="yes"/>
      <point x="104" y="188"/>
      <point x="102" y="163"/>
      <point x="102" y="147" type="curve" smooth="yes"/>
      <point x="102" y="57"/>
      <point x="163" y="-12"/>
    </contour>
    <contour>
      <point x="285" y="53" type="curve" smooth="yes"/>
      <point x="214" y="53"/>
      <point x="180" y="91"/>
      <point x="180" y="151" type="curve" smooth="yes"/>
      <point x="180" y="161"/>
      <point x="181" y="175"/>
      <point x="183" y="187" type="curve" smooth="yes"/>
      <point x="193" y="246"/>
      <point x="248" y="292"/>
      <point x="329" y="292" type="curve" smooth="yes"/>
      <point x="394" y="292"/>
      <point x="426" y="262"/>
      <point x="426" y="209" type="curve" smooth="yes"/>
      <point x="426" y="196"/>
      <point x="424" y="181"/>
      <point x="422" y="170" type="curve" smooth="yes"/>
      <point x="408" y="94"/>
      <point x="359" y="53"/>
    </contour>
  </outline>
</glyph>
<glyph name="uni046A" format="2">
  <advance width="600"/>
  <unicode hex="046A"/>
  <outline>
    <contour>
      <point x="-33" y="0" type="line"/>
      <point x="53" y="0" type="line"/>
      <point x="202" y="318" type="line"/>
      <point x="271" y="318" type="line"/>
      <point x="217" y="0" type="line"/>
      <point x="297" y="0" type="line"/>
      <point x="350" y="318" type="line"/>
      <point x="419" y="318" type="line"/>
      <point x="467" y="0" type="line"/>
      <point x="547" y="0" type="line"/>
      <point x="508" y="265" type="line" smooth="yes"/>
      <point x="499" y="329"/>
      <point x="479" y="346"/>
      <point x="458" y="352" type="curve"/>
      <point x="458" y="357" type="line"/>
      <point x="631" y="626" type="line"/>
      <point x="643" y="698" type="line"/>
      <point x="114" y="698" type="line"/>
      <point x="102" y="626" type="line"/>
      <point x="168" y="357" type="line"/>
      <point x="168" y="352" type="line"/>
      <point x="143" y="346"/>
      <point x="119" y="326"/>
      <point x="91" y="265" type="curve" smooth="yes"/>
    </contour>
    <contour>
      <point x="238" y="382" type="line"/>
      <point x="180" y="621" type="line"/>
      <point x="180" y="626" type="line"/>
      <point x="542" y="626" type="line"/>
      <point x="542" y="621" type="line"/>
      <point x="390" y="382" type="line"/>
    </contour>
  </outline>
</glyph>
<glyph name="uni046B" format="2">
  <advance width="600"/>
  <unicode hex="046B"/>
  <outline>
    <contour>
      <point x="-1" y="0" type="line"/>
      <point x="79" y="0" type="line"/>
      <point x="182" y="228" type="line"/>
      <point x="262" y="228" type="line"/>
      <point x="224" y="0" type="line"/>
      <point x="295" y="0" type="line"/>
      <point x="333" y="228" type="line"/>
      <point x="413" y="228" type="line"/>
      <point x="439" y="0" type="line"/>
      <point x="515" y="0" type="line"/>
      <point x="492" y="198" type="line" smooth="yes"/>
      <point x="488" y="236"/>
      <point x="473" y="255"/>
      <point x="449" y="259" type="curve"/>
      <point x="450" y="263" type="line"/>
      <point x="568" y="450" type="line"/>
      <point x="579" y="516" type="line"/>
      <point x="110" y="516" type="line"/>
      <point x="99" y="450" type="line"/>
      <point x="156" y="263" type="line"/>
      <point x="155" y="259" type="line"/>
      <point x="126" y="255"/>
      <point x="106" y="236"/>
      <point x="89" y="198" type="curve" smooth="yes"/>
    </contour>
    <contour>
      <point x="226" y="284" type="line"/>
      <point x="177" y="444" type="line"/>
      <point x="178" y="450" type="line"/>
      <point x="483" y="450" type="line"/>
      <point x="482" y="444" type="line"/>
      <point x="380" y="284" type="line"/>
    </contour>
  </outline>
</glyph>
<glyph name="uni0472" format="2">
  <advance width="600"/>
  <unicode hex="0472"/>
  <outline>
    <contour>
      <point x="260" y="-12" type="curve" smooth="yes"/>
      <point x="510" y="-12"/>
      <point x="570" y="297"/>
      <point x="570" y="473" type="curve" smooth="yes"/>
      <point x="570" y="625"/>
      <point x="508" y="710"/>
      <point x="372" y="710" type="curve" smooth="yes"/>
      <point x="122" y="710"/>
      <point x="62" y="401"/>
      <point x="62" y="225" type="curve" smooth="yes"/>
      <point x="62" y="73"/>
      <point x="124" y="-12"/>
    </contour>
    <contour>
      <point x="266" y="60" type="curve" smooth="yes"/>
      <point x="178" y="60"/>
      <point x="143" y="115"/>
      <point x="143" y="210" type="curve" smooth="yes"/>
      <point x="143" y="233"/>
      <point x="145" y="262"/>
      <point x="150" y="292" type="curve" smooth="yes"/>
      <point x="154" y="319" type="line"/>
      <point x="180" y="338"/>
      <point x="205" y="348"/>
      <point x="233" y="348" type="curve" smooth="yes"/>
      <point x="259" y="348"/>
      <point x="280" y="338"/>
      <point x="305" y="324" type="curve" smooth="yes"/>
      <point x="339" y="305"/>
      <point x="361" y="296"/>
      <point x="394" y="296" type="curve" smooth="yes"/>
      <point x="421" y="296"/>
      <point x="445" y="305"/>
      <point x="468" y="323" type="curve"/>
      <point x="463" y="293" type="line" smooth="yes"/>
      <point x="440" y="150"/>
      <point x="373" y="60"/>
    </contour>
    <contour>
      <point x="366" y="638" type="curve" smooth="yes"/>
      <point x="454" y="638"/>
      <point x="489" y="583"/>
      <point x="489" y="488" type="curve" smooth="yes"/>
      <point x="489" y="465"/>
      <point x="487" y="430"/>
      <point x="481" y="400" type="curve" smooth="yes"/>
      <point x="480" y="394" type="line"/>
      <point x="454" y="375"/>
      <point x="429" y="365"/>
      <point x="401" y="365" type="curve" smooth="yes"/>
      <point x="375" y="365"/>
      <point x="354" y="375"/>
      <point x="329" y="389" type="curve" smooth="yes"/>
      <point x="296" y="406"/>
      <point x="274" y="416"/>
      <point x="240" y="416" type="curve" smooth="yes"/>
      <point x="213" y="416"/>
      <point x="188" y="406"/>
      <point x="166" y="390" type="curve"/>
      <point x="169" y="407" type="line" smooth="yes"/>
      <point x="194" y="551"/>
      <point x="259" y="638"/>
    </contour>
  </outline>
</glyph>
<glyph name="uni0473" format="2">
  <advance width="600"/>
  <unicode hex="0473"/>
  <outline>
    <contour>
      <point x="265" y="-12" type="curve" smooth="yes"/>
      <point x="417" y="-12"/>
      <point x="536" y="113"/>
      <point x="536" y="310" type="curve" smooth="yes"/>
      <point x="536" y="439"/>
      <point x="468" y="528"/>
      <point x="334" y="528" type="curve" smooth="yes"/>
      <point x="183" y="528"/>
      <point x="64" y="403"/>
      <point x="64" y="206" type="curve" smooth="yes"/>
      <point x="64" y="77"/>
      <point x="133" y="-12"/>
    </contour>
    <contour>
      <point x="269" y="56" type="curve" smooth="yes"/>
      <point x="192" y="56"/>
      <point x="143" y="96"/>
      <point x="143" y="183" type="curve" smooth="yes"/>
      <point x="143" y="194"/>
      <point x="144" y="208"/>
      <point x="147" y="227" type="curve"/>
      <point x="172" y="245"/>
      <point x="196" y="255"/>
      <point x="221" y="255" type="curve" smooth="yes"/>
      <point x="246" y="255"/>
      <point x="266" y="245"/>
      <point x="290" y="232" type="curve" smooth="yes"/>
      <point x="321" y="215"/>
      <point x="342" y="206"/>
      <point x="374" y="206" type="curve" smooth="yes"/>
      <point x="399" y="206"/>
      <point x="423" y="215"/>
      <point x="444" y="231" type="curve"/>
      <point x="442" y="221" type="line" smooth="yes"/>
      <point x="425" y="119"/>
      <point x="366" y="56"/>
    </contour>
    <contour>
      <point x="331" y="460" type="curve" smooth="yes"/>
      <point x="408" y="460"/>
      <point x="457" y="420"/>
      <point x="457" y="333" type="curve" smooth="yes"/>
      <point x="457" y="323"/>
      <point x="456" y="311"/>
      <point x="454" y="294" type="curve"/>
      <point x="429" y="276"/>
      <point x="405" y="266"/>
      <point x="380" y="266" type="curve" smooth="yes"/>
      <point x="355" y="266"/>
      <point x="335" y="276"/>
      <point x="311" y="289" type="curve" smooth="yes"/>
      <point x="280" y="306"/>
      <point x="259" y="315"/>
      <point x="227" y="315" type="curve" smooth="yes"/>
      <point x="202" y="315"/>
      <point x="178" y="306"/>
      <point x="157" y="290" type="curve"/>
      <point x="175" y="396"/>
      <point x="234" y="460"/>
    </contour>
  </outline>
</glyph>
<glyph name="uni0474" format="2">
  <advance width="600"/>
  <unicode hex="0474"/>
  <outline>
    <contour>
      <point x="303" y="0" type="line"/>
      <point x="587" y="626" type="line"/>
      <point x="685" y="626" type="line"/>
      <point x="699" y="698" type="line"/>
      <point x="604" y="698" type="line" smooth="yes"/>
      <point x="554" y="698"/>
      <point x="524" y="678"/>
      <point x="505" y="635" type="curve" smooth="yes"/>
      <point x="378" y="349" type="line"/>
      <point x="261" y="81" type="line"/>
      <point x="256" y="81" type="line"/>
      <point x="221" y="349" type="line"/>
      <point x="177" y="698" type="line"/>
      <point x="99" y="698" type="line"/>
      <point x="191" y="0" type="line"/>
    </contour>
  </outline>
</glyph>
<glyph name="uni0475" format="2">
  <advance width="600"/>
  <unicode hex="0475"/>
  <outline>
    <contour>
      <point x="299" y="0" type="line"/>
      <point x="518" y="446" type="line"/>
      <point x="583" y="446" type="line"/>
      <point x="595" y="516" type="line"/>
      <point x="528" y="516" type="line" smooth="yes"/>
      <point x="484" y="516"/>
      <point x="462" y="493"/>
      <point x="444" y="457" type="curve" smooth="yes"/>
      <point x="367" y="300" type="line"/>
      <point x="259" y="67" type="line"/>
      <point x="255" y="67" type="line"/>
      <point x="218" y="300" type="line"/>
      <point x="181" y="516" type="line"/>
      <point x="105" y="516" type="line"/>
      <point x="199" y="0" type="line"/>
    </contour>
  </outline>
</glyph>
<glyph name="uni0490" format="2">
  <advance width="600"/>
  <unicode hex="0490"/>
  <outline>
    <contour>
      <point x="90" y="0" type="line"/>
      <point x="172" y="0" type="line"/>
      <point x="277" y="626" type="line"/>
      <point x="584" y="626" type="line"/>
      <point x="621" y="848" type="line"/>
      <point x="544" y="848" type="line"/>
      <point x="519" y="698" type="line"/>
      <point x="207" y="698" type="line"/>
    </contour>
  </outline>
</glyph>
<glyph name="uni0491" format="2">
  <advance width="600"/>
  <unicode hex="0491"/>
  <outline>
    <contour>
      <point x="92" y="0" type="line"/>
      <point x="170" y="0" type="line"/>
      <point x="244" y="448" type="line"/>
      <point x="529" y="448" type="line"/>
      <point x="564" y="656" type="line"/>
      <point x="492" y="656" type="line"/>
      <point x="469" y="516" type="line"/>
      <point x="178" y="516" type="line"/>
    </contour>
  </outline>
</glyph>
<glyph name="uni0492" format="2">
  <advance width="600"/>
  <unicode hex="0492"/>
  <outline>
    <contour>
      <point x="68" y="338" type="line"/>
      <point x="164" y="338" type="line"/>
      <point x="108" y="0" type="line"/>
      <point x="190" y="0" type="line"/>
      <point x="246" y="338" type="line"/>
      <point x="441" y="338" type="line"/>
      <point x="452" y="400" type="line"/>
      <point x="257" y="400" type="line"/>
      <point x="295" y="626" type="line"/>
      <point x="602" y="626" type="line"/>
      <point x="614" y="698" type="line"/>
      <point x="225" y="698" type="line"/>
      <point x="175" y="400" type="line"/>
      <point x="79" y="400" type="line"/>
    </contour>
  </outline>
</glyph>
